<svg width="102" height="191" viewBox="0 0 102 191" xmlns="http://www.w3.org/2000/svg">
<path d="M100.907 91.9407C96.4289 91.3832 94.9608 91.1417 92.6379 90.6027C85.0559 88.8373 79.0721 85.9941 72.3263 80.9952C66.4168 76.6281 61.0091 70.4584 59.6153 66.5373C59.2622 65.5152 59.1879 64.9577 59.2065 62.9136C59.2065 59.2155 60.0242 57.0041 62.2356 54.8298C64.224 52.86 66.5283 51.9494 69.5202 51.968C72.4564 51.9866 74.9466 53.1202 76.8978 55.313C78.3473 56.9297 79.0163 58.4164 79.1278 60.219C79.2022 61.557 79.165 61.78 78.6447 62.8764C77.5854 65.1622 75.8386 66.4258 73.7758 66.4258C71.7874 66.4258 70.1335 65.3294 69.1486 63.3596C68.8512 62.7463 68.5539 62.3375 68.4982 62.4304C68.1822 62.9136 67.8292 64.9392 67.8292 66.1657C67.8292 68.8602 68.6654 70.8858 70.5237 72.7813C72.3263 74.6025 75.5598 76.2936 78.7562 77.0741C80.6145 77.5387 84.2197 77.4829 86.1337 76.9626C90.6309 75.7547 94.1989 72.93 96.0572 69.1018C97.4138 66.3329 97.7669 64.8834 97.8784 61.8915C97.9527 59.6429 97.9156 59.1969 97.4882 57.5802C95.9086 51.4291 90.5937 45.6868 83.179 42.0817L81.1534 41.0967L81.8782 40.7994C82.2684 40.6322 84.4427 39.7402 86.6912 38.811C91.1327 36.9898 91.9132 36.5252 93.9202 34.3882C96.5404 31.6192 98.0642 28.6273 98.7704 24.8549C100.424 16.1022 94.552 4.74773 86.6169 1.40273C84.2197 0.38065 80.4473 -0.2326 78.7004 0.0833169L77.9942 0.2134L78.942 1.04965C80.7446 2.62923 82.2313 4.8964 83.1047 7.38657C83.5693 8.74315 83.6807 9.41215 83.7551 11.2519C84.0338 17.4402 81.1906 22.3462 75.0767 26.2487C72.1219 28.1442 65.6363 31.3219 61.9011 32.6971C58.5561 33.9607 56.4376 35.3359 53.7058 38.1048C46.7557 45.1107 44.1168 54.644 46.3097 64.8462C48.1494 73.4503 54.2447 82.0544 62.1241 87.1834C63.0161 87.7595 64.1311 88.4285 64.5771 88.6701C65.0417 88.9117 65.4133 89.1718 65.4133 89.2462C65.4133 89.7293 58.203 89.7851 55.5642 89.3205C50.7697 88.4657 44.6743 86.0684 41.3293 83.7083C39.3781 82.3332 37.4826 80.0474 36.4791 77.8732C34.8809 74.3981 34.3977 69.7894 35.1411 65.2551C35.2712 64.5303 35.3269 63.8799 35.2712 63.8242C35.1039 63.6755 32.9297 64.2887 31.5359 64.8834C27.7077 66.5002 24.4185 69.7894 22.8575 73.599C21.8168 76.1263 21.4823 77.8732 21.4823 80.9394C21.4823 83.8756 21.8168 85.864 22.7088 87.9639C22.9318 88.4471 23.0619 88.8745 23.0247 88.9117C22.9876 88.9488 22.2814 88.8559 21.4637 88.7072C19.4196 88.317 14.5507 88.3356 12.265 88.7072C8.06516 89.4134 4.38566 91.1974 1.24508 94.0407L-4.16101e-06 95.1928L0.445996 95.9362C2.41583 99.244 5.85375 101.771 9.29166 102.459C12.4137 103.091 17.4683 103.016 21.631 102.292C22.523 102.143 23.3035 102.05 23.3407 102.087C23.3778 102.124 23.2849 102.533 23.1177 102.979C22.0584 105.934 21.631 110.933 22.1885 114.073C22.7832 117.53 24.0654 119.816 27.1131 122.863C29.3988 125.149 31.0899 126.431 33.5987 127.807C34.8252 128.476 38.0958 129.906 38.3932 129.906C38.4303 129.906 38.0215 129.349 37.5012 128.661C35.6428 126.208 34.7508 123.477 34.7508 120.243C34.7508 117.567 35.1968 115.95 36.7764 112.717C40.7718 104.652 45.1017 101.251 53.52 99.5413C54.8022 99.2812 56.5491 98.9838 57.4225 98.8723C59.1322 98.6679 63.7594 98.6493 65.4133 98.8352L66.4354 98.9652L64.8558 99.8944C58.872 103.407 53.743 108.796 50.9183 114.575C47.8521 120.782 46.9415 128.643 48.5025 135.407C50.3422 143.342 54.8208 151.333 60.2472 156.406C63.6107 159.547 65.5062 160.606 77.8642 166.367C80.2614 167.482 82.733 168.709 83.3462 169.08C86.9328 171.236 89.6274 175.51 90.7982 180.918C91.1884 182.702 91.3371 186.697 91.0769 188.611C90.9654 189.466 90.9097 190.209 90.9282 190.247C91.0955 190.395 94.0874 187.961 95.3139 186.679C98.8633 182.943 100.907 177.963 100.907 173.038C100.907 169.935 99.8668 165.772 98.2315 162.353C95.1095 155.849 89.2743 150.701 82.287 148.267C81.5808 148.044 81.0233 147.784 81.0233 147.728C81.0233 147.654 81.4136 147.542 81.8967 147.468C82.9374 147.319 85.5948 146.39 86.8771 145.74C89.4787 144.439 92.6379 141.763 94.4033 139.384C95.5741 137.804 96.7077 135.426 97.1908 133.549C97.6554 131.709 97.6926 128.476 97.2652 126.413C96.4289 122.306 94.0502 118.199 90.4079 114.557C88.6239 112.773 87.5275 112.048 85.2975 111.23C83.2905 110.487 80.0942 110.357 77.8642 110.933C72.3077 112.327 68.8141 115.913 67.2717 121.767C66.2867 125.465 66.3611 128.085 67.5132 130.65C67.9964 131.728 69.5946 133.995 69.8919 133.995C69.9848 133.995 70.0592 133.512 70.0592 132.936C70.0592 130.018 71.583 127.565 74.036 126.469C76.6377 125.298 78.7004 125.948 79.7411 128.271C80.1127 129.089 80.1871 129.553 80.1871 131.114C80.1871 133.289 79.8712 134.181 78.6075 135.556C77.1394 137.135 75.0395 137.786 71.4529 137.767C67.7177 137.73 65.0974 136.801 63.0718 134.757C60.1728 131.839 59.5782 127.695 60.9719 120.15C62.0497 114.408 64.5585 109.446 68.2752 105.748C70.6538 103.388 72.6422 102.069 77.2137 99.8201C85.0373 95.9547 91.5601 93.7805 99.1421 92.4797C101.446 92.0894 101.651 92.0337 100.907 91.9407Z" fill="#A69073"/>
</svg>
