<svg width="259" height="1075" viewBox="0 0 259 1075" fill="none" xmlns="http://www.w3.org/2000/svg">
<path d="M184.549 29.59C188.775 30.95 192.405 31.4167 194.893 31.3234C195.108 31.3234 195.303 31.2966 195.501 31.2966C196.545 32.0833 197.683 32.7499 198.837 33.2032C203.325 35.0032 208.149 34.7233 212.125 32.75C214.108 31.75 215.859 30.2699 217.087 28.4833C218.317 26.7099 219.027 24.7366 219.283 22.7633C219.543 20.79 219.317 18.7767 218.588 16.99C217.893 15.19 216.583 13.6433 215.196 12.6699C212.4 10.6433 208.864 10.35 206.291 11.59C203.647 12.91 202.607 15.1766 202.296 16.8966C201.987 18.6699 202.428 20.0833 202.939 20.83C203.455 21.59 203.948 21.7766 204.127 21.6566C204.584 21.3766 203.852 19.8167 204.944 17.6967C205.444 16.67 206.5 15.5767 207.748 15.2833C209.025 14.9633 210.779 15.3634 212.092 16.6167C213.377 17.8034 213.935 19.6566 213.467 21.83C212.988 23.9766 211.553 25.8967 209.284 26.8567C207.04 27.8434 204.008 27.8966 201.555 26.7899C199.108 25.7899 197.404 23.4566 196.723 20.5099C196.116 17.5632 196.664 14.3367 198.171 12.0167C199.664 9.65672 202.148 7.92324 204.811 7.02991C207.485 6.12324 210.317 6.01662 212.787 6.53662C215.265 7.04329 217.491 8.20327 219.285 9.60327C221.903 11.6299 223.608 14.0433 224.717 16.1633C225.284 17.6967 225.649 19.3099 225.749 20.9633C226.235 27.9233 221.413 35.3499 214.425 37.9099C210.944 39.1632 207.044 39.1632 203.235 38.6432C199.419 38.1232 195.548 37.2167 191.789 36.39C190.841 36.1767 189.916 35.9499 188.979 35.7366C186.604 34.8699 183.672 33.8698 180.277 32.7098C175.491 31.0832 169.807 29.1366 163.551 26.8433C157.261 24.5766 150.567 21.8701 143.24 19.0167C135.92 16.2167 128.489 13.8965 121.367 13.1765C120.649 13.0965 119.941 13.0567 119.237 13.0167C120.897 11.6434 123.324 10.0833 126.581 8.96326C130.16 7.73659 134.803 7.15002 139.731 7.85669C144.639 8.57669 150.008 10.7499 155.376 13.7233C160.775 16.7233 165.804 20.1366 170.704 23.0299C175.591 25.9232 180.329 28.2166 184.549 29.59ZM235.408 87.1633C238.3 92.0566 241.716 97.0833 244.712 102.483C247.68 107.857 249.863 113.217 250.575 118.137C251.285 123.057 250.693 127.697 249.469 131.283C248.357 134.537 246.791 136.963 245.423 138.63C245.381 137.923 245.333 137.217 245.256 136.497C244.541 129.377 242.224 121.937 239.416 114.617C236.567 107.297 233.859 100.603 231.589 94.3099C229.301 88.0565 227.356 82.3766 225.719 77.59C224.567 74.19 223.564 71.2566 222.703 68.8833C222.481 67.95 222.255 67.0166 222.04 66.0699C221.217 62.3099 220.312 58.4433 219.785 54.6299C219.273 50.8166 219.268 46.9099 220.528 43.4299C223.085 36.4433 230.516 31.6299 237.475 32.1099C239.127 32.2165 240.736 32.5767 242.265 33.15C244.395 34.2567 246.801 35.9632 248.835 38.5765C250.228 40.3765 251.387 42.5899 251.899 45.0699C252.417 47.5499 252.311 50.3766 251.403 53.0566C250.512 55.71 248.773 58.1899 246.42 59.6966C244.1 61.2033 240.865 61.7499 237.925 61.1366C234.979 60.4566 232.647 58.7499 231.639 56.3099C230.544 53.8565 230.587 50.8165 231.581 48.5765C232.535 46.3099 234.456 44.87 236.609 44.39C238.773 43.9233 240.628 44.4833 241.819 45.7633C243.067 47.0833 243.472 48.8432 243.149 50.1099C242.864 51.3632 241.76 52.4166 240.741 52.9099C238.623 54.0166 237.056 53.2832 236.784 53.7366C236.661 53.9099 236.84 54.4033 237.607 54.9233C238.356 55.4299 239.764 55.87 241.541 55.5633C243.261 55.2566 245.523 54.2165 246.844 51.5765C248.085 49.0032 247.785 45.4566 245.769 42.6699C244.789 41.2833 243.248 39.9632 241.449 39.2699C239.663 38.5499 237.649 38.3232 235.677 38.5765C233.703 38.8299 231.731 39.5499 229.951 40.7766C228.164 42.0033 226.679 43.7499 225.684 45.7366C223.705 49.7099 223.428 54.5367 225.231 59.0167C225.688 60.1767 226.347 61.3099 227.144 62.3633C227.132 62.5633 227.117 62.7499 227.111 62.9633C227.021 65.4566 227.483 69.0832 228.849 73.3099C230.212 77.5365 232.507 82.2699 235.408 87.1633ZM238.288 153.857C237.107 158.843 235.121 162.337 233.637 164.643C233.577 164.643 233.543 164.657 233.543 164.657C233.436 164.71 233.335 164.777 233.231 164.843C233.565 162.19 233.696 159.483 233.663 156.777C233.444 149.377 231.907 142.323 229.887 135.777C229.416 134.27 228.917 132.79 228.404 131.323C227.924 129.043 227.184 126.23 226.148 123.017C223.405 114.19 218.144 102.75 214.34 89.8833C212.46 83.4433 211.351 77.2432 211.093 71.5765C210.892 65.9232 211.439 60.8433 212.597 56.75C213.567 53.15 214.876 50.3633 215.984 48.2833C215.833 50.6033 215.987 52.91 216.283 55.0966C216.869 59.2166 217.791 63.0433 218.648 66.8566C218.853 67.7366 219.073 68.5899 219.285 69.4699C219.601 72.0432 220.121 75.2299 220.869 78.8966C221.909 83.9366 223.389 89.8833 225.384 96.39C227.34 102.883 229.995 109.99 232.776 117.15C235.527 124.31 237.799 131.07 238.765 137.337C239.771 143.537 239.407 149.27 238.288 153.857ZM237.759 527.057C235.703 529.43 233.745 529.497 233.424 529.497C233.395 529.497 233.381 529.497 233.377 529.497C231.115 528.897 229.255 527.363 227.851 524.91C218.497 508.63 230.979 457.457 234.031 445.683C247.913 504.123 242.36 521.75 237.759 527.057ZM237.461 545.417C242.064 550.723 247.616 568.35 233.733 626.79C230.681 615.017 218.201 563.843 227.553 547.563C228.959 545.123 230.817 543.577 232.985 543.003C232.997 542.99 233.045 542.99 233.124 542.99C233.643 542.99 235.508 543.163 237.461 545.417ZM238.787 920.537C239.905 925.137 240.269 930.857 239.264 937.057C238.297 943.323 236.025 950.083 233.275 957.257C230.493 964.403 227.839 971.51 225.883 978.003C223.888 984.51 222.408 990.47 221.368 995.497C220.62 999.177 220.1 1002.35 219.783 1004.92C219.572 1005.8 219.352 1006.67 219.147 1007.55C218.289 1011.36 217.368 1015.19 216.781 1019.31C216.485 1021.5 216.332 1023.79 216.481 1026.12C215.373 1024.04 214.065 1021.24 213.096 1017.64C211.936 1013.55 211.391 1008.48 211.592 1002.82C211.849 997.163 212.959 990.95 214.839 984.523C218.643 971.643 223.904 960.217 226.647 951.39C227.683 948.163 228.424 945.363 228.904 943.07C229.416 941.617 229.915 940.137 230.384 938.617C232.404 932.07 233.943 925.017 234.16 917.617C234.195 914.91 234.063 912.217 233.731 909.563C233.873 909.63 234 909.683 234.109 909.71C235.596 912.03 237.597 915.523 238.787 920.537ZM249.968 943.123C251.192 946.697 251.783 951.337 251.073 956.27C250.361 961.177 248.179 966.55 245.211 971.91C242.215 977.31 238.799 982.35 235.907 987.243C233.005 992.137 230.711 996.87 229.348 1001.08C227.98 1005.31 227.52 1008.95 227.609 1011.43C227.616 1011.64 227.631 1011.84 227.643 1012.04C226.844 1013.08 226.187 1014.22 225.729 1015.38C223.927 1019.87 224.204 1024.68 226.183 1028.67C227.177 1030.64 228.661 1032.4 230.449 1033.63C232.229 1034.86 234.2 1035.56 236.176 1035.82C238.148 1036.08 240.161 1035.86 241.948 1035.12C243.747 1034.43 245.287 1033.12 246.268 1031.74C248.284 1028.94 248.584 1025.4 247.343 1022.83C246.02 1020.19 243.76 1019.15 242.04 1018.83C240.261 1018.52 238.855 1018.96 238.105 1019.48C237.339 1019.99 237.159 1020.48 237.283 1020.67C237.555 1021.12 239.121 1020.39 241.24 1021.48C242.259 1021.99 243.363 1023.04 243.648 1024.28C243.969 1025.56 243.564 1027.32 242.317 1028.63C241.127 1029.91 239.272 1030.47 237.108 1030C234.955 1029.52 233.033 1028.1 232.08 1025.82C231.085 1023.58 231.043 1020.55 232.137 1018.1C233.145 1015.64 235.477 1013.94 238.424 1013.26C241.364 1012.66 244.599 1013.2 246.919 1014.71C249.272 1016.2 251.011 1018.68 251.901 1021.35C252.808 1024.02 252.916 1026.86 252.397 1029.32C251.885 1031.8 250.727 1034.03 249.333 1035.83C247.3 1038.44 244.893 1040.15 242.764 1041.26C241.235 1041.82 239.625 1042.19 237.973 1042.28C231.015 1042.78 223.584 1037.95 221.025 1030.96C219.765 1027.48 219.772 1023.58 220.284 1019.78C220.811 1015.96 221.715 1012.08 222.539 1008.32C222.752 1007.38 222.98 1006.46 223.2 1005.52C224.063 1003.14 225.065 1000.22 226.216 996.817C227.855 992.03 229.8 986.35 232.088 980.083C234.357 973.803 237.065 967.11 239.915 959.777C242.723 952.457 245.04 945.03 245.755 937.91C245.832 937.19 245.879 936.483 245.921 935.777C247.289 937.443 248.856 939.857 249.968 943.123ZM185.048 1044.82C180.827 1046.18 176.089 1048.47 171.203 1051.38C166.303 1054.27 161.273 1057.68 155.873 1060.68C150.507 1063.64 145.136 1065.83 140.229 1066.54C135.303 1067.26 130.659 1066.66 127.08 1065.43C123.823 1064.32 121.396 1062.76 119.735 1061.39C120.441 1061.35 121.148 1061.3 121.865 1061.22C128.988 1060.51 136.417 1058.19 143.739 1055.38C151.065 1052.54 157.76 1049.83 164.049 1047.55C170.305 1045.27 175.989 1043.32 180.776 1041.68C184.171 1040.54 187.103 1039.54 189.477 1038.67C190.415 1038.44 191.34 1038.22 192.288 1038C196.047 1037.18 199.917 1036.28 203.733 1035.75C207.543 1035.24 211.443 1035.23 214.924 1036.5C221.912 1039.06 226.733 1046.48 226.248 1053.44C226.148 1055.1 225.783 1056.7 225.216 1058.23C224.107 1060.36 222.403 1062.76 219.784 1064.8C217.989 1066.19 215.764 1067.35 213.285 1067.87C210.816 1068.38 207.983 1068.27 205.309 1067.36C202.647 1066.48 200.164 1064.74 198.669 1062.39C197.163 1060.07 196.615 1056.83 197.221 1053.9C197.903 1050.95 199.605 1048.62 202.053 1047.6C204.505 1046.51 207.539 1046.55 209.783 1047.55C212.051 1048.5 213.487 1050.42 213.965 1052.58C214.433 1054.74 213.876 1056.59 212.591 1057.79C211.276 1059.03 209.523 1059.44 208.247 1059.11C206.999 1058.83 205.943 1057.72 205.443 1056.71C204.351 1054.59 205.083 1053.02 204.624 1052.75C204.447 1052.63 203.953 1052.8 203.437 1053.58C202.927 1054.32 202.485 1055.72 202.795 1057.51C203.105 1059.23 204.144 1061.48 206.789 1062.8C209.361 1064.06 212.899 1063.75 215.695 1061.74C217.08 1060.75 218.392 1059.22 219.085 1057.42C219.816 1055.63 220.041 1053.62 219.781 1051.64C219.525 1049.67 218.816 1047.7 217.585 1045.91C216.356 1044.14 214.607 1042.64 212.624 1041.66C208.648 1039.67 203.824 1039.39 199.336 1041.2C198.18 1041.66 197.044 1042.31 195.999 1043.11C195.801 1043.1 195.608 1043.08 195.392 1043.07C192.903 1042.99 189.273 1043.44 185.048 1044.82ZM92.9693 1049.12C95.8 1049.51 98.6866 1049.67 101.581 1049.63C108.983 1049.4 116.035 1047.87 122.581 1045.86C124.092 1045.38 125.573 1044.88 127.037 1044.38C129.323 1043.9 132.128 1043.15 135.344 1042.11C144.171 1039.38 155.608 1034.11 168.48 1030.31C174.913 1028.43 181.119 1027.31 186.777 1027.06C192.441 1026.86 197.515 1027.4 201.608 1028.56C205.204 1029.54 207.999 1030.84 210.076 1031.95C207.751 1031.8 205.451 1031.95 203.265 1032.24C199.144 1032.83 195.321 1033.76 191.509 1034.62C190.627 1034.82 189.764 1035.04 188.889 1035.26C186.316 1035.56 183.137 1036.08 179.459 1036.83C174.424 1037.87 168.473 1039.35 161.965 1041.35C155.471 1043.31 148.364 1045.96 141.212 1048.74C134.047 1051.5 127.288 1053.76 121.023 1054.74C114.823 1055.74 109.095 1055.38 104.497 1054.26C98.9547 1052.94 95.2493 1050.63 92.9693 1049.12ZM201.109 45.8433C197.017 47.0033 191.943 47.5365 186.279 47.3365C180.62 47.0832 174.416 45.9766 167.981 44.0966C155.109 40.2966 143.672 35.03 134.845 32.2833C131.631 31.2567 128.824 30.5099 126.539 30.0299C125.075 29.5232 123.595 29.0167 122.083 28.55C115.536 26.5234 108.485 24.9899 101.083 24.7766C98.1893 24.7366 95.3026 24.8967 92.4706 25.2833C94.7506 23.7767 98.456 21.4567 103.999 20.15C108.597 19.03 114.325 18.6699 120.524 19.6699C126.789 20.6299 133.548 22.9099 140.713 25.6566C147.865 28.4433 154.972 31.0966 161.468 33.0566C167.975 35.0433 173.925 36.5232 178.96 37.5632C182.639 38.3099 185.819 38.83 188.392 39.15C189.267 39.3634 190.128 39.5766 191.011 39.7899C194.823 40.6433 198.645 41.5634 202.767 42.15C204.952 42.4434 207.252 42.6033 209.579 42.4567C207.5 43.5633 204.705 44.8699 201.109 45.8433ZM140.449 1.34998C134.268 0.869976 128.712 2.20331 124.58 4.34998C120.425 6.52331 117.776 9.44317 116.569 11.7098C116.335 12.1498 116.156 12.55 116.001 12.9233C110.931 12.9767 106.3 13.8966 102.503 15.35C97.364 17.2833 93.796 20.1366 91.8307 22.4299C91.5733 22.7366 91.3427 23.0299 91.1333 23.3099C81.6493 12.6433 0 24.59 0 24.59C45.152 30.3633 68.0827 30.51 79.7294 29.0834C79.0054 29.4567 78.292 29.8432 77.604 30.2699C75.4413 31.2566 72.8987 32.8434 70.496 35.55C68.8307 37.4434 67.3734 39.8699 66.4654 42.8032C65.572 45.7099 65.288 49.2299 66.368 52.7766C67.4 56.3099 69.7893 59.4966 72.78 61.79C75.7813 64.11 79.364 65.67 83.224 66.39C87.04 67.0833 90.9253 66.9767 94.5667 65.95C98.184 64.95 101.553 62.8966 103.876 60.2032C106.235 57.5499 107.689 54.27 108.016 51.03C108.357 47.71 107.443 44.5899 105.699 42.2699C103.981 39.9499 101.149 38.5232 98.6413 38.8032C96.24 39.0432 94.5947 40.2433 93.608 41.4567C92.6187 42.6967 92.3933 44.0166 92.5146 44.7899C92.6253 45.6033 92.9693 45.9233 93.184 45.8966C93.712 45.8566 93.872 44.4166 95.5227 43.4432C96.3227 42.9766 97.5173 42.5899 98.6747 42.7766C99.7253 42.9233 100.793 43.7367 101.537 45.0834C102.264 46.4434 102.593 48.3499 102.183 50.2032C101.781 52.1366 100.727 54.1233 99.0747 55.75C95.9 59.07 90.2293 60.4833 84.5093 59.4033C78.892 58.3899 74.0307 54.87 72.5854 50.7233C70.9987 46.5633 72.424 41.7633 74.488 38.59C76.0053 36.2566 77.8586 34.5099 79.4866 33.1899C80.128 32.8033 80.7907 32.4299 81.4747 32.0966C87.2133 29.2832 94.0973 28.23 100.997 28.3234C107.947 28.5234 114.7 29.9633 121.067 31.8833C122.563 32.3366 124.036 32.8166 125.495 33.3099C127.527 34.3233 130.055 35.5233 132.98 36.95C141.092 40.7766 152.236 46.8299 166.012 50.9233C172.892 52.9366 179.841 53.99 186.211 53.8833C192.567 53.7366 198.331 52.5499 202.788 50.5765C207.265 48.6432 210.431 46.1499 212.208 44.1099C213.02 43.1899 213.564 42.4033 213.897 41.7766C214.484 41.6299 215.067 41.4566 215.648 41.2433C216.515 40.9233 217.343 40.5232 218.147 40.0966C217.795 40.7766 217.467 41.4833 217.192 42.2167C216.984 42.79 216.809 43.3766 216.657 43.9633C216.031 44.2966 215.241 44.8433 214.323 45.6566C212.291 47.4299 209.795 50.5899 207.863 55.0699C205.887 59.5233 204.692 65.2966 204.549 71.6566C204.448 78.0166 205.501 84.9632 207.515 91.8432C211.607 105.63 217.661 116.763 221.484 124.883C222.907 127.803 224.115 130.337 225.125 132.363C225.621 133.83 226.104 135.297 226.557 136.79C228.476 143.163 229.907 149.91 230.111 156.87C230.209 163.763 229.151 170.643 226.34 176.39C226.004 177.07 225.637 177.737 225.249 178.377C223.92 180.003 222.18 181.857 219.839 183.377C216.672 185.443 211.876 186.857 207.712 185.27C203.56 183.83 200.048 178.963 199.031 173.35C197.947 167.63 199.371 161.963 202.687 158.79C204.316 157.137 206.304 156.083 208.225 155.683C210.077 155.27 211.987 155.603 213.345 156.323C214.7 157.07 215.508 158.137 215.663 159.19C215.841 160.35 215.46 161.537 214.988 162.337C214.013 163.99 212.584 164.15 212.535 164.683C212.507 164.897 212.833 165.243 213.639 165.35C214.425 165.47 215.743 165.243 216.985 164.257C218.188 163.27 219.391 161.617 219.635 159.217C219.905 156.71 218.483 153.883 216.16 152.163C213.843 150.417 210.721 149.51 207.404 149.843C204.163 150.177 200.887 151.63 198.236 153.99C195.541 156.31 193.491 159.683 192.485 163.297C191.455 166.937 191.347 170.817 192.044 174.63C192.764 178.497 194.328 182.083 196.643 185.083C198.937 188.07 202.127 190.457 205.664 191.497C209.199 192.577 212.728 192.283 215.635 191.39C218.563 190.483 220.997 189.03 222.889 187.363C225.589 184.963 227.173 182.417 228.159 180.257C228.345 179.963 228.503 179.63 228.679 179.323C226.967 200.363 231.481 237.55 233.296 251.177L223.921 260.55L232.791 269.417V425.977L223.921 434.843L233.141 444.057C230.753 452.963 216.615 507.91 226.749 525.55C228.249 528.163 230.244 529.843 232.748 530.617L227.141 536.217L232.692 541.777C230.119 542.47 228.019 544.203 226.453 546.923C216.057 565.017 231.197 622.363 233.003 629.003L223.921 638.083L232.791 646.95V803.51L223.921 812.377L233.543 822.003C228.627 861.59 228.205 883.337 229.283 895.257C229.073 894.883 228.883 894.51 228.656 894.137C227.671 891.977 226.087 889.443 223.387 887.03C221.495 885.363 219.061 883.91 216.133 883.003C213.225 882.11 209.697 881.83 206.163 882.91C202.625 883.937 199.436 886.323 197.141 889.323C194.827 892.323 193.261 895.91 192.543 899.763C191.845 903.577 191.953 907.47 192.983 911.11C193.989 914.723 196.04 918.097 198.735 920.417C201.387 922.777 204.661 924.23 207.903 924.55C211.22 924.897 214.341 923.977 216.659 922.243C218.98 920.523 220.404 917.683 220.133 915.177C219.889 912.777 218.687 911.137 217.484 910.15C216.241 909.163 214.923 908.937 214.137 909.057C213.332 909.163 213.005 909.51 213.033 909.723C213.083 910.243 214.512 910.417 215.487 912.057C215.959 912.857 216.34 914.057 216.161 915.217C216.007 916.27 215.199 917.337 213.843 918.07C212.484 918.803 210.576 919.137 208.724 918.723C206.803 918.323 204.815 917.27 203.184 915.617C199.869 912.443 198.444 906.763 199.529 901.043C200.547 895.43 204.059 890.563 208.211 889.123C212.373 887.537 217.171 888.963 220.337 891.03C222.679 892.55 224.419 894.403 225.748 896.03C226.136 896.67 226.503 897.337 226.837 898.017C229.649 903.75 230.707 910.63 230.609 917.537C230.405 924.483 228.973 931.243 227.056 937.603C226.603 939.097 226.12 940.577 225.623 942.03C224.612 944.07 223.405 946.59 221.983 949.523C218.16 957.63 212.105 968.777 208.013 982.55C206 989.43 204.947 996.377 205.047 1002.75C205.192 1009.11 206.385 1014.87 208.361 1019.32C210.293 1023.8 212.789 1026.96 214.821 1028.75C215.74 1029.56 216.529 1030.1 217.156 1030.44C217.308 1031.02 217.483 1031.6 217.692 1032.19C217.965 1032.92 218.293 1033.62 218.644 1034.31C217.841 1033.88 217.013 1033.48 216.145 1033.16C215.565 1032.95 214.981 1032.78 214.396 1032.62C214.063 1031.99 213.519 1031.2 212.707 1030.28C210.929 1028.26 207.764 1025.76 203.287 1023.83C198.831 1021.86 193.065 1020.66 186.709 1020.51C180.34 1020.42 173.391 1021.47 166.511 1023.48C152.735 1027.58 141.589 1033.63 133.479 1037.46C130.553 1038.87 128.027 1040.08 125.993 1041.1C124.535 1041.59 123.061 1042.07 121.565 1042.52C115.199 1044.44 108.445 1045.87 101.495 1046.07C94.596 1046.18 87.712 1045.12 81.9733 1042.31C81.2893 1041.96 80.6266 1041.6 79.984 1041.22C78.3573 1039.88 76.504 1038.15 74.9866 1035.8C72.9226 1032.64 71.4973 1027.84 73.084 1023.68C74.528 1019.52 79.3893 1016.02 85.0066 1015C90.7266 1013.91 96.3986 1015.34 99.5733 1018.66C101.225 1020.28 102.28 1022.27 102.681 1024.19C103.091 1026.04 102.761 1027.95 102.036 1029.31C101.292 1030.67 100.224 1031.47 99.1733 1031.63C98.016 1031.8 96.8213 1031.43 96.02 1030.95C94.3706 1029.98 94.2106 1028.55 93.6813 1028.5C93.468 1028.47 93.124 1028.8 93.0133 1029.6C92.892 1030.39 93.1173 1031.71 94.108 1032.95C95.0933 1034.15 96.7386 1035.35 99.14 1035.6C101.648 1035.87 104.48 1034.44 106.197 1032.12C107.941 1029.8 108.856 1026.68 108.515 1023.36C108.188 1020.12 106.732 1016.86 104.375 1014.2C102.053 1011.51 98.6827 1009.46 95.0654 1008.46C91.424 1007.42 87.5386 1007.31 83.7226 1008.02C79.8626 1008.72 76.28 1010.3 73.2786 1012.6C70.288 1014.91 67.8987 1018.1 66.8667 1021.63C65.7867 1025.16 66.0707 1028.7 66.964 1031.6C67.872 1034.52 69.3293 1036.96 70.9947 1038.86C73.396 1041.55 75.94 1043.14 78.1 1044.12C78.712 1044.5 79.3467 1044.84 79.9853 1045.18C54.8 1042.32 0.498698 1050.28 0.498698 1050.28C75.1627 1059.83 89.0867 1053.98 91.6467 1051.11C91.852 1051.39 92.0787 1051.67 92.3294 1051.96C94.2934 1054.26 97.8627 1057.11 103.001 1059.04C106.799 1060.51 111.429 1061.42 116.5 1061.48C116.653 1061.86 116.832 1062.24 117.068 1062.68C118.275 1064.95 120.923 1067.88 125.079 1070.04C129.211 1072.2 134.767 1073.52 140.948 1073.04C147.169 1072.54 153.431 1070.14 159.305 1066.9C165.169 1063.64 170.183 1059.98 174.707 1056.91C179.225 1053.82 183.339 1051.27 186.943 1049.47C188.98 1048.43 190.845 1047.63 192.483 1047C191.437 1048.67 190.692 1050.51 190.276 1052.4C189.288 1057.24 190.196 1062.24 192.848 1066.2C195.52 1070.15 199.5 1072.55 203.411 1073.63C207.348 1074.74 211.317 1074.6 214.773 1073.56C218.241 1072.52 221.048 1070.63 223.125 1068.55C226.256 1065.42 227.841 1061.98 228.537 1059.14C229.164 1057.4 229.581 1055.56 229.721 1053.66C229.956 1050.08 229.119 1046.51 227.467 1043.31C230.757 1045.1 234.476 1046 238.184 1045.76C240.096 1045.62 241.935 1045.2 243.676 1044.58C246.512 1043.88 249.943 1042.3 253.084 1039.16C255.157 1037.08 257.059 1034.28 258.097 1030.82C259.132 1027.36 259.263 1023.39 258.165 1019.46C257.077 1015.54 254.679 1011.56 250.733 1008.88C246.783 1006.24 241.781 1005.32 236.932 1006.32C235.036 1006.74 233.199 1007.48 231.539 1008.52C232.168 1006.88 232.957 1005.02 234 1002.98C235.808 999.377 238.344 995.27 241.436 990.75C244.507 986.23 248.171 981.203 251.431 975.35C254.668 969.47 257.075 963.203 257.58 956.99C258.06 950.803 256.735 945.257 254.576 941.123C252.411 936.963 249.488 934.31 247.22 933.11C246.783 932.87 246.387 932.697 246.011 932.537C245.953 927.47 245.037 922.843 243.583 919.043C241.645 913.91 238.791 910.337 236.5 908.363C236.403 908.283 236.312 908.217 236.217 908.137C244.029 896.763 236.783 838.23 234.611 822.137L244.373 812.377L234.821 802.83V647.63L244.373 638.083L234.66 628.363C248.376 571.217 244.263 551.203 238.355 544.51C236.692 542.63 235.032 542.003 233.953 541.817L239.543 536.217L234.021 530.697C235.052 530.563 236.845 530.017 238.652 527.963C244.555 521.283 248.665 501.297 234.985 444.23L244.373 434.843L234.821 425.297V270.097L244.373 260.55L234.7 250.87C242.448 187.683 238.585 170.763 235.711 166.27C235.809 166.19 235.901 166.123 236.003 166.03C238.292 164.07 241.147 160.497 243.084 155.363C244.539 151.563 245.456 146.937 245.513 141.857C245.887 141.71 246.284 141.523 246.72 141.297C248.989 140.083 251.912 137.43 254.077 133.283C256.237 129.15 257.561 123.59 257.081 117.417C256.576 111.19 254.169 104.923 250.932 99.0566C247.672 93.19 244.008 88.1766 240.937 83.6566C237.845 79.1366 235.311 75.0167 233.501 71.4167C232.459 69.3767 231.669 67.51 231.041 65.8833C232.7 66.9233 234.537 67.67 236.433 68.0833C241.284 69.07 246.284 68.1632 250.236 65.5099C254.181 62.8432 256.579 58.8567 257.667 54.95C258.764 51.0167 258.633 47.0433 257.599 43.59C256.56 40.1233 254.659 37.31 252.587 35.23C249.444 32.11 246.012 30.5233 243.176 29.8167C241.436 29.19 239.596 28.7765 237.685 28.6432C233.977 28.3899 230.259 29.2967 226.968 31.0834C228.62 27.8834 229.457 24.31 229.223 20.75C229.084 18.8433 228.665 17.0033 228.039 15.2566C227.343 12.4166 225.757 8.98993 222.627 5.84326C220.549 3.7766 217.743 1.86996 214.275 0.829956C210.82 -0.19671 206.851 -0.330028 202.912 0.763306C199.001 1.85664 195.021 4.25658 192.349 8.20325C189.699 12.1499 188.789 17.15 189.777 22.0033C190.193 23.8966 190.939 25.7367 191.984 27.39C190.347 26.7633 188.483 25.9766 186.444 24.9366C182.84 23.1233 178.728 20.5899 174.208 17.4966C169.684 14.4299 164.671 10.7632 158.807 7.49658C152.932 4.26992 146.671 1.85664 140.449 1.34998Z" fill="url(#paint0_linear_43_1018)"/>
<mask id="mask0_43_1018" style="mask-type:luminance" maskUnits="userSpaceOnUse" x="163" y="48" width="48" height="47">
<path d="M210.093 50.584L207.753 48.2506C207.753 48.2506 190.144 68.1973 163.931 59.144C163.931 59.144 170.325 72.504 183.353 68.864L181.053 69.704C168.972 73.0507 170.221 88.0373 170.221 88.0373C183.757 88.5707 187.792 81.2773 188.983 77.3707C187.468 88.7973 199.196 94.4106 199.196 94.4106C188.959 66.7573 210.093 50.584 210.093 50.584Z" fill="white"/>
</mask>
<g mask="url(#mask0_43_1018)">
<path d="M210.093 50.584L207.753 48.2506C207.753 48.2506 190.144 68.1973 163.931 59.144C163.931 59.144 170.325 72.504 183.353 68.864L181.053 69.704C168.972 73.0507 170.221 88.0373 170.221 88.0373C183.757 88.5707 187.792 81.2773 188.983 77.3707C187.468 88.7973 199.196 94.4106 199.196 94.4106C188.959 66.7573 210.093 50.584 210.093 50.584Z" fill="url(#paint1_linear_43_1018)"/>
</g>
<mask id="mask1_43_1018" style="mask-type:luminance" maskUnits="userSpaceOnUse" x="164" y="979" width="47" height="48">
<path d="M189.973 999.39L189.129 997.097C185.789 985.017 170.805 986.27 170.805 986.27C170.273 999.803 177.561 1003.83 181.467 1005.03C170.043 1003.51 164.429 1015.24 164.429 1015.24C192.077 1005 208.251 1026.14 208.251 1026.14L210.591 1023.8C210.591 1023.8 190.642 1006.19 199.693 979.977C199.693 979.977 186.335 986.363 189.973 999.39Z" fill="white"/>
</mask>
<g mask="url(#mask1_43_1018)">
<path d="M189.973 999.39L189.129 997.097C185.789 985.017 170.805 986.27 170.805 986.27C170.273 999.803 177.561 1003.83 181.467 1005.03C170.043 1003.51 164.429 1015.24 164.429 1015.24C192.077 1005 208.251 1026.14 208.251 1026.14L210.591 1023.8C210.591 1023.8 190.642 1006.19 199.693 979.977C199.693 979.977 186.335 986.363 189.973 999.39Z" fill="url(#paint2_linear_43_1018)"/>
</g>
<mask id="mask2_43_1018" style="mask-type:luminance" maskUnits="userSpaceOnUse" x="228" y="474" width="11" height="44">
<path d="M233.428 517.65C233.428 517.65 244.694 518.93 233.85 474.143C233.85 474.143 222.582 514.797 233.428 517.65Z" fill="white"/>
</mask>
<g mask="url(#mask2_43_1018)">
<path d="M233.428 517.65C233.428 517.65 244.694 518.93 233.85 474.143C233.85 474.143 222.582 514.797 233.428 517.65Z" fill="url(#paint3_linear_43_1018)"/>
</g>
<mask id="mask3_43_1018" style="mask-type:luminance" maskUnits="userSpaceOnUse" x="228" y="554" width="11" height="45">
<path d="M233.553 598.291C244.398 553.504 233.13 554.784 233.13 554.784C222.285 557.637 233.553 598.291 233.553 598.291Z" fill="white"/>
</mask>
<g mask="url(#mask3_43_1018)">
<path d="M233.553 598.291C244.398 553.504 233.13 554.784 233.13 554.784C222.285 557.637 233.553 598.291 233.553 598.291Z" fill="url(#paint4_linear_43_1018)"/>
</g>
<defs>
<linearGradient id="paint0_linear_43_1018" x1="0.00133333" y1="537.203" x2="258.933" y2="537.203" gradientUnits="userSpaceOnUse">
<stop stop-color="#D6B055"/>
<stop offset="0.0306801" stop-color="#D6B055"/>
<stop offset="0.221275" stop-color="#CBA848"/>
<stop offset="0.230935" stop-color="#CBA848"/>
<stop offset="0.34777" stop-color="#FBEC9E"/>
<stop offset="0.360079" stop-color="#FBEC9E"/>
<stop offset="0.763117" stop-color="#DBB24F"/>
<stop offset="0.763573" stop-color="#DBB24F"/>
<stop offset="0.917057" stop-color="#FCEBA8"/>
<stop offset="0.917064" stop-color="#FCEBA8"/>
<stop offset="1" stop-color="#DAB14E"/>
</linearGradient>
<linearGradient id="paint1_linear_43_1018" x1="163.931" y1="71.3306" x2="210.094" y2="71.3306" gradientUnits="userSpaceOnUse">
<stop stop-color="#D6B055"/>
<stop offset="0.0306801" stop-color="#D6B055"/>
<stop offset="0.221275" stop-color="#CBA848"/>
<stop offset="0.230935" stop-color="#CBA848"/>
<stop offset="0.34777" stop-color="#FBEC9E"/>
<stop offset="0.360079" stop-color="#FBEC9E"/>
<stop offset="0.763117" stop-color="#DBB24F"/>
<stop offset="0.763573" stop-color="#DBB24F"/>
<stop offset="0.917057" stop-color="#FCEBA8"/>
<stop offset="0.917064" stop-color="#FCEBA8"/>
<stop offset="1" stop-color="#DAB14E"/>
</linearGradient>
<linearGradient id="paint2_linear_43_1018" x1="164.429" y1="1003.06" x2="210.591" y2="1003.06" gradientUnits="userSpaceOnUse">
<stop stop-color="#D6B055"/>
<stop offset="0.0306801" stop-color="#D6B055"/>
<stop offset="0.221275" stop-color="#CBA848"/>
<stop offset="0.230935" stop-color="#CBA848"/>
<stop offset="0.34777" stop-color="#FBEC9E"/>
<stop offset="0.360079" stop-color="#FBEC9E"/>
<stop offset="0.763117" stop-color="#DBB24F"/>
<stop offset="0.763573" stop-color="#DBB24F"/>
<stop offset="0.917057" stop-color="#FCEBA8"/>
<stop offset="0.917064" stop-color="#FCEBA8"/>
<stop offset="1" stop-color="#DAB14E"/>
</linearGradient>
<linearGradient id="paint3_linear_43_1018" x1="228.714" y1="495.903" x2="238.563" y2="495.903" gradientUnits="userSpaceOnUse">
<stop stop-color="#D6B055"/>
<stop offset="0.0306801" stop-color="#D6B055"/>
<stop offset="0.221275" stop-color="#CBA848"/>
<stop offset="0.230935" stop-color="#CBA848"/>
<stop offset="0.34777" stop-color="#FBEC9E"/>
<stop offset="0.360079" stop-color="#FBEC9E"/>
<stop offset="0.763117" stop-color="#DBB24F"/>
<stop offset="0.763573" stop-color="#DBB24F"/>
<stop offset="0.917057" stop-color="#FCEBA8"/>
<stop offset="0.917064" stop-color="#FCEBA8"/>
<stop offset="1" stop-color="#DAB14E"/>
</linearGradient>
<linearGradient id="paint4_linear_43_1018" x1="228.417" y1="576.531" x2="238.265" y2="576.531" gradientUnits="userSpaceOnUse">
<stop stop-color="#D6B055"/>
<stop offset="0.0306801" stop-color="#D6B055"/>
<stop offset="0.221275" stop-color="#CBA848"/>
<stop offset="0.230935" stop-color="#CBA848"/>
<stop offset="0.34777" stop-color="#FBEC9E"/>
<stop offset="0.360079" stop-color="#FBEC9E"/>
<stop offset="0.763117" stop-color="#DBB24F"/>
<stop offset="0.763573" stop-color="#DBB24F"/>
<stop offset="0.917057" stop-color="#FCEBA8"/>
<stop offset="0.917064" stop-color="#FCEBA8"/>
<stop offset="1" stop-color="#DAB14E"/>
</linearGradient>
</defs>
</svg>
