<svg width="229" height="60" viewBox="0 0 229 60" fill="none" xmlns="http://www.w3.org/2000/svg">
<mask id="mask0_40_169" style="mask-type:luminance" maskUnits="userSpaceOnUse" x="8" y="0" width="213" height="60">
<path d="M26.0049 24.8836C25.568 23.8604 24.6904 23.0426 23.5626 22.9044C23.5514 22.9044 23.5402 22.9044 23.5289 22.9044C23.5364 22.8633 23.5439 22.8185 23.5402 22.77C23.402 18.9085 24.7763 15.0434 27.3941 12.2127C28.8617 10.6293 30.6468 9.34464 31.8307 7.51103C32.1668 6.98821 32.4393 6.42056 32.626 5.83425H196.374C196.561 6.42056 196.833 6.98821 197.17 7.51103C198.353 9.34464 200.138 10.6293 201.606 12.2127C204.224 15.0434 205.598 18.9085 205.46 22.77C205.456 22.8185 205.464 22.8633 205.471 22.9044C205.46 22.9044 205.449 22.9044 205.438 22.9044C204.31 23.0426 203.432 23.8604 202.995 24.8836C202.263 26.594 202.678 28.7227 204.172 29.7721C204.033 29.8355 203.899 29.9065 203.768 29.9924C201.89 31.2173 201.531 33.9621 202.82 35.7248C203.313 36.4007 204.048 36.8638 204.866 36.9459C204.859 36.987 204.851 37.0319 204.851 37.0804C204.911 39.2576 204.504 41.4422 203.634 43.4514C202.715 45.5763 201.333 47.3314 199.657 48.9111C198.148 50.3339 196.542 51.7568 195.743 53.7211C195.653 53.9452 195.575 54.1767 195.511 54.4082H33.4888C33.4253 54.1767 33.3505 53.9452 33.2572 53.7211C32.4617 51.7568 30.8522 50.3339 29.3435 48.9111C27.6668 47.3314 26.285 45.5763 25.3663 43.4514C24.4962 41.4422 24.0891 39.2576 24.1489 37.0804C24.1489 37.0319 24.1414 36.987 24.134 36.9459C24.9518 36.8638 25.6875 36.4007 26.1804 35.7248C27.4688 33.9621 27.1103 31.2173 25.2318 29.9924C25.1011 29.9065 24.9667 29.8355 24.8286 29.7721C26.3223 28.7227 26.7369 26.594 26.0049 24.8836ZM196.292 5.55417H32.7082C32.8053 5.19939 32.8688 4.83343 32.8913 4.46746H196.109C196.131 4.83343 196.195 5.19939 196.292 5.55417ZM195.444 54.6883C195.366 55.0468 195.325 55.4091 195.321 55.775H33.6792C33.6755 55.4091 33.6344 55.0468 33.5559 54.6883H195.444ZM18.8535 32.2443C18.7825 32.3227 18.7451 32.4049 18.7302 32.487C18.3007 31.9642 17.7742 31.5086 17.143 31.165C15.7016 30.3771 13.9875 30.2239 12.4675 30.8364C10.9252 31.46 9.68164 32.7783 9.20363 34.3767C8.74429 35.9227 9.06169 37.7675 10.2007 38.9663C11.2762 40.1016 13.0314 40.3928 14.4206 39.7169C15.8024 39.041 16.5792 37.114 15.5335 35.8032C14.5738 34.6044 12.531 34.7986 12.2285 36.4306C12.0754 37.2484 12.6319 38.1484 13.5095 38.2082C14.2825 38.2642 14.992 37.5173 14.738 36.7368C14.5961 36.2887 14.1406 36.0347 13.7036 36.0385C14.036 35.9302 14.4206 36.087 14.6634 36.326C15.0331 36.6882 15.0779 37.2522 14.9248 37.7227C14.6223 38.675 13.614 39.1156 12.6692 39.0708C11.6833 39.0223 10.8804 38.4323 10.4248 37.5696C9.40526 35.6389 10.3389 33.2712 12.0866 32.1621C13.8418 31.0455 16.1422 31.3218 17.6584 32.7633C19.3315 34.3654 19.4286 37.0019 18.0879 38.8131C18.0804 38.8206 18.0804 38.8281 18.0729 38.8356C18.0692 38.8393 18.0654 38.843 18.0617 38.8468C17.158 39.5675 16.7958 40.7962 16.9265 41.924C17.2626 44.848 20.153 46.831 22.1808 48.631C24.3431 50.5468 26.5389 53.2505 25.3738 56.2866C25.1422 56.8879 26.1169 57.1455 26.3447 56.548C27.6107 53.258 25.3887 50.1622 23.0285 48.0447C21.5497 46.7227 19.8804 45.5165 18.7638 43.8546C17.9236 42.6073 17.3073 40.4414 18.902 39.4853C19.563 39.0857 20.5601 39.1343 20.7841 40.0157C20.7916 40.053 20.7991 40.0903 20.8065 40.1314C20.1941 39.336 18.7451 40.0605 18.9692 41.0949C19.2456 42.3572 20.7916 42.2526 21.4452 41.4049C22.0912 40.5683 21.8597 39.3061 21.0418 38.6563C20.6124 38.3202 20.0933 38.2007 19.5779 38.2418C20.2912 36.5688 20.1082 34.6343 19.1746 33.1107C19.3053 33.1293 19.4472 33.092 19.5667 32.9576C20.4107 32.0277 21.3182 30.9932 22.5655 30.616C23.6672 30.2837 24.8323 30.6049 25.4746 31.6132C26.102 32.5879 26.0833 33.9061 25.5194 34.8958C25.2282 35.4074 24.7725 35.8181 24.1788 35.9339C23.712 36.0235 23.2041 35.9003 22.9053 35.5044C22.8717 35.4634 22.8418 35.4148 22.8157 35.3626C22.9987 35.4858 23.219 35.5568 23.4431 35.5493C23.9435 35.5306 24.3393 35.1161 24.4289 34.6418C24.5223 34.1302 24.2609 33.6185 23.7941 33.3758C22.7298 32.8268 21.6356 33.8239 21.6692 34.9069C21.6954 35.8069 22.3488 36.5949 23.1966 36.8601C23.163 36.9198 23.1443 36.9945 23.1406 37.0766C23.0771 39.4891 23.5737 41.8829 24.5596 44.0937C25.6352 46.5024 27.297 48.3659 29.2053 50.151C30.4414 51.3087 31.9016 52.7427 32.4618 54.4082H32.3124V54.6883H32.5439C32.7157 55.3157 32.753 55.9767 32.5999 56.6676C32.3684 57.7058 31.6738 58.6879 30.5684 58.8746C29.6609 59.0315 28.5406 58.6431 28.2419 57.7057C28.8244 58.4451 30.2286 58.5871 30.7701 57.5713C31.1435 56.8767 30.9157 55.9468 30.3145 55.4539C29.7095 54.9609 28.8244 54.9684 28.1746 55.3456C26.6398 56.2418 26.9982 58.4675 28.3314 59.3713C29.7094 60.3123 31.6551 59.9837 32.6933 58.7327C33.246 58.0717 33.5485 57.2838 33.6456 56.4622H195.355C195.452 57.2838 195.754 58.0717 196.307 58.7327C197.345 59.9837 199.291 60.3123 200.669 59.3713C202.002 58.4675 202.36 56.2418 200.826 55.3456C200.176 54.9684 199.291 54.9609 198.689 55.4539C198.084 55.9468 197.857 56.8767 198.23 57.5713C198.772 58.5871 200.176 58.4451 200.758 57.7057C200.46 58.6431 199.339 59.0315 198.432 58.8746C197.326 58.6879 196.632 57.7058 196.4 56.6676C195.806 54.0124 198.032 51.8016 199.795 50.151C201.703 48.3659 203.365 46.5024 204.44 44.0937C205.426 41.8829 205.923 39.4891 205.86 37.0766C205.856 36.9945 205.837 36.9198 205.804 36.8601C206.651 36.5949 207.305 35.8069 207.331 34.9069C207.365 33.8239 206.27 32.8268 205.206 33.3758C204.739 33.6185 204.478 34.1302 204.571 34.6418C204.661 35.1161 205.057 35.5306 205.557 35.5493C205.781 35.5568 206.001 35.4858 206.184 35.3626C206.158 35.4148 206.128 35.4634 206.095 35.5044C205.796 35.9003 205.288 36.0235 204.821 35.9339C204.231 35.8181 203.776 35.4074 203.481 34.8958C202.917 33.9061 202.898 32.5879 203.526 31.6132C204.168 30.6049 205.333 30.2837 206.435 30.616C207.682 30.9932 208.589 32.0277 209.433 32.9576C209.553 33.092 209.695 33.1293 209.826 33.1107C208.896 34.6343 208.709 36.5688 209.422 38.2418C208.907 38.2007 208.388 38.3202 207.962 38.6563C207.141 39.3061 206.909 40.5683 207.555 41.4049C208.209 42.2526 209.755 42.3572 210.031 41.0949C210.255 40.0605 208.806 39.336 208.197 40.1314C208.201 40.0903 208.209 40.053 208.216 40.0157C208.44 39.1343 209.437 39.0857 210.098 39.4853C211.693 40.4414 211.077 42.6073 210.24 43.8546C209.12 45.5165 207.45 46.7227 205.972 48.0447C203.611 50.1622 201.389 53.258 202.655 56.548C202.883 57.1455 203.858 56.8879 203.626 56.2866C202.461 53.2505 204.657 50.5468 206.819 48.631C208.847 46.831 211.738 44.848 212.074 41.924C212.204 40.7962 211.842 39.5675 210.938 38.8468C210.935 38.843 210.931 38.8393 210.927 38.8356C210.923 38.8281 210.92 38.8206 210.912 38.8131C209.572 37.0019 209.669 34.3654 211.342 32.7633C212.858 31.3218 215.158 31.0455 216.914 32.1621C218.661 33.2712 219.595 35.6389 218.575 37.5696C218.12 38.4323 217.317 39.0223 216.331 39.0708C215.386 39.1156 214.378 38.675 214.075 37.7227C213.922 37.2522 213.967 36.6882 214.337 36.326C214.58 36.087 214.964 35.9302 215.296 36.0385C214.86 36.0347 214.408 36.2887 214.262 36.7368C214.008 37.5173 214.718 38.2642 215.491 38.2082C216.368 38.1484 216.925 37.2484 216.775 36.4306C216.469 34.7986 214.426 34.6044 213.467 35.8032C212.421 37.114 213.201 39.041 214.58 39.7169C215.969 40.3928 217.724 40.1016 218.799 38.9663C219.938 37.7675 220.26 35.9227 219.796 34.3767C219.318 32.7783 218.075 31.46 216.533 30.8364C215.013 30.2239 213.299 30.3771 211.857 31.165C211.23 31.5086 210.699 31.9642 210.27 32.487C210.255 32.4049 210.218 32.3227 210.147 32.2443C209.4 31.419 208.612 30.5862 207.633 30.0484C208.825 29.5181 209.87 28.48 210.711 27.5576C210.774 27.4904 210.811 27.4119 210.83 27.3372C211.532 28.1625 212.477 28.775 213.541 29.0887C216.82 30.0596 220.424 27.5389 220.588 24.0883C220.663 22.5048 219.935 20.7571 218.46 20.0401C217.134 19.3903 215.315 19.5808 214.303 20.7422C213.261 21.9335 213.347 24.0023 214.957 24.6222C215.614 24.8762 216.368 24.7605 216.876 24.2526C217.377 23.7447 217.578 22.9156 217.227 22.277C216.884 21.6571 216.055 21.321 215.409 21.7056C214.766 22.0866 214.583 23.0538 215.226 23.5169C215.416 23.655 215.651 23.7148 215.883 23.7111C215.816 23.7335 215.748 23.7521 215.677 23.7559C214.37 23.7895 214.434 22.0529 215.099 21.3546C215.726 20.6899 216.753 20.5405 217.597 20.7795C218.598 21.0634 219.244 21.9745 219.479 22.953C219.987 25.048 218.65 27.1953 216.697 27.9908C214.811 28.7563 212.533 28.0467 211.368 26.4111C210.221 24.7978 210.363 22.5609 211.536 20.9849C211.543 20.97 211.551 20.955 211.558 20.9401C211.745 20.7907 211.913 20.6227 212.055 20.4359C212.813 19.4314 212.914 18.0721 212.518 16.9144C211.555 14.0912 208.754 12.4255 206.715 10.45C204.881 8.67242 203.387 6.18902 204.414 3.57491C204.65 2.97366 203.675 2.72722 203.44 3.32473C202.812 4.93054 203.036 6.71933 203.765 8.23925C205.43 11.7123 209.463 13.1762 211.252 16.5223C211.652 17.2654 211.872 18.1206 211.667 18.9571C211.48 19.7189 210.938 20.3949 210.139 20.548C209.512 20.6712 208.899 20.3277 208.832 19.6779C208.862 19.7152 208.892 19.7525 208.933 19.7861C209.392 20.1782 210.158 20.0364 210.502 19.5472C210.826 19.0841 210.711 18.4492 210.315 18.0683C209.433 17.2243 208.1 18.1206 207.865 19.1214C207.622 20.1484 208.261 21.2426 209.273 21.5115C209.527 21.5824 209.784 21.6011 210.042 21.5787C209.497 22.8372 209.411 24.2973 209.84 25.5932C209.971 25.9816 210.15 26.3513 210.363 26.6911C210.24 26.6837 210.113 26.7285 210.001 26.8517C209.049 27.8974 208.007 29.0626 206.55 29.3314C205.382 29.5406 204.269 28.8833 203.836 27.7928C203.425 26.7546 203.615 25.3729 204.381 24.5289C204.989 23.8604 206.289 23.5617 206.775 24.4691C206.382 24.204 205.826 24.2563 205.479 24.5998C205.131 24.9434 205.031 25.5073 205.247 25.9405C205.482 26.4148 206.02 26.665 206.543 26.6127C207.678 26.4932 208.153 25.1787 207.768 24.2227C207.518 23.6028 207.01 23.177 206.405 22.994C206.438 22.9305 206.461 22.8559 206.465 22.7662C206.562 20.0364 205.945 17.3102 204.698 14.8903C204.16 13.8521 203.499 12.8737 202.745 11.9811C201.856 10.928 200.803 10.043 199.821 9.08322C198.148 7.455 196.277 5.00897 197.431 2.5405C197.901 1.5322 198.865 0.871156 199.996 1.02053C200.68 1.11016 201.352 1.5695 201.569 2.19688C201.188 1.66286 200.433 1.45004 199.813 1.6629C199.07 1.91311 198.723 2.73844 198.876 3.47039C199.257 5.25919 201.684 5.17328 202.405 3.66083C203.163 2.07369 201.983 0.389412 200.392 0.06825C198.671 -0.275319 197.102 0.706855 196.449 2.3052C196.247 2.78694 196.143 3.28362 196.109 3.7803H32.8913C32.8576 3.28362 32.753 2.78694 32.5514 2.3052C31.8978 0.706855 30.3294 -0.275319 28.6078 0.06825C27.0169 0.389412 25.8368 2.07369 26.5949 3.66083C27.3157 5.17328 29.7431 5.25919 30.124 3.47039C30.2771 2.73844 29.9298 1.91311 29.1866 1.6629C28.5667 1.45004 27.8161 1.66286 27.4314 2.19688C27.648 1.5695 28.3202 1.11016 29.0036 1.02053C30.1352 0.871156 31.0987 1.5322 31.5692 2.5405C32.7232 5.00897 30.8522 7.455 29.1792 9.08322C28.197 10.043 27.1439 10.928 26.2551 11.9811C25.5007 12.8737 24.8398 13.8521 24.3057 14.8903C23.0547 17.3102 22.4385 20.0364 22.5356 22.7662C22.5393 22.8559 22.5617 22.9305 22.5953 22.994C21.9941 23.177 21.4825 23.6028 21.2323 24.2227C20.8476 25.1787 21.3219 26.4932 22.4572 26.6127C22.98 26.665 23.5177 26.4148 23.753 25.9405C23.9696 25.5073 23.8688 24.9434 23.5215 24.5998C23.1742 24.2563 22.6177 24.204 22.2256 24.4691C22.7111 23.5617 24.0107 23.8604 24.6195 24.5289C25.385 25.3729 25.5755 26.7546 25.1647 27.7928C24.7315 28.8833 23.6186 29.5406 22.4497 29.3314C20.9932 29.0626 19.9514 27.8974 18.9991 26.8517C18.8871 26.7285 18.7601 26.6837 18.6368 26.6911C18.8497 26.3513 19.0289 25.9816 19.1596 25.5932C19.5891 24.2973 19.5032 22.8372 18.958 21.5787C19.2156 21.6011 19.4734 21.5824 19.7273 21.5115C20.7431 21.2426 21.3779 20.1484 21.1352 19.1214C20.8999 18.1206 19.5667 17.2243 18.6854 18.0683C18.2896 18.4492 18.1738 19.0841 18.4987 19.5472C18.8422 20.0364 19.6078 20.1782 20.0671 19.7861C20.1082 19.7525 20.1381 19.7152 20.1679 19.6779C20.1045 20.3277 19.4883 20.6712 18.8609 20.548C18.0617 20.3949 17.5202 19.7189 17.3335 18.9571C17.1281 18.1206 17.3485 17.2654 17.7481 16.5223C19.5369 13.1762 23.5701 11.7123 25.2356 8.23925C25.9676 6.71933 26.1916 4.93054 25.5605 3.32473C25.3252 2.72722 24.3506 2.97366 24.5858 3.57491C25.6128 6.18902 24.119 8.67242 22.2854 10.45C20.2501 12.4255 17.4456 14.0912 16.4821 16.9144C16.0862 18.0721 16.1871 19.4314 16.9452 20.4359C17.0871 20.6227 17.2551 20.7907 17.4418 20.9401C17.4493 20.955 17.4568 20.97 17.468 20.9849C18.6406 22.5609 18.7825 24.7978 17.6322 26.4111C16.4671 28.0467 14.1891 28.7563 12.3032 27.9908C10.3501 27.1953 9.01317 25.048 9.52106 22.953C9.75633 21.9745 10.4024 21.0634 11.4032 20.7795C12.2472 20.5405 13.2742 20.6899 13.9053 21.3546C14.5663 22.0529 14.6298 23.7895 13.3228 23.7559C13.2518 23.7521 13.1846 23.7335 13.1174 23.7111C13.3489 23.7148 13.5841 23.655 13.7746 23.5169C14.4169 23.0538 14.2339 22.0866 13.5916 21.7056C12.9455 21.321 12.1165 21.6571 11.773 22.277C11.4219 22.9156 11.6235 23.7447 12.1239 24.2526C12.6318 24.7605 13.3862 24.8762 14.0435 24.6222C15.653 24.0023 15.7389 21.9335 14.697 20.7422C13.6849 19.5808 11.8663 19.3903 10.5406 20.0401C9.06548 20.7571 8.33727 22.5048 8.41195 24.0883C8.57627 27.5389 12.18 30.0596 15.4625 29.0887C16.5231 28.775 17.4679 28.1625 18.17 27.3372C18.1887 27.4119 18.2261 27.4904 18.2896 27.5576C19.1298 28.48 20.1754 29.5181 21.3667 30.0484C20.3883 30.5862 19.6041 31.419 18.8535 32.2443Z" fill="white"/>
</mask>
<g mask="url(#mask0_40_169)">
<path d="M26.0056 24.8831C25.5678 23.8572 24.6921 23.0403 23.5616 22.903C23.5551 22.903 23.542 22.903 23.5289 22.903C23.5355 22.8638 23.5485 22.8181 23.542 22.7658C23.4048 18.9039 24.7771 15.0419 27.3974 12.2125C28.8612 10.6245 30.6516 9.34376 31.8344 7.50754C32.1677 6.98477 32.4421 6.41628 32.6251 5.8347H196.376C196.565 6.41628 196.833 6.98477 197.173 7.50754C198.356 9.34376 200.14 10.6245 201.61 12.2125C204.224 15.0419 205.603 18.9039 205.459 22.7658C205.459 22.8181 205.466 22.8638 205.472 22.903C205.459 22.903 205.452 22.903 205.439 22.903C204.309 23.0403 203.433 23.8572 202.995 24.8831C202.264 26.5952 202.682 28.7189 204.172 29.771C204.034 29.8363 203.904 29.9082 203.773 29.9931C201.891 31.2151 201.532 33.9596 202.819 35.724C203.316 36.397 204.047 36.861 204.871 36.9459C204.858 36.9852 204.851 37.0309 204.851 37.0766C204.91 39.2592 204.505 41.4418 203.636 43.4479C202.714 45.5716 201.336 47.3294 199.656 48.9108C198.147 50.3353 196.546 51.7534 195.742 53.7203C195.657 53.9425 195.579 54.1777 195.513 54.4064H33.4877C33.4289 54.1777 33.3505 53.9425 33.259 53.7203C32.4618 51.7534 30.8542 50.3353 29.3447 48.9108C27.6653 47.3294 26.2865 45.5716 25.3651 43.4479C24.496 41.4418 24.0909 39.2592 24.1497 37.0766C24.1497 37.0309 24.1432 36.9852 24.1366 36.9459C24.9535 36.861 25.6919 36.397 26.182 35.724C27.4693 33.9596 27.1099 31.2151 25.2344 29.9931C25.1037 29.9082 24.9666 29.8363 24.8293 29.771C26.3258 28.7189 26.7374 26.5952 26.0056 24.8831ZM196.291 5.55366H32.7101C32.8081 5.2008 32.8734 4.83488 32.893 4.46895H196.108C196.134 4.83488 196.199 5.2008 196.291 5.55366ZM195.448 54.6874C195.37 55.0468 195.324 55.4062 195.324 55.7721H33.6837C33.6772 55.4062 33.638 55.0468 33.5596 54.6874H195.448ZM18.8567 32.241C18.7848 32.3194 18.7456 32.4044 18.7325 32.4828C18.3012 31.9601 17.7785 31.5092 17.1446 31.1628C15.7005 30.3787 13.9884 30.2218 12.4724 30.8361C10.9237 31.4569 9.68208 32.7769 9.20505 34.3779C8.74763 35.92 9.06128 37.7628 10.2048 38.9652C11.2765 40.1022 13.0343 40.3897 14.4197 39.7166C15.805 39.037 16.5827 37.1093 15.5371 35.8024C14.5765 34.6 12.5312 34.796 12.2306 36.4297C12.0803 37.2465 12.6357 38.1483 13.5114 38.2071C14.2825 38.2659 14.9947 37.5144 14.7399 36.7368C14.5961 36.2859 14.1452 36.0311 13.7074 36.0376C14.0407 35.9265 14.4197 36.0834 14.668 36.3252C15.034 36.6846 15.0797 37.2531 14.9294 37.7236C14.6223 38.6711 13.6159 39.1154 12.6684 39.0697C11.6882 39.024 10.8845 38.4293 10.427 37.5667C9.40764 35.639 10.3421 33.267 12.0869 32.1626C13.8447 31.0452 16.1448 31.3197 17.6609 32.7638C19.3337 34.3648 19.4317 36.9982 18.0921 38.8148C18.0791 38.8214 18.0791 38.8279 18.0725 38.8345C18.0725 38.841 18.066 38.841 18.066 38.8475C17.1577 39.5663 16.7983 40.7948 16.929 41.9253C17.2622 44.8463 20.1571 46.8263 22.1828 48.6298C24.3458 50.5445 26.5414 53.2498 25.3782 56.2884C25.143 56.8896 26.1166 57.1444 26.3453 56.5498C27.613 53.2563 25.3913 50.1589 23.0323 48.0417C21.549 46.7217 19.8826 45.5128 18.7652 43.853C17.9222 42.6049 17.308 40.442 18.9024 39.4814C19.5624 39.0828 20.5622 39.135 20.7844 40.0172C20.7909 40.0499 20.7975 40.0891 20.8106 40.1283C20.1963 39.3376 18.7456 40.0564 18.9678 41.0954C19.2488 42.3566 20.7909 42.2521 21.4444 41.4026C22.0913 40.5661 21.8626 39.305 21.0458 38.658C20.6145 38.3182 20.0917 38.2006 19.582 38.2398C20.2943 36.5669 20.1114 34.6327 19.1769 33.1101C19.3076 33.1297 19.4514 33.0906 19.569 32.9533C20.4119 32.0254 21.3202 30.9929 22.5683 30.6139C23.6661 30.2806 24.8358 30.6009 25.4762 31.6137C26.1036 32.5874 26.084 33.9073 25.522 34.8941C25.2279 35.4038 24.777 35.8155 24.1824 35.9331C23.7119 36.0246 23.2087 35.9004 22.9081 35.5018C22.8755 35.4626 22.8428 35.4103 22.8166 35.3581C22.9996 35.4822 23.2218 35.5541 23.444 35.5475C23.9472 35.5279 24.3392 35.1163 24.4307 34.6392C24.5222 34.1295 24.2608 33.6198 23.7968 33.3715C22.7317 32.8226 21.6404 33.8224 21.6731 34.9071C21.6992 35.8024 22.3527 36.5931 23.1957 36.861C23.163 36.9198 23.1434 36.9917 23.1434 37.0766C23.078 39.4879 23.5747 41.8796 24.5614 44.0948C25.6396 46.4996 27.2994 48.3619 29.2075 50.1524C30.4426 51.309 31.9063 52.7401 32.4618 54.4064H32.3115V54.6874H32.5467C32.7166 55.3147 32.7558 55.9747 32.599 56.6674C32.3702 57.7064 31.6776 58.6866 30.5732 58.8761C29.6649 59.0329 28.5409 58.6409 28.2404 57.7064C28.8285 58.4448 30.2334 58.5885 30.7693 57.5691C31.1483 56.8765 30.9196 55.9486 30.3184 55.452C29.7107 54.9619 28.8285 54.9684 28.175 55.3409C26.6394 56.2426 26.9988 58.4644 28.3319 59.3727C29.7107 60.3137 31.658 59.9805 32.697 58.7324C33.2459 58.0724 33.553 57.2816 33.6445 56.4583H195.356C195.454 57.2816 195.755 58.0724 196.311 58.7324C197.35 59.9805 199.29 60.3137 200.669 59.3727C202.002 58.4644 202.362 56.2426 200.826 55.3409C200.179 54.9684 199.29 54.9619 198.689 55.452C198.088 55.9486 197.859 56.8765 198.232 57.5691C198.774 58.5885 200.179 58.4448 200.761 57.7064C200.46 58.6409 199.343 59.0329 198.434 58.8761C197.33 58.6866 196.631 57.7064 196.402 56.6674C195.807 54.0078 198.036 51.7991 199.8 50.1524C201.708 48.3619 203.368 46.4996 204.44 44.0948C205.426 41.8796 205.923 39.4879 205.864 37.0766C205.858 36.9917 205.838 36.9198 205.805 36.861C206.655 36.5931 207.308 35.8024 207.334 34.9071C207.367 33.8224 206.269 32.8226 205.211 33.3715C204.74 33.6198 204.479 34.1295 204.57 34.6392C204.662 35.1163 205.06 35.5279 205.557 35.5475C205.786 35.5541 206.001 35.4822 206.184 35.3581C206.158 35.4103 206.132 35.4626 206.099 35.5018C205.799 35.9004 205.289 36.0246 204.825 35.9331C204.23 35.8155 203.78 35.4038 203.486 34.8941C202.917 33.9073 202.897 32.5874 203.525 31.6137C204.172 30.6009 205.335 30.2806 206.439 30.6139C207.687 30.9929 208.589 32.0254 209.439 32.9533C209.556 33.0906 209.7 33.1297 209.831 33.1101C208.896 34.6327 208.713 36.5669 209.425 38.2398C208.909 38.2006 208.393 38.3182 207.962 38.658C207.145 39.305 206.91 40.5661 207.557 41.4026C208.21 42.2521 209.759 42.3566 210.033 41.0954C210.255 40.0564 208.811 39.3376 208.197 40.1283C208.204 40.0891 208.21 40.0499 208.217 40.0172C208.445 39.135 209.439 39.0828 210.099 39.4814C211.693 40.442 211.079 42.6049 210.242 43.853C209.125 45.5128 207.452 46.7217 205.975 48.0417C203.616 50.1589 201.394 53.2563 202.656 56.5498C202.884 57.1444 203.858 56.8896 203.629 56.2884C202.466 53.2498 204.662 50.5445 206.818 48.6298C208.85 46.8263 211.739 44.8463 212.079 41.9253C212.209 40.7948 211.843 39.5663 210.942 38.8475C210.935 38.841 210.935 38.841 210.928 38.8345C210.928 38.8279 210.922 38.8214 210.915 38.8148C209.576 36.9982 209.674 34.3648 211.347 32.7638C212.863 31.3197 215.163 31.0452 216.914 32.1626C218.665 33.267 219.6 35.639 218.581 37.5667C218.123 38.4293 217.319 39.024 216.333 39.0697C215.385 39.1154 214.379 38.6711 214.078 37.7236C213.921 37.2531 213.967 36.6846 214.34 36.3252C214.581 36.0834 214.967 35.9265 215.3 36.0376C214.862 36.0311 214.411 36.2859 214.261 36.7368C214.013 37.5144 214.719 38.2659 215.496 38.2071C216.372 38.1483 216.927 37.2465 216.777 36.4297C216.47 34.796 214.431 34.6 213.47 35.8024C212.425 37.1093 213.203 39.037 214.581 39.7166C215.973 40.3897 217.724 40.1022 218.803 38.9652C219.94 37.7628 220.26 35.92 219.796 34.3779C219.319 32.7769 218.077 31.4569 216.535 30.8361C215.013 30.2218 213.301 30.3787 211.856 31.1628C211.229 31.5092 210.7 31.9601 210.275 32.4828C210.255 32.4044 210.223 32.3194 210.151 32.241C209.399 31.4177 208.615 30.5878 207.635 30.0454C208.824 29.5161 209.87 28.4771 210.713 27.5557C210.778 27.4904 210.811 27.412 210.83 27.3336C211.536 28.1635 212.477 28.7712 213.542 29.0848C216.823 30.0585 220.423 27.5361 220.593 24.0859C220.665 22.5045 219.94 20.7532 218.463 20.0409C217.136 19.3874 215.32 19.577 214.307 20.7401C213.261 21.9294 213.346 24.0009 214.96 24.6217C215.614 24.8766 216.372 24.7589 216.882 24.2492C217.378 23.7461 217.581 22.9161 217.228 22.2758C216.888 21.655 216.058 21.3217 215.411 21.7072C214.771 22.0862 214.588 23.0534 215.228 23.5173C215.418 23.6546 215.653 23.7134 215.888 23.7069C215.816 23.733 215.751 23.7525 215.679 23.7525C214.372 23.7852 214.438 22.0536 215.098 21.3544C215.731 20.6879 216.757 20.5375 217.6 20.7793C218.6 21.0603 219.247 21.9751 219.482 22.9488C219.992 25.0464 218.652 27.1963 216.698 27.987C214.81 28.7516 212.536 28.0458 211.373 26.4121C210.223 24.7981 210.366 22.5568 211.536 20.9819C211.543 20.9688 211.556 20.9558 211.562 20.9362C211.745 20.7859 211.915 20.6225 212.059 20.433C212.817 19.4267 212.915 18.0675 212.523 16.9109C211.556 14.0879 208.759 12.4216 206.72 10.4481C204.884 8.6707 203.387 6.18753 204.413 3.57369C204.649 2.97251 203.675 2.7242 203.44 3.32539C202.812 4.92637 203.041 6.71686 203.767 8.23943C205.433 11.7093 209.465 13.1731 211.255 16.5188C211.654 17.2637 211.876 18.1198 211.667 18.9562C211.484 19.7142 210.942 20.3938 210.144 20.5441C209.517 20.6682 208.903 20.3285 208.837 19.675C208.863 19.7142 208.896 19.7534 208.935 19.7861C209.393 20.1782 210.157 20.0344 210.504 19.5443C210.83 19.0803 210.713 18.4464 210.314 18.0674C209.439 17.2245 208.105 18.1198 207.87 19.1195C207.622 20.1455 208.262 21.2433 209.275 21.5112C209.53 21.5831 209.785 21.6027 210.046 21.5765C209.497 22.8377 209.412 24.295 209.844 25.5888C209.974 25.9809 210.151 26.3468 210.366 26.6866C210.242 26.6801 210.118 26.7258 210.001 26.85C209.053 27.8955 208.007 29.0587 206.55 29.3331C205.381 29.5422 204.27 28.8823 203.838 27.791C203.427 26.752 203.616 25.3732 204.381 24.5302C204.988 23.8571 206.289 23.5631 206.779 24.4648C206.387 24.2035 205.825 24.2557 205.479 24.5955C205.132 24.9419 205.034 25.5038 205.25 25.9416C205.485 26.4121 206.021 26.6605 206.544 26.6082C207.681 26.4906 208.158 25.1771 207.772 24.2231C207.517 23.6023 207.014 23.1775 206.406 22.9946C206.439 22.9292 206.465 22.8573 206.465 22.7658C206.563 20.0344 205.949 17.3095 204.701 14.8916C204.165 13.8526 203.499 12.8725 202.747 11.9772C201.858 10.9252 200.806 10.0429 199.826 9.08235C198.147 7.45524 196.278 5.00478 197.434 2.54124C197.905 1.52837 198.866 0.868389 199.996 1.01868C200.682 1.11017 201.355 1.56759 201.571 2.19491C201.192 1.65908 200.434 1.44996 199.813 1.65906C199.075 1.91391 198.728 2.73729 198.879 3.46916C199.258 5.25965 201.689 5.17466 202.407 3.65863C203.165 2.07072 201.983 0.384789 200.395 0.0645934C198.676 -0.275206 197.101 0.705036 196.448 2.30602C196.252 2.78304 196.147 3.27967 196.108 3.7763H32.893C32.8603 3.27967 32.7558 2.78304 32.5532 2.30602C31.8997 0.705036 30.3315 -0.275206 28.6063 0.0645934C27.0184 0.384789 25.8357 2.07072 26.5937 3.65863C27.319 5.17466 29.7433 5.25965 30.1289 3.46916C30.2792 2.73729 29.9328 1.91391 29.1879 1.65906C28.5671 1.44996 27.8156 1.65908 27.4301 2.19491C27.6523 1.56759 28.3188 1.11017 29.0049 1.01868C30.1354 0.868389 31.1025 1.52837 31.573 2.54124C32.7231 5.00478 30.8542 7.45524 29.1814 9.08235C28.2012 10.0429 27.1426 10.9252 26.2539 11.9772C25.5024 12.8725 24.8424 13.8526 24.3066 14.8916C23.0585 17.3095 22.4376 20.0344 22.5357 22.7658C22.5422 22.8573 22.5618 22.9292 22.5945 22.9946C21.9933 23.1775 21.4836 23.6023 21.2353 24.2231C20.8498 25.1771 21.3267 26.4906 22.4572 26.6082C22.98 26.6605 23.5224 26.4121 23.7576 25.9416C23.9733 25.5038 23.8688 24.9419 23.5224 24.5955C23.1761 24.2557 22.6206 24.2035 22.2285 24.4648C22.7121 23.5631 24.0125 23.8571 24.6202 24.5302C25.3848 25.3732 25.5742 26.752 25.1691 27.791C24.7313 28.8823 23.6204 29.5422 22.4507 29.3331C20.9935 29.0587 19.9545 27.8955 19.0005 26.85C18.8894 26.7258 18.7587 26.6801 18.6411 26.6866C18.8502 26.3468 19.0331 25.9809 19.1638 25.5888C19.5886 24.295 19.5036 22.8377 18.9612 21.5765C19.2161 21.6027 19.4775 21.5831 19.7258 21.5112C20.7452 21.2433 21.3791 20.1455 21.1373 19.1195C20.902 18.1198 19.569 17.2245 18.6868 18.0674C18.2882 18.4464 18.1771 19.0803 18.4973 19.5443C18.8436 20.0344 19.6082 20.1782 20.0656 19.7861C20.1113 19.7534 20.1374 19.7142 20.1701 19.675C20.1048 20.3285 19.4905 20.6682 18.8632 20.5441C18.066 20.3938 17.5236 19.7142 17.3341 18.9562C17.1316 18.1198 17.3472 17.2637 17.7523 16.5188C19.5363 13.1731 23.5746 11.7093 25.2344 8.23943C25.9663 6.71686 26.195 4.92637 25.5612 3.32539C25.3259 2.7242 24.3523 2.97251 24.5875 3.57369C25.6135 6.18753 24.1236 8.6707 22.2874 10.4481C20.2486 12.4216 17.4452 14.0879 16.4846 16.9109C16.086 18.0675 16.1906 19.4267 16.9486 20.433C17.0858 20.6225 17.2557 20.7859 17.4452 20.9362C17.4518 20.9558 17.4583 20.9688 17.4713 20.9819C18.641 22.5568 18.7848 24.7981 17.6347 26.4121C16.4715 28.0458 14.191 28.7516 12.3025 27.987C10.3486 27.1963 9.01557 25.0464 9.52527 22.9488C9.76052 21.9751 10.4009 21.0603 11.4072 20.7793C12.2502 20.5375 13.2761 20.6879 13.91 21.3544C14.57 22.0536 14.6288 23.7852 13.3219 23.7525C13.2565 23.7525 13.1847 23.733 13.1193 23.7069C13.348 23.7134 13.5832 23.6546 13.7793 23.5173C14.4197 23.0534 14.2367 22.0862 13.5963 21.7072C12.9494 21.3217 12.1195 21.655 11.7731 22.2758C11.4268 22.9161 11.6229 23.7461 12.126 24.2492C12.6357 24.7589 13.3872 24.8766 14.0472 24.6217C15.6548 24.0009 15.7397 21.9294 14.7007 20.7401C13.6878 19.577 11.8712 19.3874 10.5446 20.0409C9.06783 20.7532 8.33598 22.5045 8.41439 24.0859C8.57776 27.5361 12.1848 30.0585 15.4652 29.0848C16.5238 28.7712 17.4713 28.1635 18.1705 27.3336C18.1902 27.412 18.2293 27.4904 18.2882 27.5557C19.1311 28.4771 20.1767 29.5161 21.366 30.0454C20.3923 30.5878 19.6082 31.4177 18.8567 32.241Z" fill="url(#paint0_linear_40_169)"/>
</g>
<mask id="mask1_40_169" style="mask-type:luminance" maskUnits="userSpaceOnUse" x="0" y="25" width="13" height="11">
<path d="M2.24622 34.8661C1.86157 34.5188 1.30888 33.9101 1.23792 33.2155C1.15203 32.3976 1.77568 31.6171 3.0678 30.9001C3.21344 30.818 3.29935 30.6611 3.28815 30.4968C3.27321 30.3287 3.16863 30.1831 3.01178 30.1233C1.75701 29.6266 1.04377 29.0142 0.890661 28.3009C0.722611 27.5166 1.2529 26.7287 1.61888 26.2955C2.40685 27.2217 4.68484 29.3354 9.61431 30.1532C6.41389 31.0084 4.47201 32.3827 3.35168 33.503C2.81018 34.0482 2.45909 34.53 2.24622 34.8661ZM12.5795 30.452C12.6728 30.4408 12.7587 30.3959 12.8222 30.3324C12.8222 30.3287 12.8259 30.3287 12.8297 30.325C12.994 30.1569 12.994 29.888 12.8259 29.7162C12.7288 29.6192 12.5944 29.5781 12.4674 29.5931C4.48693 29.1935 2.04456 25.4478 2.02216 25.4105C1.95494 25.3022 1.84293 25.2275 1.71596 25.2088C1.58899 25.1901 1.46199 25.2274 1.36863 25.3096C1.36863 25.3096 1.32384 25.3507 1.24915 25.4254C0.890647 25.7839 -0.252079 27.0611 0.050411 28.4727C0.229664 29.3092 0.868211 30.0187 1.94747 30.5789C0.797257 31.3893 0.278227 32.3042 0.382791 33.2939C0.532169 34.7802 2.0745 35.8333 2.13798 35.8744C2.24628 35.9453 2.37696 35.9677 2.50019 35.9304C2.62343 35.8968 2.72055 35.8108 2.77284 35.6951C2.77657 35.6876 3.08275 34.993 3.96035 34.1155C5.28981 32.7897 7.86287 31.0756 12.5795 30.452Z" fill="white"/>
</mask>
<g mask="url(#mask1_40_169)">
<path d="M2.24766 34.8683C1.85836 34.5211 1.30603 33.9108 1.23764 33.2164C1.15346 32.3957 1.77422 31.6171 3.06837 30.9017C3.21041 30.8175 3.29985 30.6597 3.28933 30.4966C3.27355 30.3282 3.16829 30.181 3.01047 30.1231C1.75841 29.6286 1.04296 29.0131 0.890395 28.3029C0.722051 27.519 1.25338 26.7299 1.61637 26.2985C2.40548 27.2244 4.68339 29.334 9.61271 30.1546C6.41417 31.0069 4.47296 32.3852 3.35242 33.5058C2.81056 34.0476 2.45809 34.5316 2.24766 34.8683ZM12.5798 30.4545C12.6692 30.4387 12.7586 30.3967 12.8218 30.3335C12.8218 30.3283 12.8271 30.3283 12.8271 30.323C12.9954 30.1547 12.9954 29.8864 12.8271 29.718C12.7271 29.6181 12.5956 29.576 12.464 29.5918C4.48349 29.192 2.0425 25.4463 2.02146 25.4095C1.95307 25.3043 1.8426 25.2253 1.71634 25.2095C1.59009 25.1885 1.45859 25.2253 1.36915 25.3095C1.36915 25.3095 1.32177 25.3516 1.24812 25.4253C0.890385 25.783 -0.251188 27.0613 0.0486747 28.4712C0.22754 29.3077 0.869383 30.0179 1.94784 30.5808C0.795732 31.3909 0.274877 32.3063 0.380092 33.2953C0.532654 34.7789 2.07407 35.831 2.1372 35.8731C2.24768 35.9467 2.37396 35.9678 2.50022 35.931C2.62121 35.8994 2.72113 35.81 2.77373 35.6943C2.77373 35.689 3.08412 34.9946 3.9574 34.116C5.28837 32.7903 7.8609 31.0753 12.5798 30.4545Z" fill="url(#paint1_linear_40_169)"/>
</g>
<mask id="mask2_40_169" style="mask-type:luminance" maskUnits="userSpaceOnUse" x="216" y="25" width="13" height="11">
<path d="M227.381 26.2955C227.747 26.7287 228.277 27.5166 228.109 28.3009C227.956 29.0142 227.243 29.6266 225.988 30.1233C225.831 30.1831 225.727 30.3287 225.715 30.4968C225.7 30.6611 225.786 30.818 225.932 30.9001C227.224 31.6171 227.848 32.3976 227.766 33.2155C227.695 33.9101 227.138 34.5188 226.754 34.8661C226.541 34.53 226.19 34.0482 225.648 33.503C224.528 32.3827 222.59 31.0084 219.385 30.1532C224.319 29.3354 226.597 27.2217 227.381 26.2955ZM216.174 29.7162C216.006 29.888 216.006 30.1569 216.17 30.325C216.174 30.3287 216.178 30.3287 216.178 30.3324C216.241 30.3959 216.327 30.4408 216.424 30.452C221.137 31.0756 223.71 32.7897 225.039 34.1155C225.917 34.993 226.223 35.6876 226.227 35.6951C226.279 35.8108 226.376 35.8968 226.5 35.9304C226.623 35.9677 226.754 35.9453 226.862 35.8744C226.925 35.8333 228.468 34.7802 228.621 33.2939C228.722 32.3042 228.203 31.3893 227.052 30.5789C228.135 30.0187 228.77 29.3092 228.949 28.4727C229.252 27.0611 228.109 25.7839 227.751 25.4254C227.676 25.3507 227.631 25.3096 227.631 25.3096C227.538 25.2274 227.411 25.1901 227.284 25.2088C227.157 25.2275 227.045 25.3022 226.978 25.4105C226.955 25.4478 224.513 29.1935 216.532 29.5931C216.405 29.5781 216.271 29.6192 216.174 29.7162Z" fill="white"/>
</mask>
<g mask="url(#mask2_40_169)">
<path d="M227.38 26.2963C227.749 26.731 228.275 27.5147 228.111 28.2985C227.959 29.0164 227.241 29.6289 225.99 30.1228C225.832 30.1821 225.727 30.327 225.713 30.4983C225.7 30.6629 225.786 30.8144 225.931 30.9C227.222 31.6179 227.847 32.3951 227.768 33.2118C227.696 33.9099 227.136 34.5158 226.754 34.8649C226.543 34.529 226.188 34.0482 225.648 33.5015C224.528 32.3819 222.592 31.0054 219.384 30.1558C224.317 29.3325 226.596 27.2184 227.38 26.2963ZM216.177 29.7145C216.005 29.8857 216.005 30.1557 216.17 30.327C216.177 30.327 216.177 30.327 216.177 30.3336C216.242 30.3929 216.328 30.439 216.427 30.4522C221.136 31.0778 223.711 32.7902 225.042 34.114C225.918 34.99 226.221 35.6881 226.227 35.6947C226.28 35.8132 226.379 35.8989 226.497 35.9318C226.622 35.9648 226.754 35.945 226.859 35.8725C226.925 35.833 228.466 34.7792 228.618 33.2908C228.723 32.3028 228.203 31.3874 227.05 30.5773C228.137 30.0175 228.769 29.3062 228.947 28.4697C229.25 27.0603 228.111 25.7826 227.748 25.4269C227.676 25.3479 227.63 25.3084 227.63 25.3084C227.538 25.2294 227.413 25.1898 227.281 25.2096C227.156 25.2294 227.044 25.3018 226.978 25.4072C226.958 25.4467 224.515 29.1942 216.532 29.5894C216.407 29.5762 216.269 29.6157 216.177 29.7145Z" fill="url(#paint2_linear_40_169)"/>
</g>
<defs>
<linearGradient id="paint0_linear_40_169" x1="647.95" y1="-505.002" x2="1019.24" y2="-505.002" gradientUnits="userSpaceOnUse">
<stop stop-color="#D6B055"/>
<stop offset="0.0306801" stop-color="#D6B055"/>
<stop offset="0.221275" stop-color="#CBA848"/>
<stop offset="0.230935" stop-color="#CBA848"/>
<stop offset="0.34777" stop-color="#FBEC9E"/>
<stop offset="0.360079" stop-color="#FBEC9E"/>
<stop offset="0.763117" stop-color="#DBB24F"/>
<stop offset="0.763573" stop-color="#DBB24F"/>
<stop offset="0.917057" stop-color="#FCEBA8"/>
<stop offset="0.917064" stop-color="#FCEBA8"/>
<stop offset="1" stop-color="#DAB14E"/>
</linearGradient>
<linearGradient id="paint1_linear_40_169" x1="345.165" y1="-260.766" x2="363.412" y2="-260.766" gradientUnits="userSpaceOnUse">
<stop stop-color="#D6B055"/>
<stop offset="0.0306801" stop-color="#D6B055"/>
<stop offset="0.221275" stop-color="#CBA848"/>
<stop offset="0.230935" stop-color="#CBA848"/>
<stop offset="0.34777" stop-color="#FBEC9E"/>
<stop offset="0.360079" stop-color="#FBEC9E"/>
<stop offset="0.763117" stop-color="#DBB24F"/>
<stop offset="0.763573" stop-color="#DBB24F"/>
<stop offset="0.917057" stop-color="#FCEBA8"/>
<stop offset="0.917064" stop-color="#FCEBA8"/>
<stop offset="1" stop-color="#DAB14E"/>
</linearGradient>
<linearGradient id="paint2_linear_40_169" x1="1025.92" y1="-513.753" x2="1048.77" y2="-513.753" gradientUnits="userSpaceOnUse">
<stop stop-color="#D6B055"/>
<stop offset="0.0306801" stop-color="#D6B055"/>
<stop offset="0.221275" stop-color="#CBA848"/>
<stop offset="0.230935" stop-color="#CBA848"/>
<stop offset="0.34777" stop-color="#FBEC9E"/>
<stop offset="0.360079" stop-color="#FBEC9E"/>
<stop offset="0.763117" stop-color="#DBB24F"/>
<stop offset="0.763573" stop-color="#DBB24F"/>
<stop offset="0.917057" stop-color="#FCEBA8"/>
<stop offset="0.917064" stop-color="#FCEBA8"/>
<stop offset="1" stop-color="#DAB14E"/>
</linearGradient>
</defs>
</svg>
