<svg width="250" height="23" viewBox="0 0 250 23" fill="none" xmlns="http://www.w3.org/2000/svg">
<path d="M248.183 12.3299H1.17801C0.528009 12.3299 0 11.8029 0 11.1519C0 10.5019 0.527009 9.97485 1.17801 9.97485H248.183C248.833 9.97485 249.361 10.5019 249.361 11.1519C249.36 11.8039 248.833 12.3299 248.183 12.3299Z" fill="url(#paint0_linear_23_2496)"/>
<path d="M91.381 5.31194C89.799 5.27294 88.432 5.90594 87.522 6.96394C85.676 2.83294 81.149 0.478943 76.354 1.66594C72.989 2.49894 70.747 5.61294 68.015 7.49594C66.387 8.61894 64.319 9.12494 62.506 8.15894C61.512 7.62894 61.223 6.39694 61.435 5.39094C61.756 3.86494 64.092 4.28694 64.086 5.67294C64.081 6.93894 66.043 6.93894 66.048 5.67294C66.059 3.15894 62.467 1.20494 60.55 3.24294C58.004 5.94894 60 9.70994 63.235 10.5219C67.737 11.6529 71.116 7.24094 74.256 4.89194C79.01 1.33494 85.62 4.18994 86.362 9.93394C86.356 10.0139 86.347 10.0919 86.346 10.1739C86.344 10.3359 86.375 10.4769 86.43 10.5959C86.594 11.7579 88.449 11.7369 88.377 10.5049C88.365 10.3039 88.348 10.1049 88.324 9.90694C88.627 6.32594 93.937 6.59694 93.805 10.3569C93.76 11.6229 95.722 11.6189 95.767 10.3569C95.856 7.86294 94.028 5.37694 91.381 5.31194Z" fill="url(#paint1_linear_23_2496)"/>
<path d="M157.979 5.31194C159.561 5.27294 160.929 5.90594 161.837 6.96394C163.685 2.83294 168.212 0.478943 173.007 1.66594C176.372 2.49894 178.612 5.61294 181.345 7.49594C182.973 8.61894 185.042 9.12494 186.853 8.15894C187.848 7.62894 188.136 6.39694 187.925 5.39094C187.604 3.86494 185.268 4.28694 185.275 5.67294C185.28 6.93894 183.316 6.93894 183.311 5.67294C183.302 3.15894 186.894 1.20494 188.809 3.24294C191.355 5.94894 189.36 9.70994 186.124 10.5219C181.623 11.6529 178.244 7.24094 175.105 4.89194C170.352 1.33494 163.74 4.18994 162.999 9.93394C163.004 10.0139 163.013 10.0919 163.013 10.1739C163.015 10.3359 162.986 10.4769 162.931 10.5959C162.767 11.7579 160.91 11.7369 160.984 10.5049C160.995 10.3039 161.013 10.1049 161.036 9.90694C160.732 6.32594 155.422 6.59694 155.557 10.3569C155.601 11.6229 153.639 11.6189 153.593 10.3569C153.503 7.86294 155.332 5.37694 157.979 5.31194Z" fill="url(#paint2_linear_23_2496)"/>
<path d="M91.381 17.5849C89.799 17.6229 88.432 16.9909 87.522 15.9319C85.676 20.0639 81.149 22.4169 76.354 21.2299C72.989 20.3959 70.747 17.2839 68.015 15.3999C66.387 14.2779 64.319 13.7709 62.506 14.7379C61.512 15.2679 61.223 16.4989 61.435 17.5059C61.756 19.0319 64.092 18.6099 64.086 17.2239C64.081 15.9579 66.043 15.9579 66.048 17.2239C66.059 19.7379 62.467 21.6919 60.55 19.6539C58.004 16.9469 60 13.1879 63.235 12.3749C67.737 11.2439 71.116 15.6559 74.256 18.0049C79.01 21.5629 85.62 18.7069 86.362 12.9629C86.356 12.8829 86.347 12.8039 86.346 12.7229C86.344 12.5609 86.375 12.4209 86.43 12.2999C86.594 11.1379 88.449 11.1589 88.377 12.3919C88.365 12.5929 88.348 12.7919 88.324 12.9889C88.627 16.5709 93.937 16.2999 93.805 12.5399C93.76 11.2739 95.722 11.2779 95.767 12.5399C95.856 15.0339 94.028 17.5189 91.381 17.5849Z" fill="url(#paint3_linear_23_2496)"/>
<path d="M157.979 17.5849C159.561 17.6229 160.929 16.9909 161.837 15.9319C163.685 20.0639 168.212 22.4169 173.007 21.2299C176.372 20.3959 178.612 17.2839 181.345 15.3999C182.973 14.2779 185.042 13.7709 186.853 14.7379C187.848 15.2679 188.136 16.4989 187.925 17.5059C187.604 19.0319 185.268 18.6099 185.275 17.2239C185.28 15.9579 183.316 15.9579 183.311 17.2239C183.302 19.7379 186.894 21.6919 188.809 19.6539C191.355 16.9469 189.36 13.1879 186.124 12.3749C181.623 11.2439 178.244 15.6559 175.105 18.0049C170.352 21.5629 163.74 18.7069 162.999 12.9629C163.004 12.8829 163.013 12.8039 163.013 12.7229C163.015 12.5609 162.986 12.4209 162.931 12.2999C162.767 11.1379 160.91 11.1589 160.984 12.3919C160.995 12.5929 161.013 12.7919 161.036 12.9889C160.732 16.5709 155.422 16.2999 155.557 12.5399C155.601 11.2739 153.639 11.2779 153.593 12.5399C153.503 15.0339 155.332 17.5189 157.979 17.5849Z" fill="url(#paint4_linear_23_2496)"/>
<path d="M125.593 10.6488C122.423 7.81883 120.009 4.42583 118.357 0.514826C118.128 -0.0291741 117.636 -0.0961742 117.227 0.101826C117.154 0.123826 117.08 0.153827 117.004 0.197827C115.302 1.17383 114.24 2.96683 114.207 4.91983C112.469 6.38983 110.372 7.21083 108.083 7.30583C107.96 7.31083 107.853 7.33783 107.753 7.37683C107.312 7.42883 106.906 7.73983 106.906 8.31483V10.2768C106.906 11.5428 108.869 11.5428 108.869 10.2768V9.20782C111.497 8.93982 113.876 7.87883 115.862 6.08483C116.13 5.84283 116.204 5.55983 116.159 5.29483C116.162 5.25383 116.168 5.21483 116.167 5.16983C116.14 4.16683 116.489 3.25183 117.144 2.56283C118.839 6.17383 121.216 9.36683 124.205 12.0368C125.145 12.8768 126.538 11.4938 125.593 10.6488Z" fill="url(#paint5_linear_23_2496)"/>
<path d="M123.767 10.6488C126.936 7.81883 129.352 4.42583 131.002 0.514826C131.232 -0.0291741 131.724 -0.0961742 132.132 0.101826C132.205 0.123826 132.28 0.153827 132.356 0.197827C134.057 1.17383 135.119 2.96683 135.153 4.91983C136.891 6.38983 138.987 7.21083 141.277 7.30583C141.4 7.31083 141.507 7.33783 141.606 7.37683C142.048 7.42883 142.453 7.73983 142.453 8.31483V10.2768C142.453 11.5428 140.492 11.5428 140.492 10.2768V9.20782C137.864 8.93982 135.484 7.87883 133.498 6.08483C133.231 5.84283 133.156 5.55983 133.201 5.29483C133.197 5.25383 133.192 5.21483 133.192 5.16983C133.219 4.16683 132.87 3.25183 132.217 2.56283C130.521 6.17383 128.144 9.36683 125.155 12.0368C124.215 12.8768 122.821 11.4938 123.767 10.6488Z" fill="url(#paint6_linear_23_2496)"/>
<path d="M125.593 11.6567C122.423 14.4867 120.009 17.8797 118.357 21.7917C118.128 22.3357 117.636 22.4027 117.227 22.2057C117.154 22.1837 117.08 22.1527 117.004 22.1097C115.302 21.1327 114.24 19.3397 114.207 17.3877C112.469 15.9187 110.372 15.0977 108.083 15.0027C107.96 14.9977 107.853 14.9697 107.753 14.9317C107.312 14.8787 106.906 14.5677 106.906 13.9937V12.0317C106.906 10.7657 108.869 10.7657 108.869 12.0317V13.0997C111.497 13.3687 113.876 14.4287 115.862 16.2237C116.13 16.4657 116.204 16.7487 116.159 17.0127C116.162 17.0537 116.168 17.0927 116.167 17.1367C116.14 18.1407 116.489 19.0547 117.144 19.7447C118.839 16.1327 121.216 12.9407 124.205 10.2707C125.145 9.42971 126.538 10.8117 125.593 11.6567Z" fill="url(#paint7_linear_23_2496)"/>
<path d="M123.767 11.6567C126.936 14.4867 129.352 17.8797 131.002 21.7917C131.232 22.3357 131.724 22.4027 132.132 22.2057C132.205 22.1837 132.28 22.1527 132.356 22.1097C134.057 21.1327 135.119 19.3397 135.153 17.3877C136.891 15.9187 138.987 15.0977 141.277 15.0027C141.4 14.9977 141.507 14.9697 141.606 14.9317C142.048 14.8787 142.453 14.5677 142.453 13.9937V12.0317C142.453 10.7657 140.492 10.7657 140.492 12.0317V13.0997C137.864 13.3687 135.484 14.4287 133.498 16.2237C133.231 16.4657 133.156 16.7487 133.201 17.0127C133.197 17.0537 133.192 17.0927 133.192 17.1367C133.219 18.1407 132.87 19.0547 132.217 19.7447C130.521 16.1327 128.144 12.9407 125.155 10.2707C124.215 9.42971 122.821 10.8117 123.767 11.6567Z" fill="url(#paint8_linear_23_2496)"/>
<path d="M82.353 11.1527C82.353 13.0307 80.831 14.5547 78.952 14.5547C77.073 14.5547 75.55 13.0307 75.55 11.1527C75.55 9.27471 77.073 7.75171 78.952 7.75171C80.831 7.75171 82.353 9.27371 82.353 11.1527Z" fill="url(#paint9_linear_23_2496)"/>
<path d="M173.811 11.1527C173.811 13.0307 172.288 14.5547 170.409 14.5547C168.53 14.5547 167.007 13.0307 167.007 11.1527C167.007 9.27471 168.53 7.75171 170.409 7.75171C172.287 7.75071 173.811 9.27371 173.811 11.1527Z" fill="url(#paint10_linear_23_2496)"/>
<defs>
<linearGradient id="paint0_linear_23_2496" x1="0.0001" y1="11.1531" x2="249.361" y2="11.1531" gradientUnits="userSpaceOnUse">
<stop stop-color="#B9873D"/>
<stop offset="0.4666" stop-color="#F5E382"/>
<stop offset="1" stop-color="#996D33"/>
</linearGradient>
<linearGradient id="paint1_linear_23_2496" x1="59.3927" y1="6.40334" x2="95.7698" y2="6.40334" gradientUnits="userSpaceOnUse">
<stop stop-color="#B9873D"/>
<stop offset="0.4666" stop-color="#F5E382"/>
<stop offset="1" stop-color="#996D33"/>
</linearGradient>
<linearGradient id="paint2_linear_23_2496" x1="153.589" y1="6.40334" x2="189.966" y2="6.40334" gradientUnits="userSpaceOnUse">
<stop stop-color="#B9873D"/>
<stop offset="0.4666" stop-color="#F5E382"/>
<stop offset="1" stop-color="#996D33"/>
</linearGradient>
<linearGradient id="paint3_linear_23_2496" x1="59.3927" y1="16.4928" x2="95.7698" y2="16.4928" gradientUnits="userSpaceOnUse">
<stop stop-color="#B9873D"/>
<stop offset="0.4666" stop-color="#F5E382"/>
<stop offset="1" stop-color="#996D33"/>
</linearGradient>
<linearGradient id="paint4_linear_23_2496" x1="153.589" y1="16.4928" x2="189.966" y2="16.4928" gradientUnits="userSpaceOnUse">
<stop stop-color="#B9873D"/>
<stop offset="0.4666" stop-color="#F5E382"/>
<stop offset="1" stop-color="#996D33"/>
</linearGradient>
<linearGradient id="paint5_linear_23_2496" x1="106.906" y1="6.14873" x2="125.908" y2="6.14873" gradientUnits="userSpaceOnUse">
<stop stop-color="#B9873D"/>
<stop offset="0.4666" stop-color="#F5E382"/>
<stop offset="1" stop-color="#996D33"/>
</linearGradient>
<linearGradient id="paint6_linear_23_2496" x1="123.452" y1="6.14873" x2="142.452" y2="6.14873" gradientUnits="userSpaceOnUse">
<stop stop-color="#B9873D"/>
<stop offset="0.4666" stop-color="#F5E382"/>
<stop offset="1" stop-color="#996D33"/>
</linearGradient>
<linearGradient id="paint7_linear_23_2496" x1="106.906" y1="16.1571" x2="125.908" y2="16.1571" gradientUnits="userSpaceOnUse">
<stop stop-color="#B9873D"/>
<stop offset="0.4666" stop-color="#F5E382"/>
<stop offset="1" stop-color="#996D33"/>
</linearGradient>
<linearGradient id="paint8_linear_23_2496" x1="123.452" y1="16.1571" x2="142.452" y2="16.1571" gradientUnits="userSpaceOnUse">
<stop stop-color="#B9873D"/>
<stop offset="0.4666" stop-color="#F5E382"/>
<stop offset="1" stop-color="#996D33"/>
</linearGradient>
<linearGradient id="paint9_linear_23_2496" x1="75.5489" y1="11.1529" x2="82.3526" y2="11.1529" gradientUnits="userSpaceOnUse">
<stop stop-color="#B9873D"/>
<stop offset="0.4666" stop-color="#F5E382"/>
<stop offset="1" stop-color="#996D33"/>
</linearGradient>
<linearGradient id="paint10_linear_23_2496" x1="167.006" y1="11.1529" x2="173.811" y2="11.1529" gradientUnits="userSpaceOnUse">
<stop stop-color="#B9873D"/>
<stop offset="0.4666" stop-color="#F5E382"/>
<stop offset="1" stop-color="#996D33"/>
</linearGradient>
</defs>
</svg>
