<svg width="184" height="171" viewBox="0 0 184 171" fill="none" xmlns="http://www.w3.org/2000/svg">
<path d="M0.960011 160.988H49.421C51.142 165.871 55.764 169.582 61.606 168.757C65.855 168.157 69.216 165.054 70.061 160.889H102.007C106.167 162.064 110.453 162.353 114.728 161.027C114.857 160.989 114.984 160.951 115.111 160.91C115.156 160.894 115.201 160.879 115.248 160.863C115.476 160.786 115.699 160.703 115.92 160.617C115.941 160.608 115.961 160.599 115.983 160.592H138.28C136.07 162.897 134.88 166.059 135.173 169.5C134.908 170.648 136.575 171.158 137.027 170.168C137.101 170.059 137.148 169.923 137.16 169.764C138.527 165.21 143.781 164.326 147.883 163.798C147.988 163.785 148.081 163.755 148.168 163.718C152.129 166.572 156.963 168.032 162.211 167.178C166.565 166.467 170.067 163.732 172.026 160.195H182.077C183.358 160.195 183.358 158.21 182.077 158.21H172.934C174.198 154.733 174.049 150.764 171.946 147.253C167.256 139.425 154.59 138.3 150.096 146.894C147.698 151.482 149.265 157.048 153.81 159.505C158.192 161.872 164.092 159.78 164.991 154.634C165.801 150.005 160.395 147.339 156.69 149.421C153.11 151.435 154.206 156.529 157.149 158.499C154.957 158.28 152.942 156.858 151.809 155.009C150.392 152.695 150.887 149.663 152.075 147.39C153.494 144.677 156.416 143.21 159.355 142.865C164.815 142.221 169.883 145.953 171.51 151.058C173.174 156.281 169.807 161.528 165.343 164.021C160.28 166.849 153.877 165.325 149.336 162.246C143.897 158.558 140.871 152.469 139.732 145.974C140.838 145.515 141.911 144.997 142.934 144.418C149.719 140.576 154.412 134.2 156.491 127.001C158.986 126.798 161.473 126.144 163.806 125.04C169.102 122.534 172.365 117.727 173.845 112.329C175.324 113.244 176.589 114.391 177.613 115.7C179.834 120.636 174.834 126.261 169.449 123.546C168.31 122.972 167.304 124.684 168.447 125.261C171.654 126.876 175.332 126.343 177.98 123.928C179.04 122.958 179.701 121.695 180.007 120.334C180.738 122.785 180.798 125.454 180.066 128.085C179.173 131.298 176.983 134.075 174.226 135.896C172.744 136.875 171.044 137.44 169.272 137.088C166.085 136.455 166.744 131.427 169.431 132.912C170.126 133.297 170.776 132.78 170.9 132.186C170.964 132.012 170.972 131.807 170.898 131.576C169.847 128.327 165.806 127.473 163.416 129.851C160.412 132.84 162.381 137.284 165.602 139.083C168.155 140.51 171.645 140.124 174.196 138.916C177.405 137.4 179.686 134.876 181.087 131.87V159.201C181.087 160.482 183.072 160.482 183.072 159.201V74.9817C183.077 74.7477 183.078 74.5168 183.072 74.2908V0.96075C183.072 -0.32025 181.087 -0.32025 181.087 0.96075V73.6127C181.073 73.6927 181.066 73.7757 181.071 73.8687C181.081 74.0307 181.085 74.1968 181.087 74.3638V74.5457C181.066 80.4777 176.318 89.9177 169.245 86.1027C165.643 84.1597 165.675 78.7967 168.893 76.5687C169.519 76.1327 170.285 75.9467 171.026 75.9927C169.094 76.5307 167.916 78.5237 168.739 80.5287C169.583 82.5827 172.903 83.1818 174.442 81.5568C176.195 79.7048 176.171 76.5277 173.94 75.0037C172.283 73.8727 170.44 73.7987 168.792 74.4667C168.96 74.2997 169.128 74.1358 169.292 73.9628C176.247 66.6458 179.368 54.6137 174.428 45.4207C169.4 36.0647 154.445 33.6738 146.333 40.3358C139.645 45.8278 140.063 56.7507 146.769 62.0977C152.132 66.3717 161.185 66.0628 164.468 59.3928C165.84 56.6078 165.38 53.1827 163.372 50.8228C161.667 48.8188 156.995 46.8447 154.855 49.3777C154.372 49.9517 154.252 50.7648 154.366 51.5048C154.491 52.3158 154.84 54.5727 155.9 54.5587C157.645 54.5357 158.745 55.9387 158.768 57.6107C158.789 59.3537 156.977 60.6287 155.52 61.0917C152.305 62.1107 148.858 59.7397 146.854 57.4567C142.893 52.9427 143.594 46.1027 147.615 42.0077C151.423 38.8397 157.223 38.4837 161.932 39.2227C168.106 40.1897 172.549 44.2738 174.242 50.2338C175.879 55.9948 174.32 62.4278 171.519 67.5568C171.449 67.6858 171.374 67.8097 171.301 67.9377C169.956 64.9007 166.848 63.1388 163.286 63.6348C162.528 63.6408 161.856 64.6298 162.552 65.3278C164.849 67.6308 166.226 70.5387 166.488 73.7877C166.492 73.8407 166.506 73.8878 166.515 73.9368C164.604 75.7058 162.456 77.1908 160.151 78.4448C159.613 77.9818 159.072 77.5287 158.526 77.0867C154.298 73.6647 149.615 70.8517 145.519 67.2637C141.226 63.5017 138.294 58.7728 137.009 53.2048C136.206 49.7298 136.275 46.0737 137.017 42.5967C136.93 43.0017 139.816 42.7637 140.138 42.6567C144.161 41.3007 144.169 34.7658 147.203 32.1038C151.409 28.4158 157.916 29.5467 162.891 30.3987C164.078 30.6007 164.619 28.8927 163.594 28.5327C163.521 28.4287 163.423 28.3337 163.293 28.2537C155.73 23.5707 146.214 23.8868 139.005 29.1008C135.997 31.2748 133.269 34.4577 133.73 38.3937C133.876 39.6537 134.464 40.7417 135.3 41.5317C135.226 41.6327 135.167 41.7577 135.134 41.9077C133.554 49.1067 134.958 56.1128 138.597 62.0258C137.008 64.7358 133.59 65.2937 131.251 63.0327C131.004 62.7947 130.723 62.7237 130.461 62.7607C129.902 62.7877 129.29 63.2727 129.391 64.0027C130.324 70.8437 138.974 72.5827 142.767 67.3527C143.354 67.9527 143.964 68.5358 144.605 69.0958C148.693 72.6768 153.398 75.4758 157.617 78.8928C157.83 79.0638 158.036 79.2437 158.246 79.4167C153.158 81.8477 147.488 83.3327 142.096 84.5007C141.188 84.6977 140.279 84.8837 139.369 85.0717C140.108 82.6687 139.943 80.0277 138.967 77.7137C136.853 72.6917 129.609 70.1537 126.205 75.3947C123.123 80.1387 129.457 85.8477 133.551 81.7237C134.453 80.8157 133.051 79.4107 132.149 80.3217C130.096 82.3877 127.397 80.4177 127.446 77.9007C127.505 74.9347 130.972 74.0708 133.276 74.7128C138.06 76.0428 138.667 82.4858 136.76 86.1918C134.592 90.4068 128.719 91.7797 124.535 92.9097C120.433 94.0177 116.213 94.5927 111.972 94.7457C113.742 93.1877 116.083 92.2977 118.201 91.2487C120.744 89.9897 122.787 88.2217 123.992 85.6257C126.217 80.8347 124.432 75.4187 120.176 72.5187C116 69.6717 109.709 70.4287 106.689 74.6047C103.674 78.7747 105.185 85.0357 110.41 86.4767C110.466 86.4917 110.517 86.4977 110.569 86.5027C111.428 86.8817 112.436 85.6887 111.65 84.8737C109.331 82.4647 110.393 78.9037 113.557 78.0057C115.145 77.5557 116.702 78.4517 117.62 79.6907C118.768 81.2387 118.325 83.1137 117.463 84.6517C116.136 87.0207 113.452 88.5178 111.516 90.3328C110.034 91.7208 108.995 93.4467 108.639 95.4087C101.294 96.9377 96.023 102.767 94.781 109.726C92.945 106.269 89.867 103.343 86.147 101.712C77.379 97.8657 66.42 101.882 62.699 110.843C61.413 113.943 60.902 117.341 61.099 120.7C55.103 120.7 44.476 121.67 42.536 113.991C41.621 110.368 45.224 107.397 48.601 107.946C50.632 108.276 52.079 110.11 51.742 112.16C51.344 114.593 47.555 114.686 47.498 112.025C47.471 110.747 45.486 110.745 45.514 112.025C45.612 116.628 51.342 117.209 53.358 113.508C54.409 111.577 53.566 109.264 52.254 107.736C50.639 105.851 47.781 105.605 45.543 106.17C40.547 107.426 39.392 113.372 41.811 117.298C43.276 119.675 45.686 121.053 48.333 121.749C49.655 122.098 51.015 122.291 52.372 122.434C52.761 122.476 55.827 122.461 55.953 122.685C57.753 125.885 52.452 126.97 50.468 127.241C49.251 127.407 49.709 129.183 50.863 129.16C50.878 129.163 50.888 129.169 50.904 129.171C55.349 129.853 59.414 127.952 61.592 124.292C61.885 125.684 62.296 127.049 62.831 128.357C64.809 133.198 68.8 136.534 73.53 138.524C84.934 143.319 97.184 138.048 107.628 133.248C108.036 135.247 108.776 137.178 109.839 138.893C113.243 144.394 118.705 147.253 124.626 148.052C124.064 150.279 123.019 152.4 121.496 154.255C118.723 157.628 114.86 159.355 110.727 159.796C107.319 159.946 103.854 158.769 101.748 155.972C100.374 154.148 100.198 151.695 101.371 149.751C102.895 147.224 106.812 147.481 107.659 150.392C107.9 151.22 108.85 151.249 109.332 150.802C109.537 150.693 109.701 150.498 109.77 150.2C111.142 144.349 104.767 139.971 99.566 142.657C94.156 145.45 93.679 151.757 96.039 156.674C88.762 153.125 82.156 147.559 74.725 144.683C66.17 141.371 54.268 142.307 49.86 151.594C48.723 153.992 48.468 156.581 48.906 159.008H0.965992C-0.321008 159.003 -0.320989 160.988 0.960011 160.988ZM159.683 60.5148C161.701 57.5428 160.376 53.2437 156.829 52.6457C156.671 51.9867 156.512 51.3278 156.353 50.6688C158.709 49.6848 161.328 50.8637 162.651 52.9467C164.297 55.5407 162.914 59.0098 160.912 60.9188C159.431 62.3288 157.641 62.9758 155.785 63.0618C157.322 62.7408 158.715 61.9408 159.683 60.5148ZM165.376 65.5547C167.67 65.8977 169.553 67.6767 169.924 70.0887C169.403 70.8157 168.84 71.4967 168.255 72.1517C167.818 69.7337 166.852 67.5027 165.376 65.5547ZM135.81 38.6978C135.208 37.0258 135.998 35.2427 136.902 33.8657C138.487 31.4557 141.28 29.7547 143.83 28.5527C148.027 26.5717 152.783 26.4098 157.148 27.6818C154.029 27.5098 150.944 27.8178 147.984 29.2468C145.867 30.2658 144.21 32.0238 143.16 34.0988C142.08 36.2298 141.7 38.6637 140.097 40.4747C140.036 40.4967 139.973 40.5218 139.911 40.5568C139.119 41.0018 138.332 41.0137 137.648 40.7357C137.939 38.7067 138.96 36.9217 140.47 35.5497C141.419 34.6877 140.011 33.2867 139.067 34.1467C137.552 35.5227 136.54 37.2257 136 39.1327C135.929 38.9927 135.863 38.8488 135.81 38.6978ZM132.207 65.9498C134.889 66.9808 137.973 66.2098 139.796 63.8198C140.296 64.5128 140.826 65.1878 141.39 65.8458C139.084 69.4818 134.265 69.1148 132.207 65.9498ZM118.837 86.1587C120.956 83.3457 120.706 79.6237 118.078 77.2797C115.622 75.0907 111.977 75.7737 109.822 77.9747C108.448 79.3787 108.132 81.3268 108.555 83.1268C107.705 82.2238 107.183 81.0218 107.037 79.7048C106.781 77.3828 108.312 75.3197 110.116 74.0607C114.046 71.3177 119.492 73.2157 121.883 77.0327C124.539 81.2697 122.235 86.5288 118.329 88.9158C116.488 90.0388 114.484 90.8297 112.681 91.8827C114.587 89.8507 117.28 88.2247 118.837 86.1587ZM57.728 125.712C58.2 124.778 58.323 123.692 58.064 122.68H60.218C59.617 123.907 58.76 124.935 57.728 125.712ZM143.664 159.439C144.428 160.378 145.254 161.256 146.137 162.064C143.047 162.558 139.828 163.418 137.618 165.422C138.527 162.665 140.641 160.455 143.641 159.449C143.65 159.446 143.656 159.443 143.664 159.439ZM142.968 142.073C141.854 142.798 140.672 143.435 139.445 143.988C138.931 139.564 139.251 135.047 140.246 131.048C140.92 128.349 141.988 125.775 143.316 123.337C146.534 125.745 150.431 126.985 154.416 127.062C152.488 133.105 148.527 138.453 142.968 142.073ZM148.067 107.98C147.052 106.415 147.527 104.162 148.976 103.046C150.695 101.724 153.089 103.428 152.916 105.389C152.803 106.664 154.789 106.654 154.9 105.389C155.244 101.51 150.523 99.3708 147.587 101.63C144.495 104.009 145.208 108.762 148.095 110.944C150.157 112.504 152.697 112.975 155.103 112.51C155.105 112.569 155.11 112.628 155.122 112.69C156.018 116.89 155.921 121.124 154.958 125.115C149.509 125.038 144.077 122.51 140.763 117.842C137.111 112.694 136.475 105.863 139.26 100.201C142.404 93.8127 150.397 90.4277 156.788 94.2427C159.581 95.9087 161.247 99.1728 161.389 102.354C161.533 105.605 159.459 108.375 156.718 109.885C153.821 111.482 149.906 110.816 148.067 107.98ZM172.429 88.9307C176.378 89.0107 179.308 86.2377 181.083 82.7377V115.732C179.75 112.311 177.772 109.093 175.688 106.168C175.45 105.832 174.727 103.012 174.553 101.681C173.906 96.7477 171.901 92.2557 169.129 88.2267C170.14 88.6647 171.255 88.9057 172.429 88.9307ZM165.459 77.3697C164.57 78.9377 164.288 80.9128 164.627 82.6998C163.691 81.7078 162.717 80.7537 161.717 79.8357C163.01 79.0947 164.259 78.2767 165.459 77.3697ZM66.97 107.677C74.686 98.4987 90.287 101.589 94.087 112.871C95.88 118.193 93.441 124.714 88.025 126.749C84.322 128.142 78.791 126.273 77.216 122.68H84.025C85.61 122.68 86.08 119.318 85.974 118.214C85.792 116.319 84.609 114.555 82.723 114.024C78.693 112.89 75.296 116.042 74.904 119.932C74.878 120.188 74.869 120.444 74.871 120.694H63.008C62.654 116.073 63.89 111.339 66.97 107.677ZM76.787 120.694C76.778 119.921 76.935 119.096 77.31 118.229C78.104 116.394 80.492 115.208 82.375 116.016C84.031 116.728 84.63 119.208 83.484 120.561C83.448 120.604 83.419 120.649 83.392 120.694H76.787ZM107.328 131.257C107.228 131.271 107.127 131.295 107.024 131.343C96.734 136.081 85.33 141.011 74.052 136.605C68.119 134.287 64.329 128.73 63.261 122.68H75.185C76.175 125.851 79.343 128.218 82.484 128.984C86.656 130.002 91.185 128.265 93.777 124.902C95.748 122.343 96.705 119.124 96.713 115.913C96.717 112.941 96.324 110.461 97.356 107.559C98.254 105.03 99.804 102.75 101.819 100.979C102.339 100.522 108.714 96.5057 109 97.3497C109.39 98.4947 110.063 99.5287 110.969 100.342C110.337 102.479 111.323 105.166 113.206 106.715C115.323 108.458 118.164 108.903 120.747 109.524C124.063 110.322 126.917 112.039 129.243 114.518C129.651 114.953 131.692 114.097 131.454 113.374C129.988 108.921 127.46 105.005 124.009 101.833C120.983 99.0498 115.988 95.5058 111.912 98.2078C111.866 98.2388 111.829 98.2727 111.79 98.3077C111.408 97.8437 111.114 97.3268 110.907 96.7598C118.046 96.6288 125.447 95.3808 131.984 92.4968C134.692 91.3018 138.809 87.2087 139.011 87.1667C146.094 85.7007 153.429 84.0848 159.879 80.8248C163.176 83.7768 166.134 87.1017 168.479 90.8647C173.887 99.5407 174.914 111.78 167.645 119.762C164.764 122.924 160.944 124.635 156.994 125.028C157.906 120.85 157.953 116.458 157.038 112.163C157.02 112.083 156.997 112.011 156.968 111.945C157.791 111.604 158.579 111.152 159.298 110.583C162.794 107.816 164.062 103.602 162.907 99.3278C161.725 94.9558 157.936 91.8338 153.618 90.8928C149.001 89.8848 144.239 91.6217 140.845 94.7497C133.774 101.264 134.236 112.496 139.728 119.766C140.354 120.596 141.04 121.348 141.769 122.036C137.928 128.954 136.441 136.996 137.562 144.749C134.148 145.983 130.463 146.544 126.883 146.315C127.259 143.135 126.823 139.833 125.513 136.793C125.697 136.746 125.88 136.703 126.062 136.647C130.179 135.374 132.58 131.514 132.974 127.411C133.89 117.927 123.602 112.749 115.6 116.052C109.35 118.63 106.753 125.054 107.328 131.257ZM118.688 102.777C117.016 101.779 115.345 100.779 113.673 99.7817C113.882 99.6337 114.121 99.5047 114.406 99.4117C114.514 99.3747 114.602 99.3237 114.684 99.2667C117.86 98.8817 121.45 102.103 123.488 104.071C125.566 106.076 127.217 108.486 128.429 111.097C126.139 109.324 123.518 108.15 120.607 107.45C118.336 106.904 116.03 106.482 114.175 104.956C113.223 104.172 112.599 102.754 112.713 101.521C114.371 102.511 116.028 103.501 117.684 104.491C118.787 105.149 119.785 103.432 118.688 102.777ZM112.225 138.87C108.908 134.532 108.154 128.796 110.415 123.817C112.668 118.853 117.905 116.193 123.231 117.162C128.448 118.112 131.647 123.024 130.899 128.173C130.06 133.946 122.727 137.604 118.129 133.339C116.955 132.249 116.393 130.829 116.402 129.411C119.57 129.484 122.736 129.557 125.902 129.632C126.556 129.647 126.873 129.136 126.859 128.63C126.899 128.517 126.92 128.388 126.911 128.241C126.672 124.225 122.771 121.578 118.943 122.772C115.111 123.967 113.396 128.692 115.011 132.204C116.603 135.666 119.971 137.306 123.501 137.108C123.515 137.147 123.523 137.184 123.542 137.223C124.882 140.059 125.351 143.143 124.982 146.118C120.055 145.4 115.46 143.097 112.225 138.87ZM126.556 148.234C130.356 148.463 134.269 147.892 137.892 146.662C138.292 148.644 138.865 150.601 139.619 152.504C140.357 154.369 141.309 156.15 142.437 157.793C141.857 158.025 141.306 158.299 140.783 158.607H119.752C123.312 156.1 125.63 152.345 126.556 148.234ZM98.4 145.99C101.059 142.719 106.8 143.559 107.837 147.209C106.485 146.105 104.613 145.721 102.767 146.271C99.861 147.14 98.214 150.513 98.654 153.373C99.021 155.745 100.152 157.569 101.72 158.898C100.863 158.65 100.016 158.365 99.182 158.042C99.164 158.016 99.154 157.988 99.132 157.962C96.498 154.443 95.408 149.669 98.4 145.99ZM74.196 146.669C75.144 147.038 76.086 147.445 77.013 147.882C75.958 148.669 75.208 149.74 74.816 150.94C74.347 149.585 74.14 148.157 74.196 146.669ZM55.478 147.831C60.666 143.953 66.556 144.133 72.255 145.977C71.946 149.32 72.866 152.585 74.888 155.276C75.565 156.176 77.003 155.491 76.765 154.605C76.759 154.53 76.745 154.452 76.72 154.37C76.006 152.079 76.97 149.947 79.12 148.927C81.927 150.388 84.585 152.033 86.964 153.529C90.001 155.438 93.259 157.375 96.653 158.904H70.261C70.249 154.584 67.4 150.025 62.673 149.834C58.384 149.66 54.023 153.758 56.201 158.183C58.134 162.108 63.802 162.089 65.284 157.797C65.702 156.584 63.784 156.068 63.37 157.27C62.917 158.583 61.72 159.158 60.397 159.171C58.903 159.186 58.034 157.705 57.715 156.455C56.742 152.621 61.744 151.162 64.445 152.322C69.642 154.554 69.082 161.674 65.517 165.01C61.389 168.873 54.497 166.486 51.937 162.102C49.084 157.212 51.189 151.036 55.478 147.831Z" fill="url(#paint0_linear_23_2449)"/>
<defs>
<linearGradient id="paint0_linear_23_2449" x1="183.073" y1="85.3463" x2="-0.000403745" y2="85.3463" gradientUnits="userSpaceOnUse">
<stop stop-color="#B9873D"/>
<stop offset="0.4666" stop-color="#F5E382"/>
<stop offset="1" stop-color="#996D33"/>
</linearGradient>
</defs>
</svg>
