<svg width="460" height="97" viewBox="0 0 460 97" fill="none" xmlns="http://www.w3.org/2000/svg">
<path d="M185.885 10.323V12.977V15.945H84.9879C80.2079 15.945 75.8229 10.735 75.6259 7.90997C75.4019 7.99097 75.1869 8.07995 74.9619 8.16995C66.1199 11.784 60.5149 21.2 61.95 31.621C62.2099 33.531 62.7029 35.468 63.4659 37.414C58.2019 40.221 52.4359 44.122 47.2789 48.4C37.8089 56.256 30.3659 65.394 31.7559 71.4109C33.0209 76.908 39.6659 76.343 40.7599 70.667C41.1459 68.667 40.6969 66.542 39.5139 64.542C43.0019 65.17 45.1099 68.479 44.8139 71.348C46.7869 70.586 47.8089 67.6 47.8089 64.416C53.3059 69.106 54.0509 76.343 49.0379 80.056C52.1229 81.213 53.1809 84.522 50.6879 87.58C50.0329 85.508 47.3519 83.231 44.4999 83.553C35.4509 84.584 30.0079 83.849 26.5639 76.343C24.7619 78.989 19.9189 79.293 17.6769 77.312C21.1119 76.433 23.6759 73.034 23.8829 70.936C23.9459 70.245 24.0709 69.528 24.2329 68.802C25.5869 62.883 30.1159 55.844 36.2319 49.324C41.7559 43.432 48.5719 37.962 55.5039 34.106C52.9839 16 62.1579 4.43195 79.4029 0.00195312C78.9899 5.38295 82.748 10.324 85.976 10.324H185.885V10.323Z" fill="url(#paint0_linear_17_119)"/>
<path d="M79.401 0.000976562L77.294 3.97397L74.962 8.17096C66.12 11.785 60.515 21.201 61.95 31.622L59.645 35.765L55.502 34.106C54.91 29.864 54.964 25.981 55.619 22.466C55.655 22.251 55.691 22.036 55.736 21.811C55.808 21.47 55.888 21.138 55.96 20.807C55.978 20.735 55.996 20.663 56.014 20.592C56.113 20.206 56.22 19.83 56.328 19.453C56.328 19.444 56.337 19.426 56.346 19.408C58.669 11.758 64.121 6.09097 72.12 2.51297H72.129C74.361 1.50697 76.791 0.672977 79.401 0.000976562Z" fill="url(#paint1_linear_17_119)"/>
<path d="M73.249 5.47995C72.585 6.14395 71.644 6.42197 70.774 6.77097C67.25 8.19697 64.479 11.102 62.577 14.393C61.384 16.447 60.497 18.671 59.77 20.931C59.331 22.312 59.115 25.54 57.358 25.971C55.538 26.419 55.278 24.68 55.618 22.465C55.654 22.25 55.69 22.035 55.735 21.81C55.807 21.469 55.887 21.137 55.959 20.806C55.977 20.734 55.995 20.662 56.013 20.591C56.112 20.205 56.219 19.829 56.327 19.452C56.327 19.443 56.336 19.425 56.345 19.407C58.668 11.757 64.12 6.08996 72.119 2.51196H72.128C72.621 2.51196 73.061 2.64697 73.437 2.97797C74.137 3.60597 73.913 4.81595 73.249 5.47995Z" fill="url(#paint2_linear_17_119)"/>
<path d="M185.885 86.477H85.974C82.746 86.477 78.988 91.418 79.401 96.799C62.156 92.369 52.982 80.801 55.502 62.695C39.952 54.041 24.985 37.253 23.882 25.864C23.676 23.765 21.111 20.367 17.676 19.488C19.918 17.506 24.752 17.811 26.554 20.448C26.563 20.448 26.563 20.457 26.563 20.457C26.563 20.457 26.563 20.448 26.572 20.43C29.612 13.83 34.212 12.485 41.467 12.969C42.426 13.032 43.44 13.121 44.498 13.247C47.35 13.57 50.031 11.292 50.686 9.22101C53.179 12.279 52.121 15.588 49.036 16.745C54.049 20.458 53.305 27.704 47.807 32.385C47.807 29.201 46.785 26.215 44.812 25.453C45.108 28.323 43 31.632 39.512 32.259C39.53 32.223 39.557 32.187 39.575 32.151C40.714 30.187 41.135 28.107 40.759 26.143C39.665 20.457 33.02 19.893 31.755 25.39C30.634 30.233 35.252 37.111 42.041 43.711C48.265 49.764 56.327 55.584 63.465 59.387C58.497 72.148 64.685 84.73 75.437 88.819C75.5 88.846 75.563 88.864 75.625 88.891C75.822 86.075 80.208 80.856 84.987 80.856H185.884V83.672V83.798V86.477H185.885Z" fill="url(#paint3_linear_17_119)"/>
<path d="M42.6059 16.995C42.0139 18.17 40.669 18.851 39.36 18.806C38.23 18.761 37.181 18.2589 36.06 18.0799C34.087 17.7659 31.98 18.5909 30.742 20.1699C30.392 20.6179 30.105 21.121 29.72 21.551C29.334 21.973 28.8049 22.3219 28.2309 22.3129C27.3069 22.3129 26.626 21.38 26.554 20.448C26.563 20.448 26.563 20.457 26.563 20.457C26.563 20.457 26.563 20.448 26.572 20.43C29.612 13.83 34.2119 12.485 41.4669 12.969C42.6779 13.865 43.306 15.605 42.6059 16.995Z" fill="url(#paint4_linear_17_119)"/>
<path d="M26.563 20.4559L25.783 23.048C24.581 19.891 21.999 18.555 17.676 19.488C19.918 17.506 24.761 17.8109 26.563 20.4559Z" fill="url(#paint5_linear_17_119)"/>
<path d="M42.041 43.71L42.113 48.197C37.889 44.637 33.773 40.025 30.858 35.317C28.302 31.183 27.549 26.726 29.36 22.045C31.171 17.391 36.669 16.368 40.283 19.722C43.978 23.157 43.332 29.201 39.575 32.151C40.714 30.187 41.135 28.107 40.759 26.143C39.665 20.457 33.02 19.893 31.755 25.39C30.634 30.231 35.253 37.109 42.041 43.71Z" fill="url(#paint6_linear_17_119)"/>
<path d="M47.808 32.383C47.808 29.199 46.786 26.213 44.813 25.451C44.894 22.94 43.845 20.635 42.114 18.169C42.114 18.169 47.3869 19.245 48.4539 22.662C49.5199 26.079 47.808 32.383 47.808 32.383Z" fill="url(#paint7_linear_17_119)"/>
<path d="M49.036 16.744C48.04 16.045 46.444 15.729 44.615 15.56C44.615 15.56 48.265 15.381 49.341 14.645C51.386 13.246 50.686 9.21997 50.686 9.21997C53.179 12.278 52.121 15.587 49.036 16.744Z" fill="url(#paint8_linear_17_119)"/>
<path d="M26.563 76.317L25.783 73.725C24.581 76.882 21.999 78.218 17.676 77.285C19.918 79.268 24.761 78.963 26.563 76.317Z" fill="url(#paint9_linear_17_119)"/>
<path d="M42.2389 74.137C41.8349 75.204 41.1899 76.209 40.2839 77.052C36.6699 80.406 31.173 79.384 29.361 74.729C27.549 70.048 28.303 65.591 30.859 61.457C33.773 56.749 37.8899 51.754 42.1139 48.194L42.042 53.064C35.253 59.664 30.6349 66.542 31.7559 71.385C32.4639 74.479 34.886 75.654 37.056 75.071C38.742 74.623 40.2749 73.116 40.7599 70.632C41.1189 68.767 40.7509 66.794 39.738 64.92C39.693 64.821 39.6299 64.723 39.5769 64.624C39.7559 64.768 39.9359 64.92 40.1059 65.081C42.5349 67.366 43.3949 71.052 42.2389 74.137Z" fill="url(#paint10_linear_17_119)"/>
<path d="M43.019 71.124C42.983 72.164 42.714 73.205 42.239 74.137C41.853 74.944 41.306 75.671 40.652 76.271C39.997 76.872 39.163 77.374 38.276 77.284C37.397 77.203 36.572 76.306 36.85 75.464C36.904 75.312 36.967 75.186 37.056 75.069C38.742 74.621 40.275 73.114 40.76 70.63C41.119 68.765 40.751 66.792 39.738 64.918C39.864 64.954 39.989 65.008 40.106 65.079C40.447 65.258 40.761 65.527 41.03 65.805C42.355 67.223 43.091 69.178 43.019 71.124Z" fill="url(#paint11_linear_17_119)"/>
<path d="M47.808 64.39C47.808 67.574 46.786 70.56 44.813 71.322C44.894 73.833 43.845 76.138 42.114 78.604C42.114 78.604 47.3869 77.528 48.4539 74.111C49.5199 70.695 47.808 64.39 47.808 64.39Z" fill="url(#paint12_linear_17_119)"/>
<path d="M49.036 80.03C48.04 80.729 46.444 81.045 44.615 81.214C44.615 81.214 48.265 81.393 49.341 82.129C51.386 83.528 50.686 87.554 50.686 87.554C53.179 84.496 52.121 81.187 49.036 80.03Z" fill="url(#paint13_linear_17_119)"/>
<path d="M63.465 37.414C58.201 40.221 52.435 44.122 47.278 48.4L42.113 48.196C47.709 43.022 53.529 38.661 59.645 35.764L63.465 37.414Z" fill="url(#paint14_linear_17_119)"/>
<path d="M77.294 3.97302C77.949 8.55602 81.742 12.977 85.114 12.977H185.886V15.945H84.988C80.208 15.945 75.823 10.735 75.626 7.91003L77.294 3.97302Z" fill="url(#paint15_linear_17_119)"/>
<path d="M75.626 7.91003C64.757 11.927 58.471 24.581 63.466 37.414L59.646 35.764C56.184 17.407 64.4619 7.67702 77.2949 3.97302L75.626 7.91003Z" fill="url(#paint16_linear_17_119)"/>
<path d="M55.502 62.694L59.4609 60.629C53.2929 57.429 47.306 53.593 42.113 48.195L42.041 53.063C46.331 56.893 50.834 60.053 55.502 62.694Z" fill="url(#paint17_linear_17_119)"/>
<path d="M76.164 92.216C76.164 92.216 67.103 90.74 61.154 80.725C56.649 73.141 59.457 60.631 59.457 60.631L63.465 59.385C58.47 72.218 64.756 84.871 75.625 88.889L76.164 92.216Z" fill="url(#paint18_linear_17_119)"/>
<path d="M185.885 80.854V83.795H84.827C83.796 83.965 82.854 84.306 81.993 84.79C79.5 86.162 77.617 88.763 76.164 92.215C76.164 92.215 75.787 90.439 75.438 88.816C75.501 88.843 75.564 88.861 75.626 88.888C75.716 87.65 76.613 85.947 77.985 84.431C79.752 82.494 82.307 80.853 84.989 80.853H185.885V80.854Z" fill="url(#paint19_linear_17_119)"/>
<path d="M42.041 43.71L42.113 48.197C47.192 43.358 52.928 39.116 59.645 35.765L55.502 34.106C50.562 36.879 46.121 40.124 42.041 43.71Z" fill="url(#paint20_linear_17_119)"/>
<path d="M185.885 10.323V12.977H85.113C81.471 12.977 78.558 9.53299 77.293 3.97299L79.4 0C78.987 5.381 82.745 10.322 85.973 10.322H185.885V10.323Z" fill="url(#paint21_linear_17_119)"/>
<path d="M42.113 48.196L37.116 48.4L39.062 50.998L42.113 48.196Z" fill="url(#paint22_linear_17_119)"/>
<path d="M41.458 48.669C35.808 53.825 31.253 60.175 28.195 67.178C27.827 68.021 27.424 68.954 26.608 69.447C24.672 70.627 24.3929 67.966 24.8149 66.74C25.4949 64.761 26.377 62.867 27.403 61.045C29.807 56.776 32.8849 52.89 36.2309 49.324C37.8979 48.705 39.701 48.444 41.458 48.669Z" fill="url(#paint23_linear_17_119)"/>
<path d="M89.75 82.459C89.427 83.149 88.728 83.589 87.983 83.795C87.875 83.822 87.768 83.849 87.66 83.867C86.808 84.028 85.929 83.957 85.059 84.01C84.001 84.082 82.961 84.342 81.992 84.79C81.212 85.131 80.485 85.597 79.84 86.153C79.553 86.395 79.275 86.664 78.934 86.817C78.593 86.978 78.154 86.996 77.867 86.754C77.508 86.458 77.508 85.902 77.607 85.454C77.697 85.077 77.822 84.737 77.984 84.432C79.751 82.495 82.306 80.854 84.988 80.854H89.786C89.974 81.374 89.983 81.957 89.75 82.459Z" fill="url(#paint24_linear_17_119)"/>
<path d="M31.876 15.425C31.823 15.383 31.674 15.45 31.628 15.47C30.803 15.838 30.021 16.3009 29.338 16.8939C29.026 17.1649 28.752 17.478 28.498 17.804C28.378 17.959 28.274 18.113 28.187 18.288C28.15 18.363 28.088 18.455 28.071 18.539C28.058 18.604 28.079 18.689 28.087 18.754C28.102 18.891 28.52 18.693 28.566 18.654C28.914 18.361 29.216 18.036 29.51 17.69C29.763 17.393 30.044 17.125 30.313 16.844C30.77 16.367 31.273 15.906 31.826 15.54C31.875 15.509 31.932 15.469 31.876 15.425Z" fill="#FEF4DA"/>
<path d="M49.743 11.581C49.713 11.528 49.6 11.554 49.557 11.566C49.473 11.589 49.384 11.625 49.324 11.69C49.262 11.759 49.214 11.835 49.158 11.909C49.132 11.943 49.107 11.977 49.079 12.009C49.109 11.975 49.06 12.026 49.053 12.032C49.023 12.059 48.994 12.087 48.968 12.118C48.912 12.182 48.856 12.244 48.797 12.306C48.782 12.32 48.767 12.334 48.752 12.347C48.719 12.377 48.685 12.404 48.652 12.433C48.611 12.468 48.575 12.508 48.537 12.547C48.526 12.558 48.515 12.568 48.503 12.578C48.434 12.64 48.366 12.699 48.306 12.769C48.301 12.775 48.285 12.791 48.275 12.802C48.265 12.811 48.254 12.822 48.249 12.826C48.207 12.864 48.18 12.904 48.144 12.946C48.088 13.01 48.167 13.038 48.221 13.037C48.438 13.032 48.637 12.955 48.834 12.871C49.026 12.789 49.208 12.686 49.366 12.549C49.433 12.491 49.506 12.43 49.562 12.361C49.607 12.305 49.64 12.236 49.672 12.172C49.721 12.075 49.784 11.956 49.752 11.848L49.751 11.886C49.759 11.79 49.792 11.667 49.743 11.581Z" fill="#FEF4DA"/>
<path d="M50.336 18.729C50.29 18.583 50.228 18.455 50.15 18.323C50.073 18.193 49.995 18.046 49.891 17.936C49.665 17.7 49.396 17.499 49.1 17.364C48.944 17.293 48.783 17.215 48.619 17.165C48.42 17.105 48.205 17.078 47.999 17.045C47.969 17.04 47.773 17.083 47.804 17.138C47.861 17.241 47.902 17.359 47.966 17.458C48.034 17.563 48.131 17.656 48.207 17.757C48.381 17.989 48.596 18.179 48.786 18.399C48.89 18.519 49.03 18.614 49.147 18.722C49.262 18.829 49.373 18.938 49.493 19.04C49.748 19.258 49.971 19.497 50.176 19.762C50.241 19.847 50.593 19.7299 50.571 19.6179C50.51 19.3189 50.428 19.021 50.336 18.729Z" fill="#FEF4DA"/>
<path d="M42.628 20.081C42.594 20.009 42.566 19.925 42.519 19.861C42.461 19.781 42.39 19.709 42.326 19.634C42.265 19.562 42.211 19.504 42.133 19.45L41.863 19.265C41.797 19.22 41.554 19.3021 41.558 19.3931C41.562 19.4911 41.566 19.5881 41.57 19.6861C41.574 19.7761 41.596 19.841 41.628 19.925C41.66 20.009 41.684 20.108 41.732 20.184C41.777 20.255 41.832 20.322 41.882 20.39C42.101 20.69 42.385 20.943 42.645 21.207C42.695 21.258 42.973 21.1591 42.95 21.0791C42.853 20.7441 42.778 20.397 42.628 20.081Z" fill="#FEF4DA"/>
<path d="M70.893 3.91397C69.435 4.47397 68.0189 5.24795 66.7349 6.13095C65.5799 6.92495 64.409 7.82696 63.647 9.01696C63.606 9.08096 63.783 9.01596 63.8 9.00396C65.071 8.09796 66.2989 7.13696 67.5729 6.23596C68.7009 5.43896 69.867 4.72595 71.047 4.01095C71.248 3.88995 71.002 3.87297 70.893 3.91397Z" fill="#FEF4DA"/>
<path d="M50.3129 37.901C49.6009 38.372 48.8859 38.837 48.1839 39.322C47.8519 39.552 47.5259 39.785 47.2079 40.034C47.0579 40.151 46.9179 40.27 46.7839 40.406C46.6849 40.505 46.6169 40.565 46.5949 40.703C46.5909 40.726 46.6429 40.71 46.6509 40.708C47.4289 40.418 48.1069 39.879 48.7529 39.366C49.3469 38.894 49.9259 38.403 50.5079 37.916C50.6219 37.82 50.3539 37.873 50.3129 37.901Z" fill="#FEF4DA"/>
<path d="M33.0299 53.67C32.1609 54.684 31.3479 55.727 30.6009 56.834C30.2649 57.332 29.9699 57.862 29.6749 58.385C29.4069 58.859 29.0409 59.335 29.1069 59.899C29.1099 59.924 29.1869 59.889 29.1959 59.881C29.4409 59.646 29.6889 59.416 29.8769 59.13C30.0569 58.854 30.2169 58.563 30.3919 58.282C30.7299 57.739 31.0909 57.211 31.4299 56.669C32.0719 55.64 32.7299 54.615 33.4159 53.614C33.5009 53.486 33.0919 53.597 33.0299 53.67Z" fill="#FEF4DA"/>
<path d="M82.14 81.667C81.55 81.88 80.97 82.143 80.459 82.509C80.232 82.671 80.033 82.851 79.839 83.051C79.753 83.139 79.693 83.228 79.638 83.338C79.596 83.421 79.591 83.472 79.607 83.563C79.623 83.656 79.892 83.533 79.926 83.515C80.428 83.236 80.869 82.8781 81.319 82.5231C81.64 82.2691 81.936 81.984 82.273 81.751C82.304 81.73 82.367 81.691 82.329 81.651C82.293 81.612 82.177 81.653 82.14 81.667Z" fill="#FEF4DA"/>
<path d="M41.24 72.074C41.218 71.944 41.101 71.856 41.005 71.773C40.974 71.747 40.887 71.793 40.872 71.821C40.788 71.976 40.683 72.114 40.605 72.271C40.541 72.4 40.463 72.521 40.398 72.65C40.283 72.879 40.126 73.074 39.987 73.288C39.873 73.463 39.756 73.634 39.645 73.811C39.597 73.887 39.546 73.96 39.491 74.03C39.433 74.104 39.36 74.17 39.309 74.249C39.236 74.364 39.511 74.282 39.543 74.267C39.815 74.139 40.067 73.951 40.302 73.767C40.533 73.586 40.745 73.38 40.911 73.136C41.049 72.934 41.151 72.687 41.223 72.455C41.264 72.327 41.263 72.207 41.24 72.074Z" fill="#FEF4DA"/>
<path d="M18.797 62.129L20.644 66.658C11.569 63.071 2.359 54.229 0 48.588H3.623C7.596 55.152 12.6 59.735 18.787 62.129H18.797Z" fill="url(#paint25_linear_17_119)"/>
<path d="M32.58 48.588C30.06 50.023 21.648 58.219 20.644 66.658L18.797 62.129C20.492 57.277 23.353 52.776 27.254 48.588H32.58Z" fill="url(#paint26_linear_17_119)"/>
<path d="M32.58 48.588H27.253C23.486 44.409 20.473 40.06 18.626 35.468L20.644 30.527C21.649 38.957 30.025 47.431 32.58 48.588Z" fill="url(#paint27_linear_17_119)"/>
<path d="M16.941 57.601L18.788 62.13C12.6 59.736 7.59602 55.153 3.62402 48.589H7.23802C9.24602 51.341 12.816 54.839 16.941 57.601Z" fill="url(#paint28_linear_17_119)"/>
<path d="M27.254 48.588H22.905C20.672 46.05 18.529 42.92 16.941 39.575L18.618 35.468H18.627C20.474 40.06 23.487 44.409 27.254 48.588Z" fill="url(#paint29_linear_17_119)"/>
<path d="M18.618 35.468L16.941 39.575C12.816 42.337 9.24702 45.834 7.23802 48.588H3.62402C7.39902 42.409 12.403 38.051 18.618 35.468Z" fill="url(#paint30_linear_17_119)"/>
<path d="M27.254 48.588C24.833 51.189 22.806 53.915 21.219 56.776C20.251 58.507 19.434 60.291 18.798 62.13H18.789L16.942 57.601C17.364 56.722 17.812 55.852 18.314 55.009V55C19.668 52.641 21.264 50.453 22.905 48.588H27.254Z" fill="url(#paint31_linear_17_119)"/>
<path d="M20.644 30.527L18.626 35.468H18.617C14.008 37.387 10.071 40.275 6.797 44.158C5.658 45.512 4.6 46.992 3.623 48.588H0C0.762 46.777 2.224 44.633 4.17 42.445C8.26 37.818 14.483 32.957 20.644 30.527Z" fill="url(#paint32_linear_17_119)"/>
<path d="M20.644 30.527L18.626 35.468H18.617C14.008 37.387 10.071 40.275 6.797 44.158C6.6 44.185 6.411 44.194 6.214 44.176C5.263 44.095 4.42901 43.351 4.16901 42.445C8.26001 37.818 14.483 32.957 20.644 30.527Z" fill="url(#paint33_linear_17_119)"/>
<path d="M27.254 48.588C24.833 51.189 22.806 53.915 21.219 56.776C20.672 56.955 20.107 56.982 19.587 56.749C18.914 56.444 18.502 55.736 18.314 55.009V55C19.668 52.641 21.264 50.453 22.905 48.588H27.254Z" fill="url(#paint34_linear_17_119)"/>
<path d="M16.739 32.976C14.873 33.785 13.185 34.917 11.601 36.187C10.008 37.464 8.437 38.86 7.019 40.329C6.984 40.365 7.12101 40.332 7.13801 40.319C8.82701 39.045 10.392 37.614 12.048 36.297C13.582 35.077 15.251 34.065 16.917 33.04C17.116 32.918 16.822 32.94 16.739 32.976Z" fill="#FEF4DA"/>
<path d="M23.008 49.572C22.926 49.587 22.842 49.6239 22.783 49.6839C22.45 50.0259 22.124 50.3699 21.808 50.7269C21.534 51.0359 21.301 51.376 21.058 51.708C20.827 52.023 20.614 52.3469 20.402 52.6749C20.304 52.8269 20.222 52.981 20.142 53.143C20.065 53.298 20.034 53.415 20.014 53.585C20.007 53.643 20.157 53.575 20.174 53.561C20.879 52.987 21.444 52.275 21.979 51.543C22.217 51.218 22.466 50.9009 22.665 50.5499C22.84 50.2409 22.996 49.931 23.145 49.609C23.174 49.547 23.024 49.569 23.008 49.572Z" fill="#FEF4DA"/>
<path d="M59.645 48.4L63.465 54.633C59.645 53.557 54.694 50.562 52.076 48.4H59.645Z" fill="url(#paint35_linear_17_119)"/>
<path d="M63.465 42.033V54.632L59.645 48.4L63.465 42.033Z" fill="url(#paint36_linear_17_119)"/>
<path d="M63.465 42.033L59.645 48.4H52.076C55.493 45.745 59.457 43.288 63.465 42.033Z" fill="url(#paint37_linear_17_119)"/>
<path d="M59.562 44.463C59.124 44.494 58.432 44.668 58.347 44.697C57.313 45.055 56.464 45.748 55.68 46.492C55.587 46.581 55.618 46.664 55.713 46.715C56.102 46.923 57.151 46.574 57.559 46.472C58.698 46.188 59.474 45.681 59.914 44.58C59.958 44.471 59.797 44.447 59.562 44.463Z" fill="#FEF4DA"/>
<path d="M16.178 54.471L16.94 57.601C13.021 55.35 9.837 52.274 7.237 48.588L9.999 48.552C11.829 50.902 13.901 52.883 16.178 54.471Z" fill="url(#paint38_linear_17_119)"/>
<path d="M16.959 39.611C18.708 42.857 20.716 45.844 22.905 48.588L20.098 48.624C18.654 46.714 17.336 44.75 16.152 42.741C16.143 42.741 16.143 42.75 16.134 42.75L16.125 42.732L16.959 39.611Z" fill="url(#paint39_linear_17_119)"/>
<path d="M22.904 48.588C20.635 51.637 18.608 54.641 16.94 57.601L16.178 54.471C17.308 52.624 18.599 50.687 20.097 48.624L22.904 48.588Z" fill="url(#paint40_linear_17_119)"/>
<path d="M16.125 42.732L16.134 42.75C14.825 43.656 13.632 44.633 12.547 45.691C11.614 46.588 10.762 47.547 9.99998 48.552L7.23798 48.588C8.08998 47.288 9.04998 46.086 10.099 44.983C12.09 42.858 14.404 41.073 16.941 39.575C16.95 39.584 16.95 39.602 16.959 39.611L16.125 42.732Z" fill="url(#paint41_linear_17_119)"/>
<path d="M20.097 48.624C18.599 50.687 17.308 52.624 16.178 54.471C13.9 52.884 11.829 50.902 9.99902 48.552C10.026 48.525 10.044 48.489 10.071 48.462C11.703 46.328 13.73 44.409 16.133 42.75C16.142 42.75 16.142 42.741 16.151 42.741C17.138 44.409 18.214 46.05 19.379 47.646C19.613 47.978 19.855 48.301 20.097 48.624Z" fill="url(#paint42_linear_17_119)"/>
<path d="M7.52899 48.582L9.95099 48.455C11.868 46.203 13.908 44.176 16.029 42.584L16.924 39.766C16.924 39.766 16.25 42.438 16.292 42.768C16.314 42.945 19.884 48.282 20.137 48.509L21.322 48.614L20.088 48.612C18.586 46.579 17.33 44.692 16.15 42.859C13.976 44.25 11.85 46.156 10.072 48.57L7.52899 48.582Z" fill="#DA9BFA"/>
<path d="M9.95001 48.594C11.778 50.938 13.821 52.867 16.068 54.517L16.615 56.433L16.178 54.471C13.876 52.772 11.756 50.861 10.032 48.484L9.95001 48.594Z" fill="#DA9BFA"/>
<path d="M16.114 54.449C17.516 52.295 18.855 50.31 20.089 48.613L20.229 48.551C18.877 50.326 17.521 52.382 16.161 54.653L16.114 54.449Z" fill="#DA9BFA"/>
<path d="M16.125 42.732L16.134 42.75C14.825 43.656 13.632 44.633 12.547 45.691C12.242 45.852 11.928 46.014 11.614 46.166C11.219 46.363 10.753 46.561 10.359 46.372C9.82999 46.121 9.83899 45.583 10.099 44.982C12.09 42.857 14.404 41.072 16.941 39.574C16.95 39.583 16.95 39.601 16.959 39.61L16.125 42.732Z" fill="url(#paint43_linear_17_119)"/>
<path d="M19.38 47.6459C18.69 48.1029 17.954 48.4799 17.192 48.8029C15.829 49.3769 14.34 49.7629 12.861 49.6099C11.937 49.5109 11.014 49.1879 10.26 48.6239C10.188 48.5699 10.126 48.5249 10.072 48.4629C11.704 46.3289 13.731 44.4099 16.134 42.7509C16.143 42.7509 16.143 42.7419 16.152 42.7419C17.138 44.4089 18.214 46.0499 19.38 47.6459Z" fill="url(#paint44_linear_17_119)"/>
<path d="M11.692 45.0389C11.634 44.9829 11.535 44.9719 11.449 44.9749C10.761 44.9989 10.16 45.4039 9.75698 45.9429C9.23498 46.6419 9.63899 46.7309 10.318 46.4799C10.931 46.2529 11.464 45.9339 11.706 45.2949C11.732 45.2249 11.754 45.1449 11.721 45.0789C11.714 45.0639 11.704 45.0509 11.692 45.0389Z" fill="white"/>
<path d="M442.177 77.312C439.935 79.294 435.092 78.989 433.29 76.343C429.846 83.849 424.403 84.584 415.355 83.553C412.503 83.23 409.822 85.508 409.167 87.58C406.674 84.522 407.732 81.213 410.817 80.056C407.84 77.85 406.889 74.397 407.768 70.981C408.369 68.649 409.813 66.318 412.046 64.417C412.046 65.852 412.261 67.251 412.665 68.416C413.14 69.797 413.911 70.864 414.952 71.304C414.979 71.322 415.015 71.34 415.042 71.349C414.746 68.479 416.853 65.17 420.342 64.543C419.436 66.077 418.961 67.682 418.961 69.251C418.961 69.735 419.006 70.202 419.096 70.668C420.19 76.345 426.835 76.909 428.1 71.412C429.49 65.395 422.047 56.257 412.577 48.401C407.42 44.123 401.654 40.222 396.39 37.415C397.152 35.469 397.645 33.532 397.905 31.622C399.34 21.201 393.735 11.785 384.893 8.17096C384.669 8.08096 384.454 7.99195 384.229 7.91095C384.032 10.7359 379.646 15.946 374.867 15.946H185.884V10.323H373.879C377.107 10.323 380.865 5.38198 380.452 0.000976562C397.697 4.43098 406.871 16 404.351 34.1049C411.283 37.9609 418.098 43.431 423.623 49.323C429.739 55.843 434.268 62.882 435.622 68.801C435.783 69.527 435.909 70.245 435.972 70.935C436.178 73.034 438.743 76.433 442.177 77.312Z" fill="url(#paint45_linear_17_119)"/>
<path d="M420.341 64.542C419.435 66.076 418.96 67.681 418.96 69.25C418.888 69.384 418.808 69.528 418.727 69.663C418.126 70.73 417.516 71.788 416.907 72.847C416.746 73.134 416.548 73.439 416.225 73.493C415.445 73.61 415.086 72.551 414.952 71.305C414.979 71.323 415.015 71.341 415.042 71.35C414.745 68.478 416.852 65.169 420.341 64.542Z" fill="url(#paint46_linear_17_119)"/>
<path d="M412.664 68.416C412.171 70.47 411.677 72.523 411.184 74.577C411.041 75.178 410.816 75.859 410.242 76.066C409.551 76.308 408.861 75.689 408.493 75.053C407.767 73.824 407.596 72.416 407.767 70.982C408.368 68.65 409.812 66.319 412.045 64.418C412.046 65.851 412.261 67.25 412.664 68.416Z" fill="url(#paint47_linear_17_119)"/>
<path d="M380.454 0.000976562L382.561 3.97397L384.893 8.17096C393.735 11.785 399.34 21.201 397.905 31.622L400.21 35.765L404.353 34.106C404.945 29.864 404.891 25.981 404.236 22.466C404.2 22.251 404.164 22.036 404.119 21.811C404.047 21.47 403.967 21.138 403.895 20.807C403.877 20.735 403.859 20.663 403.841 20.592C403.742 20.206 403.635 19.83 403.527 19.453C403.527 19.444 403.518 19.426 403.509 19.408C401.186 11.758 395.734 6.09097 387.735 2.51297H387.726C385.494 1.50697 383.064 0.672977 380.454 0.000976562Z" fill="url(#paint48_linear_17_119)"/>
<path d="M386.606 5.47995C387.27 6.14395 388.211 6.42197 389.081 6.77097C392.605 8.19697 395.376 11.102 397.278 14.393C398.471 16.447 399.359 18.671 400.085 20.931C400.524 22.312 400.74 25.54 402.497 25.971C404.317 26.419 404.578 24.68 404.237 22.465C404.201 22.25 404.165 22.035 404.12 21.81C404.048 21.469 403.968 21.137 403.896 20.806C403.878 20.734 403.86 20.662 403.842 20.591C403.743 20.205 403.636 19.829 403.528 19.452C403.528 19.443 403.519 19.425 403.51 19.407C401.187 11.757 395.735 6.08996 387.736 2.51196H387.727C387.234 2.51196 386.794 2.64697 386.418 2.97797C385.718 3.60597 385.942 4.81595 386.606 5.47995Z" fill="url(#paint49_linear_17_119)"/>
<path d="M442.177 19.488C438.742 20.367 436.178 23.766 435.971 25.864C434.868 37.253 419.901 54.041 404.351 62.695C406.871 80.801 397.697 92.3689 380.452 96.799C380.864 91.418 377.107 86.477 373.879 86.477H185.884V80.854H374.865C379.645 80.854 384.03 86.073 384.227 88.889C384.29 88.862 384.353 88.844 384.415 88.817C395.167 84.728 401.355 72.146 396.387 59.385C403.525 55.583 411.587 49.763 417.811 43.709C424.6 37.109 429.218 30.23 428.097 25.388C426.833 19.891 420.188 20.456 419.093 26.141C418.716 28.105 419.138 30.185 420.277 32.149C420.295 32.185 420.322 32.221 420.34 32.257C416.852 31.629 414.744 28.32 415.04 25.451C413.067 26.213 412.045 29.2 412.045 32.383C409.104 29.881 407.525 26.644 407.462 23.604V23.595C407.399 20.949 408.484 18.465 410.816 16.744C410.708 16.708 410.61 16.663 410.511 16.618C407.668 15.363 406.754 12.179 409.166 9.21997C409.821 11.292 412.502 13.569 415.354 13.246C416.412 13.12 417.426 13.031 418.385 12.968C425.64 12.484 430.24 13.829 433.28 20.429C433.289 20.447 433.289 20.456 433.289 20.456C433.289 20.456 433.289 20.447 433.298 20.447C435.102 17.811 439.935 17.506 442.177 19.488Z" fill="url(#paint50_linear_17_119)"/>
<path d="M415.023 24.909C415.029 25.423 415.18 26.059 415.681 26.173C416.149 26.28 416.549 25.845 416.832 25.457C418.285 23.469 419.785 21.506 421.196 19.488C421.932 18.435 421.97 16.787 420.269 16.972C416.97 17.332 414.989 22.146 415.023 24.909Z" fill="url(#paint51_linear_17_119)"/>
<path d="M417.588 17.631C417.471 17.882 417.256 18.079 417.059 18.268C415.032 20.142 413.015 22.025 410.997 23.9C410.495 24.357 409.939 24.851 409.266 24.886C408.477 24.931 407.831 24.339 407.463 23.604V23.595C407.4 20.949 408.485 18.465 410.817 16.744C410.709 16.708 410.611 16.663 410.512 16.618C411.238 16.223 412.037 15.945 412.826 15.82C413.803 15.668 415.525 15.497 416.449 15.748C417.265 15.954 417.937 16.878 417.588 17.631Z" fill="url(#paint52_linear_17_119)"/>
<path d="M433.292 20.4559L434.072 23.048C435.274 19.891 437.856 18.555 442.179 19.488C439.937 17.506 435.095 17.8109 433.292 20.4559Z" fill="url(#paint53_linear_17_119)"/>
<path d="M417.814 43.71L417.742 48.197C421.966 44.637 426.082 40.025 428.996 35.317C431.552 31.183 432.305 26.726 430.494 22.045C428.683 17.391 423.185 16.368 419.571 19.722C415.876 23.157 416.522 29.201 420.28 32.151C419.141 30.187 418.72 28.107 419.096 26.143C420.19 20.457 426.835 19.893 428.1 25.39C429.221 30.231 424.602 37.109 417.814 43.71Z" fill="url(#paint54_linear_17_119)"/>
<path d="M412.047 32.383C412.047 29.199 413.069 26.213 415.042 25.451C414.961 22.94 416.011 20.635 417.741 18.169C417.741 18.169 412.468 19.245 411.401 22.662C410.335 26.079 412.047 32.383 412.047 32.383Z" fill="url(#paint55_linear_17_119)"/>
<path d="M410.819 16.744C411.815 16.045 413.411 15.729 415.24 15.56C415.24 15.56 411.59 15.381 410.514 14.645C408.469 13.246 409.169 9.21997 409.169 9.21997C406.676 12.278 407.734 15.587 410.819 16.744Z" fill="url(#paint56_linear_17_119)"/>
<path d="M433.292 76.317L434.072 73.725C435.274 76.882 437.856 78.218 442.179 77.285C439.937 79.268 435.095 78.963 433.292 76.317Z" fill="url(#paint57_linear_17_119)"/>
<path d="M430.492 74.729C429.9 76.245 428.923 77.374 427.748 78.083C425.309 79.59 422.009 79.312 419.569 77.052C418.663 76.209 418.018 75.205 417.614 74.137C416.457 71.052 417.318 67.366 419.748 65.08C419.918 64.919 420.098 64.766 420.277 64.623C420.223 64.722 420.16 64.82 420.116 64.919C419.103 66.793 418.735 68.766 419.094 70.631C419.578 73.115 421.112 74.622 422.798 75.07C423.237 75.187 423.695 75.231 424.143 75.195C425.892 75.087 427.533 73.841 428.098 71.384C428.842 68.156 427.04 64.021 423.74 59.663C422.099 57.493 420.072 55.26 417.812 53.063L417.74 48.193C420.412 50.444 423.04 53.269 425.345 56.237C426.69 57.959 427.919 59.734 428.995 61.456C431.551 65.591 432.304 70.048 430.492 74.729Z" fill="url(#paint58_linear_17_119)"/>
<path d="M412.047 64.39C412.047 67.574 413.069 70.56 415.042 71.322C414.961 73.833 416.011 76.138 417.741 78.604C417.741 78.604 412.468 77.528 411.401 74.111C410.335 70.695 412.047 64.39 412.047 64.39Z" fill="url(#paint59_linear_17_119)"/>
<path d="M410.819 80.03C411.815 80.729 413.411 81.045 415.24 81.214C415.24 81.214 411.59 81.393 410.514 82.129C408.469 83.528 409.169 87.554 409.169 87.554C406.676 84.496 407.734 81.187 410.819 80.03Z" fill="url(#paint60_linear_17_119)"/>
<path d="M396.39 37.414C401.654 40.221 407.42 44.122 412.577 48.4L417.742 48.196C412.146 43.022 406.326 38.661 400.21 35.764L396.39 37.414Z" fill="url(#paint61_linear_17_119)"/>
<path d="M382.561 3.97302C381.906 8.55602 378.113 12.977 374.741 12.977H185.885V15.945H374.867C379.647 15.945 384.032 10.735 384.229 7.91003L382.561 3.97302Z" fill="url(#paint62_linear_17_119)"/>
<path d="M384.23 7.91003C395.099 11.927 401.385 24.581 396.39 37.414L400.21 35.764C403.672 17.407 395.394 7.67702 382.562 3.97302L384.23 7.91003Z" fill="url(#paint63_linear_17_119)"/>
<path d="M404.353 62.694L400.394 60.629C406.562 57.429 412.549 53.593 417.742 48.195L417.814 53.063C413.524 56.893 409.021 60.053 404.353 62.694Z" fill="url(#paint64_linear_17_119)"/>
<path d="M399.168 79.867C399.159 79.867 399.159 79.876 399.159 79.876C399.015 80.172 398.863 80.45 398.702 80.728C392.756 90.736 383.69 92.216 383.69 92.216L384.228 88.889C387.16 87.804 389.752 86.1 391.878 83.921C397.671 78.038 400.039 68.757 396.389 59.385L400.398 60.631C400.396 60.632 402.997 72.236 399.168 79.867Z" fill="url(#paint65_linear_17_119)"/>
<path d="M185.885 80.854V83.795H375.028C376.059 83.965 377.001 84.306 377.862 84.79C380.355 86.162 382.238 88.763 383.691 92.215C383.691 92.215 384.068 90.439 384.417 88.816C384.354 88.843 384.292 88.861 384.229 88.888C384.139 87.65 383.243 85.947 381.87 84.431C380.103 82.494 377.548 80.853 374.866 80.853H185.885V80.854Z" fill="url(#paint66_linear_17_119)"/>
<path d="M417.814 43.71L417.742 48.197C412.663 43.358 406.927 39.116 400.21 35.765L404.353 34.106C409.293 36.879 413.735 40.124 417.814 43.71Z" fill="url(#paint67_linear_17_119)"/>
<path d="M185.885 10.323V12.977H374.742C378.384 12.977 381.297 9.53299 382.562 3.97299L380.455 0C380.868 5.381 377.11 10.322 373.882 10.322H185.885V10.323Z" fill="url(#paint68_linear_17_119)"/>
<path d="M417.742 48.196L422.739 48.4L420.793 50.998L417.742 48.196Z" fill="url(#paint69_linear_17_119)"/>
<path d="M410.112 11.581C410.142 11.528 410.255 11.554 410.298 11.566C410.382 11.589 410.471 11.625 410.531 11.69C410.593 11.759 410.642 11.835 410.697 11.909C410.722 11.943 410.748 11.977 410.776 12.009C410.746 11.975 410.795 12.026 410.802 12.032C410.832 12.059 410.861 12.087 410.887 12.118C410.943 12.182 410.999 12.244 411.058 12.306C411.073 12.32 411.088 12.334 411.103 12.347C411.136 12.377 411.17 12.404 411.203 12.433C411.244 12.468 411.28 12.508 411.318 12.547C411.329 12.558 411.34 12.568 411.352 12.578C411.421 12.64 411.489 12.699 411.549 12.769C411.554 12.775 411.569 12.791 411.58 12.802C411.59 12.811 411.601 12.822 411.606 12.826C411.648 12.864 411.675 12.904 411.711 12.946C411.767 13.01 411.688 13.038 411.634 13.037C411.417 13.032 411.218 12.955 411.021 12.871C410.829 12.789 410.647 12.686 410.489 12.549C410.422 12.491 410.348 12.43 410.293 12.361C410.248 12.305 410.215 12.236 410.183 12.172C410.134 12.075 410.071 11.956 410.103 11.848L410.104 11.886C410.096 11.79 410.064 11.667 410.112 11.581Z" fill="#FEF4DA"/>
<path d="M409.519 18.729C409.565 18.583 409.627 18.455 409.705 18.323C409.782 18.193 409.86 18.046 409.964 17.936C410.189 17.7 410.459 17.499 410.755 17.364C410.911 17.293 411.072 17.215 411.236 17.165C411.435 17.105 411.651 17.078 411.856 17.045C411.886 17.04 412.082 17.083 412.051 17.138C411.994 17.241 411.953 17.359 411.89 17.458C411.822 17.563 411.725 17.656 411.649 17.757C411.475 17.989 411.26 18.179 411.07 18.399C410.966 18.519 410.826 18.614 410.709 18.722C410.594 18.829 410.483 18.938 410.363 19.04C410.108 19.258 409.885 19.497 409.68 19.762C409.615 19.847 409.263 19.7299 409.285 19.6179C409.345 19.3189 409.427 19.021 409.519 18.729Z" fill="#FEF4DA"/>
<path d="M417.227 20.081C417.261 20.009 417.289 19.925 417.336 19.861C417.394 19.781 417.465 19.709 417.529 19.634C417.59 19.562 417.644 19.504 417.722 19.45L417.993 19.265C418.059 19.22 418.302 19.3021 418.298 19.3931C418.294 19.4911 418.29 19.5881 418.286 19.6861C418.282 19.7761 418.26 19.841 418.228 19.925C418.196 20.009 418.172 20.108 418.124 20.184C418.079 20.255 418.024 20.322 417.974 20.39C417.755 20.69 417.471 20.943 417.211 21.207C417.161 21.258 416.883 21.1591 416.906 21.0791C417.002 20.7441 417.077 20.397 417.227 20.081Z" fill="#FEF4DA"/>
<path d="M388.962 3.91397C390.419 4.47397 391.836 5.24795 393.12 6.13095C394.275 6.92495 395.445 7.82696 396.208 9.01696C396.249 9.08096 396.072 9.01596 396.055 9.00396C394.784 8.09796 393.556 7.13696 392.282 6.23596C391.154 5.43896 389.987 4.72595 388.808 4.01095C388.607 3.88995 388.854 3.87297 388.962 3.91397Z" fill="#FEF4DA"/>
<path d="M399.168 79.867C399.159 79.867 399.159 79.876 399.159 79.876C397.724 81.957 395.895 83.732 393.68 85.032C393.187 85.328 392.505 85.579 392.066 85.202C391.806 84.969 391.752 84.619 391.806 84.26C391.824 84.143 391.851 84.036 391.878 83.919C397.671 78.036 400.039 68.755 396.389 59.383L400.398 60.629C400.396 60.632 402.997 72.236 399.168 79.867Z" fill="url(#paint70_linear_17_119)"/>
<path d="M397.108 77.477C396.22 79.209 395.103 80.769 393.953 82.332C392.959 83.684 391.776 84.887 390.802 86.246C390.761 86.304 390.923 86.255 390.939 86.244C392.587 85.165 393.938 83.754 395.094 82.162C396.136 80.727 396.857 79.054 397.443 77.389C397.47 77.313 397.148 77.399 397.108 77.477Z" fill="#FEF4DA"/>
<path d="M430.492 74.729C429.9 76.245 428.923 77.374 427.748 78.083C427.721 78.092 427.694 78.101 427.667 78.11C426.277 78.469 424.465 78.011 424.08 76.621C423.919 76.065 423.972 75.599 424.143 75.195C425.892 75.087 427.533 73.841 428.098 71.384C428.842 68.156 427.04 64.021 423.74 59.663C423.713 59.286 423.713 58.91 423.767 58.533C423.857 57.842 424.108 57.152 424.61 56.668C424.816 56.471 425.076 56.327 425.345 56.238C426.69 57.96 427.919 59.735 428.995 61.457C431.551 65.591 432.304 70.048 430.492 74.729Z" fill="url(#paint71_linear_17_119)"/>
<path d="M429.574 69.85C429.56 69.765 429.278 69.891 429.258 69.948C429.044 70.555 428.765 71.137 428.544 71.741C428.344 72.285 428.08 72.804 427.754 73.284C427.123 74.212 426.322 75.022 425.352 75.594C425.207 75.68 425.421 75.666 425.481 75.64C426.68 75.127 427.759 74.295 428.523 73.232C428.89 72.722 429.198 72.166 429.432 71.583C429.664 71.004 429.673 70.461 429.574 69.85Z" fill="#FEF4DA"/>
<path d="M424.606 13.817C423.249 13.422 421.791 13.254 420.405 13.609C420.396 13.611 420.299 13.65 420.331 13.67C420.532 13.795 420.774 13.84 421.006 13.859C421.354 13.887 421.701 13.913 422.049 13.936C422.807 13.985 423.567 13.984 424.326 14.014C424.393 14.016 424.755 13.86 424.606 13.817Z" fill="#FEF4DA"/>
<path d="M417.74 48.193C413.983 51.807 410.073 54.955 405.965 57.537C404.154 58.685 402.297 59.716 400.396 60.631L396.387 59.385C399.463 57.69 402.404 55.914 405.184 54.031C407.812 52.264 410.296 50.381 412.573 48.399L417.74 48.193Z" fill="url(#paint72_linear_17_119)"/>
<path d="M417.74 48.193C417.212 48.214 415.712 50.087 415.273 50.478C414.407 51.249 413.525 52.002 412.626 52.734C411.628 53.547 410.417 54.216 409.264 54.811C408.066 55.43 404.125 57.16 405.122 54.192C405.14 54.138 405.158 54.084 405.185 54.031C407.813 52.264 410.297 50.381 412.574 48.399C412.574 48.399 417.738 48.193 417.74 48.193Z" fill="url(#paint73_linear_17_119)"/>
<path d="M409.301 51.176C408.303 52.066 407.257 52.921 406.199 53.737C405.727 54.101 405.249 54.463 404.761 54.805C404.505 54.985 404.237 55.149 403.983 55.331C403.825 55.445 403.59 55.559 403.513 55.75C403.491 55.805 403.625 55.778 403.636 55.775C403.421 55.82 403.668 55.77 403.714 55.758C403.866 55.721 404.01 55.66 404.151 55.594C404.475 55.442 404.785 55.268 405.093 55.085C405.716 54.714 406.326 54.321 406.903 53.881C407.95 53.083 408.853 52.2 409.642 51.145C409.733 51.023 409.347 51.134 409.301 51.176Z" fill="#FEF4DA"/>
<path d="M441.058 62.129L439.211 66.658C448.286 63.071 457.496 54.229 459.855 48.588H456.232C452.259 55.152 447.255 59.735 441.067 62.129H441.058Z" fill="url(#paint74_linear_17_119)"/>
<path d="M427.275 48.588C429.795 50.023 438.207 58.219 439.211 66.658L441.058 62.129C439.363 57.277 436.502 52.776 432.601 48.588H427.275Z" fill="url(#paint75_linear_17_119)"/>
<path d="M441.227 35.468C439.972 38.589 438.169 41.602 435.972 44.525C434.932 45.897 433.802 47.251 432.6 48.587H427.273C428.439 48.058 430.806 46.022 433.129 43.153C435.927 39.727 438.662 35.118 439.209 30.526L441.227 35.468Z" fill="url(#paint76_linear_17_119)"/>
<path d="M456.23 48.588C454.042 52.211 451.531 55.224 448.688 57.601C446.383 59.538 443.845 61.063 441.065 62.13L442.912 57.601C444.087 56.812 445.217 55.969 446.275 55.099C448.938 52.911 451.18 50.561 452.615 48.588H456.23Z" fill="url(#paint77_linear_17_119)"/>
<path d="M432.602 48.588H436.951C439.184 46.05 441.327 42.92 442.915 39.575L441.238 35.468H441.229C439.381 40.06 436.368 44.409 432.602 48.588Z" fill="url(#paint78_linear_17_119)"/>
<path d="M441.237 35.468L442.914 39.575C447.039 42.337 450.608 45.834 452.617 48.588H456.231C452.456 42.409 447.452 38.051 441.237 35.468Z" fill="url(#paint79_linear_17_119)"/>
<path d="M432.602 48.588C435.023 51.189 437.05 53.915 438.637 56.776C439.606 58.507 440.421 60.291 441.058 62.13H441.067L442.914 57.601C442.492 56.722 442.044 55.852 441.542 55.009V55C440.188 52.641 438.592 50.453 436.951 48.588H432.602Z" fill="url(#paint80_linear_17_119)"/>
<path d="M439.211 30.527L441.229 35.468H441.238C445.847 37.387 449.784 40.275 453.057 44.158C454.196 45.512 455.254 46.992 456.232 48.588H459.855C459.093 46.777 457.631 44.633 455.685 42.445C451.595 37.818 445.372 32.957 439.211 30.527Z" fill="url(#paint81_linear_17_119)"/>
<path d="M441.227 35.468C439.972 38.589 438.169 41.602 435.972 44.525C435.864 44.543 435.757 44.552 435.649 44.561C434.609 44.651 433.434 44.113 433.129 43.153C435.927 39.727 438.662 35.118 439.209 30.526L441.227 35.468Z" fill="url(#paint82_linear_17_119)"/>
<path d="M456.23 48.588C454.042 52.211 451.531 55.224 448.688 57.601C448.078 57.825 447.415 57.942 446.868 57.637C446.285 57.305 446.025 56.57 446.088 55.897C446.115 55.628 446.178 55.359 446.276 55.099C448.939 52.911 451.181 50.561 452.616 48.588H456.23Z" fill="url(#paint83_linear_17_119)"/>
<path d="M437.93 36.305C436.383 38.75 435.365 41.524 433.449 43.731C433.396 43.792 433.609 43.739 433.636 43.715C435.847 41.814 437.565 39.0739 438.272 36.2349C438.298 36.1329 437.964 36.252 437.93 36.305Z" fill="#FEF4DA"/>
<path d="M452.415 50.014C451.261 51.198 450.193 52.464 448.986 53.599C448.442 54.11 447.897 54.617 447.32 55.091C446.821 55.501 446.296 55.902 445.9 56.416C445.896 56.421 445.91 56.418 445.91 56.418C447.454 55.786 448.833 54.699 450.028 53.547C450.606 52.991 451.164 52.418 451.659 51.787C452.1 51.225 452.569 50.584 452.851 49.925C452.905 49.801 452.458 49.969 452.415 50.014Z" fill="#FEF4DA"/>
<path d="M400.21 48.4L396.39 54.633C400.21 53.557 405.161 50.562 407.779 48.4H400.21Z" fill="url(#paint84_linear_17_119)"/>
<path d="M396.39 42.033V54.632L400.21 48.4L396.39 42.033Z" fill="url(#paint85_linear_17_119)"/>
<path d="M396.39 42.033L400.21 48.4H407.779C404.362 45.745 400.398 43.288 396.39 42.033Z" fill="url(#paint86_linear_17_119)"/>
<path d="M398.156 43.5019C398.622 44.5589 399.256 44.9999 400.125 45.1919C400.436 45.2609 401.249 45.5249 401.506 45.2879C401.569 45.2299 401.581 45.1449 401.501 45.0649C400.831 44.3899 400.119 43.7689 399.317 43.4959C399.251 43.4739 398.722 43.3559 398.398 43.3589C398.225 43.3599 398.11 43.3969 398.156 43.5019Z" fill="#FEF4DA"/>
<path d="M443.677 54.471L442.915 57.601C446.834 55.35 450.017 52.274 452.618 48.588L449.856 48.552C448.026 50.902 445.955 52.883 443.677 54.471Z" fill="url(#paint87_linear_17_119)"/>
<path d="M443.729 42.7319L443.72 42.7499C443.711 42.7499 443.711 42.7409 443.702 42.7409C442.985 43.9609 442.222 45.1619 441.397 46.3369C440.877 47.1079 440.321 47.8709 439.756 48.6239L436.949 48.5879C437.774 47.5569 438.563 46.4989 439.334 45.3959C440.607 43.5669 441.8 41.6379 442.894 39.6119L443.729 42.7319Z" fill="url(#paint88_linear_17_119)"/>
<path d="M436.951 48.588C439.22 51.637 441.247 54.641 442.915 57.601L443.677 54.471C442.547 52.624 441.256 50.687 439.758 48.624L436.951 48.588Z" fill="url(#paint89_linear_17_119)"/>
<path d="M443.73 42.732L443.721 42.75C445.03 43.656 446.223 44.633 447.308 45.691C448.241 46.588 449.092 47.547 449.855 48.552L452.617 48.588C451.765 47.288 450.806 46.086 449.756 44.983C447.765 42.858 445.451 41.073 442.914 39.575C442.905 39.584 442.905 39.602 442.896 39.611L443.73 42.732Z" fill="url(#paint90_linear_17_119)"/>
<path d="M439.758 48.624C441.256 50.687 442.547 52.624 443.677 54.471C445.955 52.884 448.026 50.902 449.856 48.552C449.829 48.525 449.811 48.489 449.784 48.462C448.152 46.328 446.125 44.409 443.722 42.75C443.713 42.75 443.713 42.741 443.704 42.741C442.718 44.409 441.641 46.05 440.476 47.646C440.242 47.978 440 48.301 439.758 48.624Z" fill="url(#paint91_linear_17_119)"/>
<path d="M452.326 48.582L449.904 48.455C447.987 46.203 445.947 44.176 443.826 42.584L442.931 39.766C442.931 39.766 443.604 42.438 443.563 42.768C443.541 42.945 439.971 48.282 439.718 48.509L438.533 48.614L439.767 48.612C441.269 46.579 442.525 44.692 443.704 42.859C445.878 44.25 448.004 46.156 449.782 48.57L452.326 48.582Z" fill="#DA9BFA"/>
<path d="M449.905 48.594C448.077 50.938 446.034 52.867 443.787 54.517L443.24 56.433L443.677 54.471C445.979 52.772 448.099 50.861 449.823 48.484L449.905 48.594Z" fill="#DA9BFA"/>
<path d="M443.742 54.449C442.34 52.295 441 50.31 439.767 48.613L439.627 48.551C440.979 50.326 442.335 52.382 443.695 54.653L443.742 54.449Z" fill="#DA9BFA"/>
<path d="M440.475 47.6459C441.166 48.1029 441.901 48.4799 442.663 48.8029C444.026 49.3769 445.515 49.7629 446.994 49.6099C447.918 49.5109 448.841 49.1879 449.595 48.6239C449.667 48.5699 449.73 48.5249 449.783 48.4629C448.151 46.3289 446.124 44.4099 443.721 42.7509C443.712 42.7509 443.712 42.7419 443.703 42.7419C442.717 44.4089 441.641 46.0499 440.475 47.6459Z" fill="url(#paint92_linear_17_119)"/>
<path d="M441.153 43.345C440.795 43.919 440.429 44.48 440.025 45.024C439.971 45.099 439.916 45.2 439.967 45.277C440.03 45.373 440.178 45.3279 440.277 45.2689C440.83 44.9409 441.312 44.493 441.685 43.969C441.835 43.758 441.932 43.5939 441.948 43.3379C441.961 43.1359 441.923 42.6669 441.597 42.7649C441.499 42.7939 441.436 42.8889 441.382 42.9759C441.305 43.0989 441.229 43.223 441.153 43.345Z" fill="white"/>
<path d="M443.729 42.7319L443.72 42.7499C443.711 42.7499 443.711 42.7409 443.702 42.7409C442.985 43.9609 442.222 45.1619 441.397 46.3369C441.254 46.4359 441.101 46.5069 440.94 46.5609C440.563 46.6869 440.115 46.6689 439.783 46.4359C439.397 46.1669 439.29 45.7809 439.335 45.3959C440.608 43.5669 441.801 41.6379 442.895 39.6119L443.729 42.7319Z" fill="url(#paint93_linear_17_119)"/>
<path d="M344.109 11.055C344.109 11.26 217.803 11.426 170.655 11.426C123.507 11.426 85.286 11.26 85.286 11.055C85.286 10.85 123.507 10.684 170.655 10.684C217.803 10.684 344.109 10.85 344.109 11.055Z" fill="#FEF4DA"/>
<path d="M375.427 81.564C375.427 81.769 249.121 81.935 201.973 81.935C154.825 81.935 116.604 81.769 116.604 81.564C116.604 81.359 154.825 81.193 201.973 81.193C249.121 81.193 375.427 81.358 375.427 81.564Z" fill="#FEF4DA"/>
<defs>
<linearGradient id="paint0_linear_17_119" x1="88.7259" y1="20.1946" x2="108.591" y2="56.1418" gradientUnits="userSpaceOnUse">
<stop stop-color="#FFC117"/>
<stop offset="0.2172" stop-color="#F6B01A"/>
<stop offset="0.6463" stop-color="#E08322"/>
<stop offset="1" stop-color="#CC5A29"/>
</linearGradient>
<linearGradient id="paint1_linear_17_119" x1="67.3064" y1="23.8353" x2="67.4361" y2="44.3271" gradientUnits="userSpaceOnUse">
<stop stop-color="#FFC117"/>
<stop offset="0.2172" stop-color="#F6B01A"/>
<stop offset="0.6463" stop-color="#E08322"/>
<stop offset="1" stop-color="#CC5A29"/>
</linearGradient>
<linearGradient id="paint2_linear_17_119" x1="36.3301" y1="31.1737" x2="73.4735" y2="8.88768" gradientUnits="userSpaceOnUse">
<stop stop-color="#F5F2D5"/>
<stop offset="1"/>
</linearGradient>
<linearGradient id="paint3_linear_17_119" x1="101.78" y1="1.06251" x2="101.78" y2="98.1018" gradientUnits="userSpaceOnUse">
<stop stop-color="#FFC117"/>
<stop offset="0.2172" stop-color="#F6B01A"/>
<stop offset="0.6463" stop-color="#E08322"/>
<stop offset="1" stop-color="#CC5A29"/>
</linearGradient>
<linearGradient id="paint4_linear_17_119" x1="16.3951" y1="28.4319" x2="40.1974" y2="14.1504" gradientUnits="userSpaceOnUse">
<stop stop-color="#F5F2D5"/>
<stop offset="1"/>
</linearGradient>
<linearGradient id="paint5_linear_17_119" x1="20.9034" y1="18.4907" x2="26.8229" y2="25.6317" gradientUnits="userSpaceOnUse">
<stop stop-color="#FFC117"/>
<stop offset="0.2172" stop-color="#F6B01A"/>
<stop offset="0.6463" stop-color="#E08322"/>
<stop offset="1" stop-color="#CC5A29"/>
</linearGradient>
<linearGradient id="paint6_linear_17_119" x1="22.8729" y1="5.60047" x2="58.3738" y2="66.0031" gradientUnits="userSpaceOnUse">
<stop stop-color="#730B63"/>
<stop offset="1" stop-color="#FFC117"/>
</linearGradient>
<linearGradient id="paint7_linear_17_119" x1="32.2144" y1="0.335218" x2="67.2834" y2="60.0032" gradientUnits="userSpaceOnUse">
<stop stop-color="#730B63"/>
<stop offset="1" stop-color="#FFC117"/>
</linearGradient>
<linearGradient id="paint8_linear_17_119" x1="38.4591" y1="-3.33511" x2="73.5283" y2="56.333" gradientUnits="userSpaceOnUse">
<stop stop-color="#730B63"/>
<stop offset="1" stop-color="#FFC117"/>
</linearGradient>
<linearGradient id="paint9_linear_17_119" x1="21.5757" y1="75.0347" x2="25.5963" y2="87.3558" gradientUnits="userSpaceOnUse">
<stop stop-color="#730B63"/>
<stop offset="1" stop-color="#FFC117"/>
</linearGradient>
<linearGradient id="paint10_linear_17_119" x1="30.4491" y1="53.7751" x2="43.0301" y2="72.4522" gradientUnits="userSpaceOnUse">
<stop stop-color="#730B63"/>
<stop offset="1" stop-color="#FFC117"/>
</linearGradient>
<linearGradient id="paint11_linear_17_119" x1="35.8857" y1="80.4189" x2="40.4268" y2="70.7292" gradientUnits="userSpaceOnUse">
<stop stop-color="#F5F2D5"/>
<stop offset="1"/>
</linearGradient>
<linearGradient id="paint12_linear_17_119" x1="47.889" y1="69.5275" x2="42.3289" y2="83.7058" gradientUnits="userSpaceOnUse">
<stop stop-color="#FFC117"/>
<stop offset="0.2172" stop-color="#F6B01A"/>
<stop offset="0.6463" stop-color="#E08322"/>
<stop offset="1" stop-color="#CC5A29"/>
</linearGradient>
<linearGradient id="paint13_linear_17_119" x1="47.309" y1="79.1506" x2="49.8111" y2="86.7959" gradientUnits="userSpaceOnUse">
<stop stop-color="#730B63"/>
<stop offset="1" stop-color="#FFC117"/>
</linearGradient>
<linearGradient id="paint14_linear_17_119" x1="50.602" y1="39.6831" x2="55.9423" y2="47.306" gradientUnits="userSpaceOnUse">
<stop stop-color="#730B63"/>
<stop offset="1" stop-color="#FFC117"/>
</linearGradient>
<linearGradient id="paint15_linear_17_119" x1="130.755" y1="9.99293" x2="130.755" y2="22.2334" gradientUnits="userSpaceOnUse">
<stop stop-color="#730B63"/>
<stop offset="1" stop-color="#FFC117"/>
</linearGradient>
<linearGradient id="paint16_linear_17_119" x1="59.4486" y1="6.99202" x2="85.7726" y2="44.5682" gradientUnits="userSpaceOnUse">
<stop stop-color="#730B63"/>
<stop offset="1" stop-color="#FFC117"/>
</linearGradient>
<linearGradient id="paint17_linear_17_119" x1="50.7869" y1="48.4813" x2="50.6573" y2="78.8299" gradientUnits="userSpaceOnUse">
<stop stop-color="#730B63"/>
<stop offset="1" stop-color="#FFC117"/>
</linearGradient>
<linearGradient id="paint18_linear_17_119" x1="62.8431" y1="60.5969" x2="71.403" y2="101.062" gradientUnits="userSpaceOnUse">
<stop stop-color="#730B63"/>
<stop offset="1" stop-color="#FFC117"/>
</linearGradient>
<linearGradient id="paint19_linear_17_119" x1="132.145" y1="92.0887" x2="136.266" y2="112.238" gradientUnits="userSpaceOnUse">
<stop stop-color="#FFC117"/>
<stop offset="0.2172" stop-color="#F6B01A"/>
<stop offset="0.6463" stop-color="#E08322"/>
<stop offset="1" stop-color="#CC5A29"/>
</linearGradient>
<linearGradient id="paint20_linear_17_119" x1="50.8588" y1="41.1611" x2="51.2218" y2="55.7734" gradientUnits="userSpaceOnUse">
<stop stop-color="#FFC117"/>
<stop offset="0.2172" stop-color="#F6B01A"/>
<stop offset="0.6463" stop-color="#E08322"/>
<stop offset="1" stop-color="#CC5A29"/>
</linearGradient>
<linearGradient id="paint21_linear_17_119" x1="130.561" y1="4.5898" x2="123.549" y2="-14.5767" gradientUnits="userSpaceOnUse">
<stop stop-color="#FFC117"/>
<stop offset="0.2172" stop-color="#F6B01A"/>
<stop offset="0.6463" stop-color="#E08322"/>
<stop offset="1" stop-color="#CC5A29"/>
</linearGradient>
<linearGradient id="paint22_linear_17_119" x1="39.6082" y1="48.9488" x2="39.4267" y2="67.1911" gradientUnits="userSpaceOnUse">
<stop stop-color="#FFC117"/>
<stop offset="0.2172" stop-color="#F6B01A"/>
<stop offset="0.6463" stop-color="#E08322"/>
<stop offset="1" stop-color="#CC5A29"/>
</linearGradient>
<linearGradient id="paint23_linear_17_119" x1="23.6057" y1="77.8281" x2="33.4408" y2="56.842" gradientUnits="userSpaceOnUse">
<stop stop-color="#F5F2D5"/>
<stop offset="1"/>
</linearGradient>
<linearGradient id="paint24_linear_17_119" x1="80.1078" y1="91.4616" x2="84.0767" y2="82.993" gradientUnits="userSpaceOnUse">
<stop stop-color="#F5F2D5"/>
<stop offset="1"/>
</linearGradient>
<linearGradient id="paint25_linear_17_119" x1="2.5057" y1="42.2447" x2="21.119" y2="77.7896" gradientUnits="userSpaceOnUse">
<stop stop-color="#FFC117"/>
<stop offset="0.2172" stop-color="#F6B01A"/>
<stop offset="0.6463" stop-color="#E08322"/>
<stop offset="1" stop-color="#CC5A29"/>
</linearGradient>
<linearGradient id="paint26_linear_17_119" x1="22.2664" y1="53.7483" x2="31.5732" y2="62.0458" gradientUnits="userSpaceOnUse">
<stop stop-color="#730B63"/>
<stop offset="1" stop-color="#FFC117"/>
</linearGradient>
<linearGradient id="paint27_linear_17_119" x1="23.9903" y1="33.9085" x2="27.546" y2="51.8053" gradientUnits="userSpaceOnUse">
<stop stop-color="#730B63"/>
<stop offset="1" stop-color="#FFC117"/>
</linearGradient>
<linearGradient id="paint28_linear_17_119" x1="5.94352" y1="41.3975" x2="11.4378" y2="55.9742" gradientUnits="userSpaceOnUse">
<stop stop-color="#730B63"/>
<stop offset="1" stop-color="#FFC117"/>
</linearGradient>
<linearGradient id="paint29_linear_17_119" x1="17.2388" y1="33.0636" x2="23.518" y2="47.3041" gradientUnits="userSpaceOnUse">
<stop stop-color="#730B63"/>
<stop offset="1" stop-color="#FFC117"/>
</linearGradient>
<linearGradient id="paint30_linear_17_119" x1="12.262" y1="43.408" x2="19.7747" y2="52.4905" gradientUnits="userSpaceOnUse">
<stop stop-color="#730B63"/>
<stop offset="1" stop-color="#FFC117"/>
</linearGradient>
<linearGradient id="paint31_linear_17_119" x1="18.9998" y1="50.7774" x2="32.6796" y2="66.3633" gradientUnits="userSpaceOnUse">
<stop stop-color="#FFC117"/>
<stop offset="0.2172" stop-color="#F6B01A"/>
<stop offset="0.6463" stop-color="#E08322"/>
<stop offset="1" stop-color="#CC5A29"/>
</linearGradient>
<linearGradient id="paint32_linear_17_119" x1="6.6559" y1="33.2646" x2="30.7612" y2="74.6359" gradientUnits="userSpaceOnUse">
<stop stop-color="#FFC117"/>
<stop offset="0.2172" stop-color="#F6B01A"/>
<stop offset="0.6463" stop-color="#E08322"/>
<stop offset="1" stop-color="#CC5A29"/>
</linearGradient>
<linearGradient id="paint33_linear_17_119" x1="2.11941" y1="47.7533" x2="10.7715" y2="39.4568" gradientUnits="userSpaceOnUse">
<stop stop-color="#F5F2D5"/>
<stop offset="1"/>
</linearGradient>
<linearGradient id="paint34_linear_17_119" x1="16.6944" y1="57.828" x2="21.489" y2="53.2305" gradientUnits="userSpaceOnUse">
<stop stop-color="#F5F2D5"/>
<stop offset="1"/>
</linearGradient>
<linearGradient id="paint35_linear_17_119" x1="47.2862" y1="37.4947" x2="63.0721" y2="57.5711" gradientUnits="userSpaceOnUse">
<stop stop-color="#730B63"/>
<stop offset="1" stop-color="#FFC117"/>
</linearGradient>
<linearGradient id="paint36_linear_17_119" x1="56.9921" y1="37.2307" x2="68.3255" y2="57.0642" gradientUnits="userSpaceOnUse">
<stop stop-color="#730B63"/>
<stop offset="1" stop-color="#FFC117"/>
</linearGradient>
<linearGradient id="paint37_linear_17_119" x1="57.8382" y1="45.3233" x2="64.3954" y2="55.7664" gradientUnits="userSpaceOnUse">
<stop stop-color="#FFC117"/>
<stop offset="0.2172" stop-color="#F6B01A"/>
<stop offset="0.6463" stop-color="#E08322"/>
<stop offset="1" stop-color="#CC5A29"/>
</linearGradient>
<linearGradient id="paint38_linear_17_119" x1="17.8112" y1="59.1985" x2="4.87483" y2="43.0566" gradientUnits="userSpaceOnUse">
<stop stop-color="#6226C9"/>
<stop offset="0.9888" stop-color="#250D57"/>
</linearGradient>
<linearGradient id="paint39_linear_17_119" x1="25.607" y1="52.9507" x2="12.6706" y2="36.8088" gradientUnits="userSpaceOnUse">
<stop stop-color="#6226C9"/>
<stop offset="0.9888" stop-color="#250D57"/>
</linearGradient>
<linearGradient id="paint40_linear_17_119" x1="21.052" y1="57.2838" x2="17.9037" y2="45.6066" gradientUnits="userSpaceOnUse">
<stop stop-color="#6226C9"/>
<stop offset="0.9888" stop-color="#250D57"/>
</linearGradient>
<linearGradient id="paint41_linear_17_119" x1="12.995" y1="45.4089" x2="9.31128" y2="40.0104" gradientUnits="userSpaceOnUse">
<stop stop-color="#6226C9"/>
<stop offset="0.9888" stop-color="#250D57"/>
</linearGradient>
<linearGradient id="paint42_linear_17_119" x1="11.6326" y1="42.5078" x2="17.3567" y2="52.6966" gradientUnits="userSpaceOnUse">
<stop stop-color="#4A4287"/>
<stop offset="0.0796" stop-color="#514292"/>
<stop offset="0.506" stop-color="#7244C7"/>
<stop offset="0.8256" stop-color="#8645E8"/>
<stop offset="1" stop-color="#8E45F5"/>
</linearGradient>
<linearGradient id="paint43_linear_17_119" x1="7.96939" y1="48.5774" x2="13.8761" y2="43.1153" gradientUnits="userSpaceOnUse">
<stop stop-color="#9976F0"/>
<stop offset="1"/>
</linearGradient>
<linearGradient id="paint44_linear_17_119" x1="14.7256" y1="53.3849" x2="14.7256" y2="45.8372" gradientUnits="userSpaceOnUse">
<stop stop-color="#9976F0"/>
<stop offset="1"/>
</linearGradient>
<linearGradient id="paint45_linear_17_119" x1="340.698" y1="96.5115" x2="358.218" y2="129.284" gradientUnits="userSpaceOnUse">
<stop stop-color="#FFC117"/>
<stop offset="0.2172" stop-color="#F6B01A"/>
<stop offset="0.6463" stop-color="#E08322"/>
<stop offset="1" stop-color="#CC5A29"/>
</linearGradient>
<linearGradient id="paint46_linear_17_119" x1="417.723" y1="85.7911" x2="417.644" y2="67.4758" gradientUnits="userSpaceOnUse">
<stop stop-color="#F5F2D5"/>
<stop offset="1"/>
</linearGradient>
<linearGradient id="paint47_linear_17_119" x1="410.253" y1="85.8234" x2="410.174" y2="67.5081" gradientUnits="userSpaceOnUse">
<stop stop-color="#F5F2D5"/>
<stop offset="1"/>
</linearGradient>
<linearGradient id="paint48_linear_17_119" x1="392.549" y1="23.8353" x2="392.419" y2="44.327" gradientUnits="userSpaceOnUse">
<stop stop-color="#FFC117"/>
<stop offset="0.2172" stop-color="#F6B01A"/>
<stop offset="0.6463" stop-color="#E08322"/>
<stop offset="1" stop-color="#CC5A29"/>
</linearGradient>
<linearGradient id="paint49_linear_17_119" x1="423.525" y1="31.1737" x2="386.382" y2="8.8877" gradientUnits="userSpaceOnUse">
<stop stop-color="#F5F2D5"/>
<stop offset="1"/>
</linearGradient>
<linearGradient id="paint50_linear_17_119" x1="314.031" y1="1.06247" x2="314.031" y2="98.1017" gradientUnits="userSpaceOnUse">
<stop stop-color="#FFC117"/>
<stop offset="0.2172" stop-color="#F6B01A"/>
<stop offset="0.6463" stop-color="#E08322"/>
<stop offset="1" stop-color="#CC5A29"/>
</linearGradient>
<linearGradient id="paint51_linear_17_119" x1="416.402" y1="30.7738" x2="418.636" y2="19.7839" gradientUnits="userSpaceOnUse">
<stop stop-color="#F5F2D5"/>
<stop offset="1"/>
</linearGradient>
<linearGradient id="paint52_linear_17_119" x1="410.553" y1="29.8325" x2="412.878" y2="18.3947" gradientUnits="userSpaceOnUse">
<stop stop-color="#F5F2D5"/>
<stop offset="1"/>
</linearGradient>
<linearGradient id="paint53_linear_17_119" x1="438.952" y1="18.4907" x2="433.032" y2="25.6317" gradientUnits="userSpaceOnUse">
<stop stop-color="#FFC117"/>
<stop offset="0.2172" stop-color="#F6B01A"/>
<stop offset="0.6463" stop-color="#E08322"/>
<stop offset="1" stop-color="#CC5A29"/>
</linearGradient>
<linearGradient id="paint54_linear_17_119" x1="419.892" y1="12.6963" x2="427.582" y2="52.3363" gradientUnits="userSpaceOnUse">
<stop stop-color="#730B63"/>
<stop offset="1" stop-color="#FFC117"/>
</linearGradient>
<linearGradient id="paint55_linear_17_119" x1="412.693" y1="14.0928" x2="420.383" y2="53.7328" gradientUnits="userSpaceOnUse">
<stop stop-color="#730B63"/>
<stop offset="1" stop-color="#FFC117"/>
</linearGradient>
<linearGradient id="paint56_linear_17_119" x1="409.003" y1="5.58738" x2="415.582" y2="28.7538" gradientUnits="userSpaceOnUse">
<stop stop-color="#730B63"/>
<stop offset="1" stop-color="#FFC117"/>
</linearGradient>
<linearGradient id="paint57_linear_17_119" x1="438.279" y1="75.0347" x2="434.259" y2="87.3558" gradientUnits="userSpaceOnUse">
<stop stop-color="#730B63"/>
<stop offset="1" stop-color="#FFC117"/>
</linearGradient>
<linearGradient id="paint58_linear_17_119" x1="411.021" y1="49.7141" x2="427.638" y2="74.383" gradientUnits="userSpaceOnUse">
<stop stop-color="#730B63"/>
<stop offset="1" stop-color="#FFC117"/>
</linearGradient>
<linearGradient id="paint59_linear_17_119" x1="409.586" y1="62.5225" x2="416.843" y2="82.6675" gradientUnits="userSpaceOnUse">
<stop stop-color="#FFC117"/>
<stop offset="0.2172" stop-color="#F6B01A"/>
<stop offset="0.6463" stop-color="#E08322"/>
<stop offset="1" stop-color="#CC5A29"/>
</linearGradient>
<linearGradient id="paint60_linear_17_119" x1="412.546" y1="79.1506" x2="410.044" y2="86.7959" gradientUnits="userSpaceOnUse">
<stop stop-color="#730B63"/>
<stop offset="1" stop-color="#FFC117"/>
</linearGradient>
<linearGradient id="paint61_linear_17_119" x1="409.253" y1="39.6831" x2="403.913" y2="47.306" gradientUnits="userSpaceOnUse">
<stop stop-color="#730B63"/>
<stop offset="1" stop-color="#FFC117"/>
</linearGradient>
<linearGradient id="paint62_linear_17_119" x1="285.057" y1="9.99293" x2="285.057" y2="22.2334" gradientUnits="userSpaceOnUse">
<stop stop-color="#730B63"/>
<stop offset="1" stop-color="#FFC117"/>
</linearGradient>
<linearGradient id="paint63_linear_17_119" x1="400.406" y1="6.99202" x2="374.082" y2="44.5683" gradientUnits="userSpaceOnUse">
<stop stop-color="#730B63"/>
<stop offset="1" stop-color="#FFC117"/>
</linearGradient>
<linearGradient id="paint64_linear_17_119" x1="409.068" y1="48.4813" x2="409.198" y2="78.8299" gradientUnits="userSpaceOnUse">
<stop stop-color="#730B63"/>
<stop offset="1" stop-color="#FFC117"/>
</linearGradient>
<linearGradient id="paint65_linear_17_119" x1="404.329" y1="55.9802" x2="393.209" y2="79.1468" gradientUnits="userSpaceOnUse">
<stop stop-color="#730B63"/>
<stop offset="1" stop-color="#FFC117"/>
</linearGradient>
<linearGradient id="paint66_linear_17_119" x1="287.679" y1="93.5908" x2="297.876" y2="122.983" gradientUnits="userSpaceOnUse">
<stop stop-color="#FFC117"/>
<stop offset="0.2172" stop-color="#F6B01A"/>
<stop offset="0.6463" stop-color="#E08322"/>
<stop offset="1" stop-color="#CC5A29"/>
</linearGradient>
<linearGradient id="paint67_linear_17_119" x1="407.965" y1="36.8005" x2="413.799" y2="53.1682" gradientUnits="userSpaceOnUse">
<stop stop-color="#FFC117"/>
<stop offset="0.2172" stop-color="#F6B01A"/>
<stop offset="0.6463" stop-color="#E08322"/>
<stop offset="1" stop-color="#CC5A29"/>
</linearGradient>
<linearGradient id="paint68_linear_17_119" x1="285.784" y1="3.1336" x2="297.148" y2="-27.9262" gradientUnits="userSpaceOnUse">
<stop stop-color="#FFC117"/>
<stop offset="0.2172" stop-color="#F6B01A"/>
<stop offset="0.6463" stop-color="#E08322"/>
<stop offset="1" stop-color="#CC5A29"/>
</linearGradient>
<linearGradient id="paint69_linear_17_119" x1="420.247" y1="48.9488" x2="420.428" y2="67.1911" gradientUnits="userSpaceOnUse">
<stop stop-color="#FFC117"/>
<stop offset="0.2172" stop-color="#F6B01A"/>
<stop offset="0.6463" stop-color="#E08322"/>
<stop offset="1" stop-color="#CC5A29"/>
</linearGradient>
<linearGradient id="paint70_linear_17_119" x1="386.602" y1="82.9719" x2="394.672" y2="73.3827" gradientUnits="userSpaceOnUse">
<stop stop-color="#F5F2D5"/>
<stop offset="1"/>
</linearGradient>
<linearGradient id="paint71_linear_17_119" x1="419.744" y1="82.1883" x2="427.233" y2="66.2076" gradientUnits="userSpaceOnUse">
<stop stop-color="#F5F2D5"/>
<stop offset="1"/>
</linearGradient>
<linearGradient id="paint72_linear_17_119" x1="406.155" y1="54.9419" x2="421.877" y2="43.57" gradientUnits="userSpaceOnUse">
<stop stop-color="#FFC117"/>
<stop offset="0.2172" stop-color="#F6B01A"/>
<stop offset="0.6463" stop-color="#E08322"/>
<stop offset="1" stop-color="#CC5A29"/>
</linearGradient>
<linearGradient id="paint73_linear_17_119" x1="399.705" y1="59.4179" x2="412.005" y2="50.9985" gradientUnits="userSpaceOnUse">
<stop stop-color="#F5F2D5"/>
<stop offset="1"/>
</linearGradient>
<linearGradient id="paint74_linear_17_119" x1="452.538" y1="62.3321" x2="447.798" y2="54.9051" gradientUnits="userSpaceOnUse">
<stop stop-color="#FFC117"/>
<stop offset="0.2172" stop-color="#F6B01A"/>
<stop offset="0.6463" stop-color="#E08322"/>
<stop offset="1" stop-color="#CC5A29"/>
</linearGradient>
<linearGradient id="paint75_linear_17_119" x1="437.589" y1="53.7483" x2="428.282" y2="62.0458" gradientUnits="userSpaceOnUse">
<stop stop-color="#730B63"/>
<stop offset="1" stop-color="#FFC117"/>
</linearGradient>
<linearGradient id="paint76_linear_17_119" x1="445.742" y1="25.6893" x2="433.15" y2="44.0402" gradientUnits="userSpaceOnUse">
<stop stop-color="#730B63"/>
<stop offset="1" stop-color="#FFC117"/>
</linearGradient>
<linearGradient id="paint77_linear_17_119" x1="445.912" y1="48.1014" x2="448.533" y2="55.056" gradientUnits="userSpaceOnUse">
<stop stop-color="#730B63"/>
<stop offset="1" stop-color="#FFC117"/>
</linearGradient>
<linearGradient id="paint78_linear_17_119" x1="435.641" y1="40.1668" x2="443.352" y2="51.392" gradientUnits="userSpaceOnUse">
<stop stop-color="#730B63"/>
<stop offset="1" stop-color="#FFC117"/>
</linearGradient>
<linearGradient id="paint79_linear_17_119" x1="446.344" y1="32.8421" x2="451.322" y2="51.9739" gradientUnits="userSpaceOnUse">
<stop stop-color="#730B63"/>
<stop offset="1" stop-color="#FFC117"/>
</linearGradient>
<linearGradient id="paint80_linear_17_119" x1="440.987" y1="67.3176" x2="437.375" y2="51.407" gradientUnits="userSpaceOnUse">
<stop stop-color="#730B63"/>
<stop offset="1" stop-color="#FFC117"/>
</linearGradient>
<linearGradient id="paint81_linear_17_119" x1="447.993" y1="29.4913" x2="453.069" y2="62.6792" gradientUnits="userSpaceOnUse">
<stop stop-color="#FFC117"/>
<stop offset="0.2172" stop-color="#F6B01A"/>
<stop offset="0.6463" stop-color="#E08322"/>
<stop offset="1" stop-color="#CC5A29"/>
</linearGradient>
<linearGradient id="paint82_linear_17_119" x1="431.215" y1="46.6345" x2="437.536" y2="37.6272" gradientUnits="userSpaceOnUse">
<stop stop-color="#F5F2D5"/>
<stop offset="1"/>
</linearGradient>
<linearGradient id="paint83_linear_17_119" x1="445.257" y1="60.4755" x2="450.958" y2="52.3515" gradientUnits="userSpaceOnUse">
<stop stop-color="#F5F2D5"/>
<stop offset="1"/>
</linearGradient>
<linearGradient id="paint84_linear_17_119" x1="400.037" y1="46.9786" x2="403.472" y2="54.5916" gradientUnits="userSpaceOnUse">
<stop stop-color="#730B63"/>
<stop offset="1" stop-color="#FFC117"/>
</linearGradient>
<linearGradient id="paint85_linear_17_119" x1="400.961" y1="60.9197" x2="395.065" y2="40.084" gradientUnits="userSpaceOnUse">
<stop stop-color="#730B63"/>
<stop offset="1" stop-color="#FFC117"/>
</linearGradient>
<linearGradient id="paint86_linear_17_119" x1="400.822" y1="42.1558" x2="406.203" y2="55.2066" gradientUnits="userSpaceOnUse">
<stop stop-color="#FFC117"/>
<stop offset="0.2172" stop-color="#F6B01A"/>
<stop offset="0.6463" stop-color="#E08322"/>
<stop offset="1" stop-color="#CC5A29"/>
</linearGradient>
<linearGradient id="paint87_linear_17_119" x1="448.245" y1="53.7079" x2="446.367" y2="51.3012" gradientUnits="userSpaceOnUse">
<stop stop-color="#6226C9"/>
<stop offset="0.9888" stop-color="#250D57"/>
</linearGradient>
<linearGradient id="paint88_linear_17_119" x1="442.136" y1="46.6832" x2="439.37" y2="43.4554" gradientUnits="userSpaceOnUse">
<stop stop-color="#6226C9"/>
<stop offset="0.9888" stop-color="#250D57"/>
</linearGradient>
<linearGradient id="paint89_linear_17_119" x1="438.803" y1="57.2837" x2="441.951" y2="45.6065" gradientUnits="userSpaceOnUse">
<stop stop-color="#6226C9"/>
<stop offset="0.9888" stop-color="#250D57"/>
</linearGradient>
<linearGradient id="paint90_linear_17_119" x1="446.86" y1="45.409" x2="450.544" y2="40.0103" gradientUnits="userSpaceOnUse">
<stop stop-color="#6226C9"/>
<stop offset="0.9888" stop-color="#250D57"/>
</linearGradient>
<linearGradient id="paint91_linear_17_119" x1="443.318" y1="43.8254" x2="445.322" y2="50.2364" gradientUnits="userSpaceOnUse">
<stop stop-color="#391C87"/>
<stop offset="0.0796" stop-color="#412092"/>
<stop offset="0.506" stop-color="#6B34C7"/>
<stop offset="0.8256" stop-color="#8440E8"/>
<stop offset="1" stop-color="#8E45F5"/>
</linearGradient>
<linearGradient id="paint92_linear_17_119" x1="445.129" y1="53.3849" x2="445.129" y2="45.8372" gradientUnits="userSpaceOnUse">
<stop stop-color="#9976F0"/>
<stop offset="1"/>
</linearGradient>
<linearGradient id="paint93_linear_17_119" x1="437.417" y1="47.347" x2="441.731" y2="43.3579" gradientUnits="userSpaceOnUse">
<stop stop-color="#9976F0"/>
<stop offset="1"/>
</linearGradient>
</defs>
</svg>
